<svg width="25" height="28" viewBox="0 0 25 28" fill="none" xmlns="http://www.w3.org/2000/svg">
<path d="M24.9566 26.5551L22.0072 18.339C21.9621 18.2084 21.8795 18.0963 21.7713 18.0188C21.6659 17.9407 21.5407 17.8986 21.4125 17.898H16.3642C18.4287 14.1863 19.4462 10.9261 19.4462 8.19619C19.4436 6.22776 18.7107 4.34067 17.4079 2.94829C16.1051 1.5559 14.3387 0.771744 12.4957 0.767578C10.6509 0.767578 8.88179 1.55023 7.57738 2.94337C6.27297 4.3365 5.54016 6.226 5.54016 8.19619C5.54016 10.9261 6.56259 14.1863 8.62221 17.898H3.56411C3.44109 17.9076 3.32329 17.955 3.22494 18.0345C3.11802 18.1136 3.03581 18.2252 2.98899 18.3547L0.0396682 26.5708C0.00384648 26.673 -0.00796825 26.7829 0.00525958 26.8911C0.0167971 27.0023 0.0539509 27.1087 0.113401 27.2008C0.172746 27.2897 0.250015 27.3633 0.339516 27.4161C0.432006 27.4679 0.534914 27.4949 0.639364 27.4948H24.3618C24.4647 27.4949 24.566 27.4679 24.6567 27.4161C24.7486 27.3649 24.8278 27.2911 24.8877 27.2008C24.9446 27.1073 24.9815 27.0016 24.9959 26.8911C25.0076 26.7773 24.9942 26.6623 24.9566 26.5551V26.5551ZM16.9885 23.1532L19.1218 26.1141H9.1875L16.9885 23.1532ZM10.4803 24.2031L6.94109 19.2892H9.39886C10.1974 20.6049 11.0639 21.8721 11.9943 23.0849C12.0527 23.1599 12.1268 23.2192 12.2106 23.2582C12.2945 23.2996 12.3859 23.321 12.4785 23.321C12.571 23.321 12.6624 23.2996 12.7463 23.2582C12.8321 23.2154 12.9077 23.1526 12.9675 23.0744C13.8975 21.8643 14.7624 20.5988 15.558 19.284H20.9651L21.2601 20.0977L10.4803 24.2031ZM6.81329 8.19619C6.81329 7.39934 6.96047 6.61032 7.24642 5.87432C7.53236 5.13831 7.95144 4.46978 8.47966 3.90702C9.54498 2.77328 10.9868 2.13542 12.4907 2.13255V2.13255C13.2365 2.13046 13.9752 2.28753 14.6634 2.59454C15.353 2.89777 15.9795 3.34384 16.5068 3.907C17.0341 4.47017 17.4517 5.13928 17.7356 5.87573C18.0235 6.61244 18.1705 7.40316 18.1682 8.20144C18.1977 13.2991 13.8327 19.683 12.4907 21.5309C11.1488 19.6882 6.78379 13.3096 6.81329 8.19619ZM5.33862 19.263L9.2219 24.6546L5.38286 26.1141H1.55366L4.01143 19.2892L5.33862 19.263ZM20.7439 26.0879L18.2862 22.6439L21.7615 21.3209L23.4622 26.0879H20.7439Z" fill="#444444"/>
<path d="M12.4838 11.1273C12.4838 11.4877 12.4838 11.8285 12.4838 12.1693C12.4838 12.6628 12.3629 12.7842 11.9159 12.7882H10.6958C10.2378 12.7882 10.1389 12.6785 10.1352 12.1732C10.1352 11.5621 10.1352 10.9511 10.1352 10.2891C9.90258 10.3152 9.66803 10.3152 9.4354 10.2891C9.34795 10.2743 9.26434 10.2402 9.1899 10.1889C9.11547 10.1377 9.05183 10.0704 9.00306 9.9914C8.99409 9.89873 9.00492 9.80509 9.03475 9.71756C9.06459 9.63002 9.11263 9.55088 9.17526 9.4861C10.2744 8.42458 11.3736 7.38265 12.4728 6.35247C12.8062 6.03519 12.9747 6.03127 13.3082 6.35247C14.4073 7.39832 15.5065 8.44025 16.5837 9.4861C16.7009 9.59969 16.8145 9.8778 16.7632 9.98748C16.6514 10.1511 16.4846 10.262 16.2979 10.2969C16.0751 10.3229 15.8502 10.3229 15.6274 10.2969C15.6274 10.955 15.6274 11.566 15.6274 12.1732C15.6274 12.6981 15.5321 12.796 15.0375 12.7999H13.8358C13.3851 12.7999 13.2715 12.6746 13.2642 12.1849C13.2642 11.8442 13.2642 11.5034 13.2642 11.1391L12.4838 11.1273ZM14.8177 11.9107C14.8177 11.3584 14.8177 10.8022 14.8177 10.2499C14.8177 9.85822 14.8177 9.46651 15.305 9.36859L12.8721 7.0497L10.454 9.36075C10.8643 9.54485 10.9303 9.64278 10.9303 10.0658C10.9303 10.673 10.9303 11.284 10.9303 11.899H11.685C11.685 11.5073 11.685 11.1548 11.685 10.7983C11.6764 10.7246 11.6838 10.6497 11.7067 10.5796C11.7296 10.5094 11.7673 10.4459 11.817 10.394C11.8667 10.342 11.9269 10.303 11.993 10.2801C12.0591 10.2571 12.1292 10.2508 12.198 10.2617C12.6377 10.2617 13.081 10.2617 13.5207 10.2617C13.9603 10.2617 14.0519 10.4066 14.0593 10.8414C14.0593 11.1939 14.0593 11.5425 14.0593 11.9068L14.8177 11.9107Z" fill="#444444"/>
</svg>
