<svg width="25" height="28" viewBox="0 0 25 28" fill="none" xmlns="http://www.w3.org/2000/svg">
<path d="M11.8618 15.7713C11.8898 16.2208 12.1003 16.6346 12.4381 16.9038C12.757 17.1986 12.9188 17.643 12.8703 18.0907L12.8109 18.6388L12.8067 18.6433C7.62032 24.7362 2.31954 28.2242 0.569564 26.5436C-0.599913 25.4247 0.0907561 22.2583 2.09921 18.3444L2.10344 18.3489C2.81059 19.1332 3.61632 19.8086 4.49748 20.3557C4.78396 20.5311 5.12478 20.5747 5.44188 20.4765C5.75899 20.3783 6.02524 20.1467 6.17966 19.8347C6.51558 19.1815 6.30545 18.3611 5.70509 17.982C4.84803 17.4485 4.08391 16.7604 3.44665 15.948C3.91698 15.1734 4.42545 14.3806 4.97629 13.5834C5.47158 14.2855 6.02926 14.9348 6.64152 15.5222C6.97643 15.8426 7.32722 16.1435 7.69236 16.4237C7.96148 16.6276 8.2965 16.7062 8.62076 16.6413C8.94503 16.5764 9.23079 16.3736 9.41267 16.0794C9.80007 15.4604 9.66173 14.625 9.09912 14.1858C8.1059 13.4232 7.25147 12.4729 6.57796 11.3818C6.76864 11.1281 6.96779 10.8699 7.17118 10.6162C7.43389 10.2855 7.69659 9.95938 7.96354 9.64228C8.45906 10.4657 9.05465 11.2152 9.7347 11.871C10.0348 12.1597 10.3518 12.4275 10.6838 12.6728C10.9565 12.8745 11.2943 12.9484 11.6191 12.8774C11.9439 12.8064 12.2275 12.5967 12.4042 12.2968C12.7831 11.6724 12.6314 10.8392 12.0609 10.4124C11.0926 9.68698 10.2961 8.72991 9.7347 7.61738C10.1923 7.11455 10.6499 6.6389 11.1076 6.18138C11.4791 6.79163 11.9235 7.34747 12.4296 7.83482C12.7756 8.16758 13.1502 8.46484 13.5482 8.72269C13.8306 8.90503 14.1701 8.95687 14.4889 8.86633C14.8077 8.77578 15.0784 8.55062 15.2389 8.24252C15.5873 7.59627 15.3943 6.77109 14.8024 6.37617C14.0618 5.88787 13.4459 5.21081 13.0101 4.40563C16.4422 1.41584 19.3914 0.0704379 20.6117 1.2437C22.1329 2.70235 20.5142 7.60832 16.938 13.1077C14.0397 13.3614 11.8618 14.4576 11.8618 15.7713Z" fill="#F29C1F"/>
<path d="M15.2387 8.24242C15.0783 8.55052 14.8076 8.77569 14.4888 8.86623C14.17 8.95678 13.8304 8.90493 13.5481 8.7226C13.15 8.46475 12.7755 8.16748 12.4294 7.83472C11.9234 7.34737 11.479 6.79153 11.1074 6.18127C11.7515 5.53802 12.3913 4.94459 13.0099 4.40552C13.4458 5.21071 14.0616 5.88776 14.8023 6.37606C15.3942 6.77099 15.5872 7.59617 15.2387 8.24242Z" fill="#E57E25"/>
<path d="M12.404 12.2969C12.2273 12.5968 11.9437 12.8065 11.6189 12.8775C11.2941 12.9485 10.9563 12.8746 10.6837 12.6729C10.3516 12.4276 10.0346 12.1597 9.73453 11.8711C9.05448 11.2152 8.4589 10.4658 7.96338 9.64233C8.54811 8.93113 9.14132 8.25616 9.73453 7.61743C10.2959 8.72997 11.0924 9.68703 12.0607 10.4124C12.6312 10.8393 12.7829 11.6724 12.404 12.2969Z" fill="#E57E25"/>
<path d="M9.41274 16.0794C9.23086 16.3737 8.94509 16.5765 8.62082 16.6414C8.29655 16.7062 7.96153 16.6277 7.69241 16.4237C7.32726 16.1436 6.97648 15.8427 6.64157 15.5223C6.0293 14.9349 5.47162 14.2856 4.97632 13.5834C5.47632 12.8541 6.01021 12.1202 6.57801 11.3818C7.25151 12.473 8.10595 13.4233 9.09918 14.1859C9.6618 14.625 9.80014 15.4605 9.41274 16.0794Z" fill="#E57E25"/>
<path d="M6.17951 19.8347C6.02509 20.1467 5.75885 20.3783 5.44174 20.4765C5.12464 20.5747 4.78383 20.5311 4.49736 20.3556C3.61621 19.8086 2.81049 19.1332 2.10336 18.3489L2.09912 18.3443C2.49741 17.5743 2.94655 16.7679 3.44654 15.948C4.08379 16.7604 4.8479 17.4485 5.70495 17.982C6.30529 18.3611 6.51542 19.1815 6.17951 19.8347Z" fill="#E57E25"/>
<path d="M16.4283 10.9206C16.2751 10.9203 16.134 10.8316 16.0593 10.6887C15.9845 10.5457 15.9877 10.3708 16.0677 10.2311C16.7456 9.0429 17.1139 8.28322 17.1168 8.27416C17.2234 8.05125 17.4789 7.96292 17.6874 8.07688C17.8959 8.19084 17.9785 8.46393 17.8719 8.68684C17.8562 8.71855 17.4905 9.48321 16.7901 10.7036C16.7131 10.8384 16.576 10.9206 16.4283 10.9206Z" fill="white"/>
<path d="M24.404 25.5743C24.4477 25.9605 24.3344 26.3481 24.093 26.6391C23.8516 26.9301 23.5051 27.0966 23.1413 27.0964H13.294C12.9302 27.0966 12.5837 26.9301 12.3423 26.6391C12.1009 26.3481 11.9876 25.9605 12.0313 25.5743L12.8067 18.6435L12.811 18.6389L12.8703 18.0908C12.9188 17.6431 12.757 17.1987 12.4381 16.9039C12.1003 16.6347 11.8898 16.2209 11.8618 15.7714C11.8618 14.4578 14.0397 13.3615 16.938 13.1078C17.349 13.0716 17.777 13.0535 18.2177 13.0535C21.7261 13.0535 24.5735 14.272 24.5735 15.7714C24.5455 16.2209 24.335 16.6347 23.9972 16.9039C23.6783 17.1987 23.5165 17.6431 23.565 18.0908L24.404 25.5743Z" fill="#F9EAB0"/>
<path d="M23.1412 27.5493H13.2939C12.8091 27.5495 12.3473 27.3277 12.0255 26.94C11.7037 26.5523 11.5526 26.0358 11.6104 25.5212L12.3859 18.5903C12.388 18.5712 12.3914 18.5523 12.396 18.5337L12.4494 18.0395C12.4814 17.739 12.3724 17.4411 12.1583 17.2436C11.7279 16.8895 11.4645 16.3513 11.438 15.7713C11.438 14.1944 13.6346 12.9424 16.904 12.6565C17.3239 12.6194 17.7663 12.6003 18.2175 12.6003C22.0823 12.6003 24.9971 13.9634 24.9971 15.7713C24.9707 16.3517 24.7073 16.8904 24.2767 17.2449C24.0635 17.4412 23.9546 17.7373 23.9856 18.0363L24.8246 25.5203C24.8827 26.0351 24.7317 26.5518 24.4099 26.9397C24.088 27.3276 23.6262 27.5495 23.1412 27.5493ZM13.2214 18.7507L12.4524 25.6281C12.4231 25.8856 12.4985 26.1441 12.6594 26.3382C12.8203 26.5323 13.0513 26.6433 13.2939 26.6433H23.1412C23.3838 26.6433 23.6147 26.5323 23.7756 26.3382C23.9365 26.1441 24.0119 25.8856 23.9827 25.6281L23.1441 18.1446C23.0797 17.549 23.294 16.9577 23.717 16.5641C23.9566 16.3743 24.113 16.0877 24.1496 15.7713C24.1496 14.7022 21.6128 13.5063 18.2175 13.5063C17.7891 13.5063 17.3701 13.524 16.9726 13.5593C14.0388 13.8162 12.2854 14.8857 12.2854 15.7713C12.3218 16.0872 12.4779 16.3733 12.7172 16.5627C13.1408 16.957 13.3554 17.549 13.2909 18.1455L13.2316 18.6891C13.23 18.7099 13.2266 18.7305 13.2214 18.7507Z" fill="#E4C05C"/>
<path d="M16.5228 16.2244C16.7568 16.2244 16.9465 16.0215 16.9465 15.7714C16.9465 15.5212 16.7568 15.3184 16.5228 15.3184C16.2888 15.3184 16.0991 15.5212 16.0991 15.7714C16.0991 16.0215 16.2888 16.2244 16.5228 16.2244Z" fill="#CB8252"/>
<path d="M14.828 18.0361C15.062 18.0361 15.2517 17.8333 15.2517 17.5831C15.2517 17.3329 15.062 17.1301 14.828 17.1301C14.594 17.1301 14.4043 17.3329 14.4043 17.5831C14.4043 17.8333 14.594 18.0361 14.828 18.0361Z" fill="#CB8252"/>
<path d="M16.5228 19.8481C16.7568 19.8481 16.9465 19.6453 16.9465 19.3951C16.9465 19.145 16.7568 18.9421 16.5228 18.9421C16.2888 18.9421 16.0991 19.145 16.0991 19.3951C16.0991 19.6453 16.2888 19.8481 16.5228 19.8481Z" fill="#CB8252"/>
<path d="M21.6075 17.1304C21.8416 17.1304 22.0312 16.9276 22.0312 16.6774C22.0312 16.4272 21.8416 16.2244 21.6075 16.2244C21.3735 16.2244 21.1838 16.4272 21.1838 16.6774C21.1838 16.9276 21.3735 17.1304 21.6075 17.1304Z" fill="#CB8252"/>
<path d="M19.0653 15.7712C19.2993 15.7712 19.489 15.5684 19.489 15.3182C19.489 15.0681 19.2993 14.8652 19.0653 14.8652C18.8313 14.8652 18.6416 15.0681 18.6416 15.3182C18.6416 15.5684 18.8313 15.7712 19.0653 15.7712Z" fill="#CB8252"/>
<path d="M20.3363 19.8481C20.5703 19.8481 20.76 19.6453 20.76 19.3951C20.76 19.145 20.5703 18.9421 20.3363 18.9421C20.1023 18.9421 19.9126 19.145 19.9126 19.3951C19.9126 19.6453 20.1023 19.8481 20.3363 19.8481Z" fill="#CB8252"/>
<path d="M18.2177 18.0361C18.4517 18.0361 18.6414 17.8333 18.6414 17.5831C18.6414 17.3329 18.4517 17.1301 18.2177 17.1301C17.9836 17.1301 17.7939 17.3329 17.7939 17.5831C17.7939 17.8333 17.9836 18.0361 18.2177 18.0361Z" fill="#CB8252"/>
</svg>
