<svg width="24" height="21" viewBox="0 0 24 21" fill="none" xmlns="http://www.w3.org/2000/svg">
<path d="M22.6728 10.5549H20.6552V4.72672C20.6552 3.95121 20.0651 3.32033 19.3397 3.32033H16.3036V1.92306C16.3036 1.17121 15.7314 0.55957 15.0282 0.55957H1.27538C0.572156 0.55957 0 1.17121 0 1.92306V2.52427C0 2.73189 0.157406 2.90013 0.351563 2.90013C0.545719 2.90013 0.703125 2.73189 0.703125 2.52427V1.92306C0.703125 1.58575 0.959859 1.31127 1.27538 1.31127H15.0282C15.3437 1.31127 15.6004 1.58575 15.6004 1.92306V13.7605H0.703125V4.28652C0.703125 4.0789 0.545719 3.91067 0.351563 3.91067C0.157406 3.91067 0 4.0789 0 4.28652V17.0269C0 17.7788 0.572156 18.3904 1.27538 18.3904H2.08331C2.26008 19.4207 3.10617 20.2039 4.12022 20.2039C5.13427 20.2039 5.98036 19.4207 6.15713 18.3904H11.7496C11.9438 18.3904 12.1012 18.2222 12.1012 18.0145C12.1012 17.8069 11.9438 17.6387 11.7496 17.6387H6.16495C6.00703 16.5843 5.15025 15.7761 4.12017 15.7761C3.09009 15.7761 2.23336 16.5843 2.07544 17.6387H1.27538C0.959859 17.6387 0.703125 17.3643 0.703125 17.0269V14.5122H15.6004V17.6387H13.3622C13.168 17.6387 13.0106 17.807 13.0106 18.0146C13.0106 18.2222 13.168 18.3904 13.3622 18.3904H17.9215C18.0983 19.4208 18.9444 20.204 19.9584 20.204C20.9724 20.204 21.8185 19.4208 21.9953 18.3904H22.6845C23.4098 18.3904 24 17.7595 24 16.9841V11.9738C24 11.1914 23.4046 10.5549 22.6728 10.5549ZM4.12017 16.5279C4.87434 16.5279 5.48789 17.1838 5.48789 17.9901C5.48789 18.7964 4.87434 19.4523 4.12017 19.4523C3.366 19.4523 2.75245 18.7964 2.75245 17.9901C2.75245 17.1838 3.36605 16.5279 4.12017 16.5279ZM19.9584 19.4523C19.2043 19.4523 18.5907 18.7963 18.5907 17.99C18.5907 17.1838 19.2043 16.5278 19.9584 16.5278C20.7126 16.5278 21.3262 17.1838 21.3262 17.99C21.3262 18.7963 20.7126 19.4523 19.9584 19.4523ZM23.2969 14.0116H22.3613C22.1675 14.0116 22.0097 13.843 22.0097 13.6358C22.0097 13.4285 22.1674 13.2599 22.3613 13.2599H23.2969V14.0116ZM23.2969 12.5082H22.3613C21.7798 12.5082 21.3066 13.0141 21.3066 13.6358C21.3066 14.2575 21.7797 14.7633 22.3613 14.7633H23.2969V16.984C23.2969 17.345 23.0221 17.6387 22.6845 17.6387H22.0032C21.8453 16.5843 20.9885 15.7761 19.9584 15.7761C18.9284 15.7761 18.0716 16.5843 17.9137 17.6387H16.3035V4.07203H19.3397C19.6774 4.07203 19.9521 4.3657 19.9521 4.72672V4.81426H17.5983C17.4042 4.81426 17.2468 4.9825 17.2468 5.19012V10.9307C17.2468 11.1384 17.4042 11.3066 17.5983 11.3066H22.6728C23.0169 11.3066 23.2968 11.6059 23.2968 11.9737V12.5082H23.2969ZM19.9521 5.56597V10.5549H17.9499V5.56597H19.9521Z" fill="white"/>
<path d="M18.411 12.5083H17.5981C17.404 12.5083 17.2466 12.6765 17.2466 12.8842C17.2466 13.0918 17.404 13.26 17.5981 13.26H18.411C18.6051 13.26 18.7625 13.0918 18.7625 12.8842C18.7625 12.6765 18.6051 12.5083 18.411 12.5083Z" fill="white"/>
<path d="M10.214 6.69555C10.4081 6.69555 10.5656 6.52732 10.5656 6.3197C10.5656 6.11208 10.4081 5.94385 10.214 5.94385H8.80859C8.61444 5.94385 8.45703 6.11208 8.45703 6.3197V9.32566C8.45703 9.53329 8.61444 9.70152 8.80859 9.70152H10.214C10.4081 9.70152 10.5656 9.53329 10.5656 9.32566C10.5656 9.11804 10.4081 8.94981 10.214 8.94981H9.16015V8.19856H10.214C10.4081 8.19856 10.5656 8.03033 10.5656 7.82271C10.5656 7.61509 10.4081 7.44686 10.214 7.44686H9.16015V6.69555H10.214Z" fill="white"/>
<path d="M12.9786 6.69555C13.1728 6.69555 13.3302 6.52732 13.3302 6.3197C13.3302 6.11208 13.1728 5.94385 12.9786 5.94385H11.5732C11.3791 5.94385 11.2217 6.11208 11.2217 6.3197V9.32566C11.2217 9.53329 11.3791 9.70152 11.5732 9.70152H12.9786C13.1728 9.70152 13.3302 9.53329 13.3302 9.32566C13.3302 9.11804 13.1728 8.94981 12.9786 8.94981H11.9248V8.19856H12.9786C13.1728 8.19856 13.3302 8.03033 13.3302 7.82271C13.3302 7.61509 13.1728 7.44686 12.9786 7.44686H11.9248V6.69555H12.9786Z" fill="white"/>
<path d="M4.73012 6.69555C4.92427 6.69555 5.08168 6.52732 5.08168 6.3197C5.08168 6.11208 4.92427 5.94385 4.73012 5.94385H3.32471C3.13055 5.94385 2.97314 6.11208 2.97314 6.3197V9.32566C2.97314 9.53329 3.13055 9.70152 3.32471 9.70152C3.51886 9.70152 3.67627 9.53329 3.67627 9.32566V8.19856H4.73012C4.92427 8.19856 5.08168 8.03033 5.08168 7.82271C5.08168 7.61509 4.92427 7.44686 4.73012 7.44686H3.67627V6.69555H4.73012Z" fill="white"/>
<path d="M7.80044 7.82271V6.3197C7.80044 6.11208 7.64303 5.94385 7.44887 5.94385H6.04346C5.8493 5.94385 5.69189 6.11208 5.69189 6.3197V9.32566C5.69189 9.53328 5.8493 9.70151 6.04346 9.70151C6.23762 9.70151 6.39502 9.53328 6.39502 9.32566V8.31362L7.15637 9.53419C7.22411 9.64283 7.33558 9.70156 7.4492 9.70156C7.51623 9.70156 7.58397 9.68112 7.64392 9.63837C7.80545 9.52316 7.84909 9.28983 7.74138 9.11714L7.16837 8.19856H7.44887C7.64303 8.19856 7.80044 8.03028 7.80044 7.82271ZM7.09731 7.44685H6.39502V6.69555H7.09731V7.44685Z" fill="white"/>
</svg>
