<svg width="25" height="23" viewBox="0 0 25 23" fill="none" xmlns="http://www.w3.org/2000/svg">
<path d="M24.609 4.14505C24.2736 3.73011 23.7752 3.49217 23.2416 3.49217H4.18635L4.01619 2.27265C3.89568 1.40908 3.14725 0.757812 2.27523 0.757812H0.781245C0.349803 0.757812 0 1.10762 0 1.53906C0 1.9705 0.349803 2.3203 0.781245 2.3203H2.27523C2.37211 2.3203 2.45531 2.39267 2.46864 2.48861L4.57746 17.6022C4.69797 18.4659 5.4464 19.1171 6.31842 19.1171H7.16553C7.07882 19.3616 7.03116 19.6244 7.03116 19.8983C7.03116 21.1906 8.08257 22.2421 9.3749 22.2421C10.6672 22.2421 11.7186 21.1906 11.7186 19.8983C11.7186 19.6244 11.671 19.3616 11.5843 19.1171H15.7592C15.6725 19.3616 15.6249 19.6244 15.6249 19.8983C15.6249 21.1906 16.6763 22.2421 17.9686 22.2421C19.2609 22.2421 20.3123 21.1906 20.3123 19.8983C20.3123 19.6244 20.2647 19.3616 20.178 19.1171H21.8749C22.3063 19.1171 22.6561 18.7673 22.6561 18.3358C22.6561 17.9044 22.3063 17.5546 21.8749 17.5546H6.31847C6.22159 17.5546 6.13839 17.4822 6.12506 17.3863L5.93053 15.9921H21.3163C22.1394 15.9921 22.8623 15.4079 23.0353 14.6026L24.9605 5.61838C25.0724 5.09685 24.9442 4.55984 24.609 4.14505ZM10.1562 19.8983C10.1562 20.3291 9.8057 20.6796 9.37494 20.6796C8.94419 20.6796 8.5937 20.3291 8.5937 19.8983C8.5937 19.4676 8.94419 19.1171 9.37494 19.1171C9.8057 19.1171 10.1562 19.4675 10.1562 19.8983ZM18.7499 19.8983C18.7499 20.3291 18.3994 20.6796 17.9686 20.6796C17.5379 20.6796 17.1874 20.3291 17.1874 19.8983C17.1874 19.4676 17.5379 19.1171 17.9686 19.1171C18.3994 19.1171 18.7499 19.4675 18.7499 19.8983ZM23.4327 5.29084L21.5075 14.2748C21.4883 14.3645 21.4078 14.4296 21.3163 14.4296H5.71247L4.40437 5.05461H23.2416C23.3189 5.05461 23.367 5.09407 23.3938 5.12717C23.4205 5.16023 23.4489 5.21545 23.4327 5.29084Z" fill="#115C07"/>
</svg>
