<svg width="22" height="22" viewBox="0 0 22 22" fill="none" xmlns="http://www.w3.org/2000/svg">
<g clip-path="url(#clip0_3:2686)">
<path d="M20.9956 14.2936C20.3761 13.962 19.628 13.9981 19.0434 14.3879L15.9745 16.4338C15.8764 15.4589 15.0511 14.6953 14.0508 14.6953H10.8281L10.4077 14.38C9.57047 13.7521 8.53304 13.4062 7.48644 13.4062C6.60421 13.4062 5.738 13.6462 4.98145 14.1001L4.81246 14.2015V13.6211C4.81246 13.2651 4.52388 12.9766 4.16793 12.9766H0.644531C0.288578 12.9766 0 13.2651 0 13.6211V21.3555C0 21.7114 0.288578 22 0.644531 22H4.16797C4.52392 22 4.8125 21.7114 4.8125 21.3555V21.1406H14.9642C15.6228 21.1406 16.2571 20.9425 16.7985 20.5676L21.1807 17.5338C21.6937 17.1786 22 16.5942 22 15.9702C22 15.2676 21.6152 14.6251 20.9956 14.2936ZM3.52344 20.7109H1.28906V14.2656H3.52344V20.7109ZM20.447 16.4739L16.0648 19.5077C15.7399 19.7327 15.3594 19.8516 14.9642 19.8516H4.8125V15.7048L5.64472 15.2054C6.20095 14.8717 6.83779 14.6953 7.48644 14.6953C8.25589 14.6953 9.01867 14.9496 9.63424 15.4113L10.2266 15.8555C10.3382 15.9391 10.4738 15.9844 10.6133 15.9844H14.0508C14.4062 15.9844 14.6953 16.2735 14.6953 16.6289C14.6953 16.9843 14.4062 17.2734 14.0508 17.2734H9.32422C8.96827 17.2734 8.67969 17.562 8.67969 17.918C8.67969 18.2739 8.96827 18.5625 9.32422 18.5625H14.3898C14.8578 18.5625 15.3111 18.4253 15.7007 18.1656L19.7584 15.4605C20.0339 15.2767 20.2901 15.378 20.3874 15.43C20.4847 15.4821 20.711 15.639 20.711 15.9702C20.7109 16.1712 20.6123 16.3595 20.447 16.4739Z" fill="#444444"/>
<path d="M9.75391 10.7422C12.4154 10.7422 14.6306 8.79613 15.0523 6.2523C15.5922 6.85738 16.0287 7.5515 16.3368 8.30019H15.7695C15.5195 8.30019 15.2919 8.44486 15.1858 8.67135C15.0798 8.89784 15.1143 9.16523 15.2744 9.35735L18.0674 12.7089C18.1898 12.8559 18.3712 12.9408 18.5625 12.9408C18.7538 12.9408 18.9352 12.8558 19.0576 12.7089L21.8506 9.35735C22.0107 9.16523 22.0452 8.89784 21.9392 8.67135C21.8331 8.44486 21.6055 8.30019 21.3555 8.30019H20.4173C19.8477 6.05034 18.5634 4.01431 16.7625 2.52291C14.798 0.895984 12.309 0 9.75391 0C6.79229 0 4.38281 2.40947 4.38281 5.37109C4.38281 8.33272 6.79229 10.7422 9.75391 10.7422ZM14.2137 2.3745C14.8255 2.69053 15.4049 3.07235 15.9403 3.51575C17.6517 4.93303 18.8346 6.90632 19.2712 9.07212C19.3318 9.37294 19.5962 9.58929 19.903 9.58929H19.9794L18.5625 11.2895L17.1456 9.58925H17.2367C17.4377 9.58925 17.6272 9.49545 17.7491 9.33565C17.8711 9.17585 17.9114 8.96827 17.8583 8.77439C17.3977 7.09311 16.4047 5.57446 15.0494 4.47034C15.0492 4.47025 15.0491 4.47012 15.049 4.47004C14.9194 3.70644 14.6285 2.99711 14.2121 2.37875C14.2127 2.37729 14.2132 2.37591 14.2137 2.3745ZM9.75391 1.28906C12.0047 1.28906 13.8359 3.12026 13.8359 5.37109C13.8359 7.62193 12.0047 9.45312 9.75391 9.45312C7.50307 9.45312 5.67188 7.62193 5.67188 5.37109C5.67188 3.12026 7.50307 1.28906 9.75391 1.28906Z" fill="#444444"/>
<path d="M9.75391 6.01562C9.99084 6.01562 10.1836 6.20838 10.1836 6.44531C10.1836 6.68224 9.99084 6.875 9.75391 6.875C9.55041 6.875 9.37337 6.73071 9.33298 6.53189C9.26217 6.18307 8.92199 5.95779 8.57304 6.02852C8.22418 6.09937 7.99885 6.4396 8.06966 6.78846C8.18658 7.36407 8.58851 7.8256 9.10933 8.03769V8.16406C9.10933 8.52002 9.39791 8.80859 9.75386 8.80859C10.1098 8.80859 10.3984 8.52002 10.3984 8.16406V8.03821C11.0276 7.78267 11.4726 7.16517 11.4726 6.44531C11.4726 5.49759 10.7016 4.72656 9.75386 4.72656C9.51693 4.72656 9.32418 4.5338 9.32418 4.29688C9.32418 4.05995 9.51693 3.86719 9.75386 3.86719C9.95736 3.86719 10.1344 4.01148 10.1748 4.21029C10.2456 4.55911 10.586 4.78448 10.9347 4.71367C11.2836 4.64282 11.5089 4.30259 11.4381 3.95373C11.3212 3.37812 10.9193 2.91663 10.3984 2.70454V2.57812C10.3984 2.22217 10.1099 1.93359 9.75391 1.93359C9.39795 1.93359 9.10938 2.22217 9.10938 2.57812V2.70398C8.48018 2.95952 8.03516 3.57702 8.03516 4.29688C8.03516 5.24459 8.80619 6.01562 9.75391 6.01562Z" fill="#444444"/>
</g>
<defs>
<clipPath id="clip0_3:2686">
<rect width="22" height="22" fill="white"/>
</clipPath>
</defs>
</svg>
