<svg width="22" height="25" viewBox="0 0 22 25" fill="none" xmlns="http://www.w3.org/2000/svg">
<path d="M21.446 1.04827L21.4459 1.04823C21.4148 1.01497 21.3822 1.00488 21.3554 1.00488C21.3286 1.00488 21.2959 1.01497 21.2647 1.04827L19.3874 3.05527L19.1305 3.32999L18.7953 3.15923C18.7101 3.11583 18.6213 3.08139 18.5296 3.05685C18.5294 3.05679 18.5292 3.05674 18.529 3.05668L12.6964 1.51615L12.695 1.51578C12.2248 1.39014 11.7093 1.5371 11.3529 1.91805L11.3526 1.91835L0.93058 13.0422C0.930558 13.0422 0.930536 13.0422 0.930514 13.0422C0.356485 13.656 0.356487 14.6688 0.930569 15.2826C0.930576 15.2827 0.930583 15.2827 0.93059 15.2827L8.22292 23.0788C8.77916 23.6735 9.6706 23.6736 10.227 23.0791L21.446 1.04827ZM21.446 1.04827C21.5179 1.12514 21.5179 1.26276 21.446 1.33967C21.446 1.33969 21.446 1.33971 21.446 1.33973L19.5687 3.34668L19.3422 3.58888L19.4772 3.89179C19.5195 3.98669 19.5536 4.08684 19.578 4.19138C19.5781 4.19147 19.5781 4.19157 19.5781 4.19166L21.019 10.4272L21.0194 10.4285C21.1465 10.972 20.992 11.5519 20.6325 11.9363L20.6322 11.9366L10.2273 23.0788L21.446 1.04827ZM10.0462 22.7871L10.046 22.7874C9.59702 23.2673 8.85299 23.2673 8.40406 22.7874L1.11175 14.9912C0.680637 14.5303 0.680637 13.7944 1.11175 13.3335L1.11204 13.3332L11.5342 2.20945L10.0462 22.7871ZM10.0462 22.7871L20.4512 11.6449C20.4513 11.6448 20.4514 11.6447 20.4514 11.6446C20.7281 11.3486 20.8335 10.9261 20.7426 10.536C20.7425 10.5357 20.7424 10.5354 20.7424 10.5351L19.3899 4.678L19.1787 3.76349L18.5375 4.44894L16.9853 6.10843L16.7588 6.35061L16.8937 6.65351C17.1593 7.24952 17.0566 7.9813 16.608 8.46092L16.6079 8.46098C16.326 8.76239 15.9633 8.90703 15.6058 8.90703C15.2484 8.90703 14.8856 8.76236 14.6037 8.46096L14.6037 8.46094C14.0295 7.84709 14.0295 6.83431 14.6037 6.22045C15.0447 5.74892 15.6908 5.65559 16.2121 5.92104L16.5472 6.09169L16.8041 5.81703L18.3564 4.15754L18.9282 3.54617M10.0462 22.7871L18.9282 3.54617M18.9282 3.54617L18.1188 3.33254M18.9282 3.54617L18.1188 3.33254M18.1188 3.33254L12.6404 1.88666C12.6401 1.88659 12.6398 1.88651 12.6395 1.88644C12.5461 1.86156 12.4509 1.84943 12.3565 1.84943C12.0468 1.84943 11.7493 1.97962 11.5344 2.20915L18.1188 3.33254ZM14.7849 6.51195L15.1501 6.85351L14.7849 6.51195C14.3538 6.97281 14.3538 7.70872 14.7849 8.16958L15.1501 7.82802L14.7849 8.16958C15.2339 8.64955 15.9779 8.64946 16.4268 8.16958C16.8579 7.70868 16.8578 6.97269 16.4266 6.51187C16.206 6.276 15.9085 6.15202 15.6058 6.15202C15.3031 6.15202 15.0056 6.27596 14.7849 6.51195Z" fill="#115C07" stroke="#115C07"/>
<path d="M10.2279 9.14431C9.67158 8.54956 8.77993 8.54954 8.22355 9.1443L10.2279 9.14431ZM10.2279 9.14431C10.8021 9.75816 10.8021 10.7709 10.2279 11.3848C9.67157 11.9796 8.77989 11.9796 8.22356 11.3848L10.2279 9.14431ZM10.0467 11.0934L10.0467 11.0933C10.4778 10.6324 10.4778 9.89659 10.0467 9.43572L10.0467 9.43569C9.59768 8.95576 8.85374 8.95585 8.40484 9.43569C7.9736 9.89665 7.97388 10.6325 8.40482 11.0933C8.85373 11.5733 9.59779 11.5733 10.0467 11.0934ZM8.22354 11.3848C7.64944 10.7709 7.64945 9.75812 8.22353 9.14432L8.22354 11.3848Z" fill="#115C07" stroke="#115C07"/>
<path d="M10.2279 15.9461C9.67158 15.3513 8.77993 15.3513 8.22355 15.9461L10.2279 15.9461ZM10.2279 15.9461C10.8021 16.5599 10.8021 17.5727 10.2279 18.1866C9.67157 18.7813 8.77989 18.7813 8.22356 18.1866L10.2279 15.9461ZM10.0467 17.8951L10.0467 17.8951C10.4778 17.4342 10.4778 16.6983 10.0467 16.2375L10.0467 16.2374C9.59768 15.7575 8.85374 15.7576 8.40484 16.2374C7.9736 16.6984 7.97388 17.4343 8.40482 17.8951C8.85373 18.3751 9.59779 18.375 10.0467 17.8951ZM8.22354 18.1866C7.64944 17.5727 7.64945 16.5599 8.22353 15.9461L8.22354 18.1866Z" fill="#115C07" stroke="#115C07"/>
<path d="M13.9254 13.1639L13.9254 13.1638C13.9116 13.0313 13.8159 12.9943 13.7699 12.9998L13.7699 12.9998L5.56604 13.9743C5.56604 13.9743 5.56604 13.9743 5.56604 13.9743C5.5129 13.9806 5.42072 14.0503 5.43491 14.1871L13.9254 13.1639ZM13.9254 13.1639C13.9396 13.3004 13.8476 13.3702 13.7943 13.3766C13.7943 13.3766 13.7943 13.3766 13.7942 13.3766L5.59085 14.3511C5.59081 14.3511 5.59077 14.3511 5.59072 14.3511C5.58571 14.3517 5.58124 14.3519 5.57744 14.3519C5.53298 14.3519 5.4476 14.3089 5.43491 14.1871L13.9254 13.1639Z" fill="#115C07" stroke="#115C07"/>
</svg>
