<svg width="27" height="30" viewBox="0 0 27 30" fill="none" xmlns="http://www.w3.org/2000/svg">
<path d="M24.8768 16.8654C26.0663 15.6635 26.7383 13.9894 26.7338 12.2396C26.6667 10.9178 26.2047 9.65385 25.4159 8.63349C24.281 7.33855 23.0344 6.16087 21.6927 5.11608C21.6512 5.0816 21.6143 5.05204 21.5728 5.02248C21.5176 4.97814 21.4623 4.93873 21.4023 4.89439C17.5547 2.10608 12.9836 -0.0270288 8.63362 1.02721C3.67082 2.22924 0.514352 8.04233 0.0673773 14.284C-0.137117 16.6299 0.125141 18.9955 0.836911 21.2252C1.13493 22.1035 1.53595 22.9378 2.03038 23.7081H2.02577C2.65246 24.8806 4.69379 26.9349 5.78589 27.9891C6.39343 28.6038 7.15022 29.0237 7.97007 29.201C9.33838 29.4808 10.7527 29.1064 11.8408 28.1763C12.6259 27.4303 13.303 26.5636 13.8499 25.6048C15.1793 28.0629 17.7093 29.4884 20.3575 29.2716C23.0057 29.0548 25.3031 27.234 26.2669 24.5881C27.2307 21.9422 26.6903 18.9399 24.8768 16.8654Z" fill="#F3D55B"/>
<path d="M26.7385 21.9C26.7385 25.9811 23.6439 29.2895 19.8265 29.2895C16.0092 29.2895 12.9146 25.9811 12.9146 21.9C12.9146 21.767 12.9192 21.6389 12.9238 21.5108C13.1148 17.6917 15.9981 14.6582 19.5731 14.5154C19.656 14.5105 19.7436 14.5105 19.8265 14.5105C20.6591 14.5099 21.4849 14.6701 22.2642 14.9834C24.9498 16.0782 26.7282 18.8272 26.7385 21.9Z" fill="#81CCB8"/>
<path d="M24.2106 22.4622L22.8361 23.1888L20.7477 21.9001L22.8361 20.6114L24.2106 21.338C24.4385 21.4565 24.713 21.3561 24.8253 21.1133C24.9375 20.8704 24.8453 20.5762 24.6189 20.4547L23.7954 20.0192L24.3323 19.6877C24.476 19.6003 24.5649 19.4373 24.5653 19.2605C24.5657 19.0837 24.4774 18.9203 24.334 18.8323C24.1906 18.7442 24.0141 18.745 23.8715 18.8345L23.3346 19.166L23.3936 18.1852C23.4042 18.0092 23.3261 17.8405 23.1888 17.7428C23.0515 17.645 22.8758 17.633 22.728 17.7112C22.5801 17.7895 22.4826 17.9461 22.472 18.1221L22.373 19.7581L20.2869 21.0469V18.4689L21.5629 17.5595C21.7746 17.4085 21.8318 17.1026 21.6905 16.8762C21.5493 16.6499 21.2631 16.5888 21.0514 16.7398L20.2869 17.2846V16.622C20.2869 16.35 20.0806 16.1294 19.8261 16.1294C19.5716 16.1294 19.3653 16.35 19.3653 16.622V17.2846L18.6009 16.7398C18.4639 16.6421 18.2886 16.6299 18.141 16.7079C17.9934 16.7859 17.8959 16.9421 17.8852 17.1178C17.8746 17.2934 17.9524 17.4618 18.0894 17.5595L19.3653 18.4689V21.0469L17.2775 19.7581L17.1784 18.1221C17.1621 17.85 16.9426 17.6436 16.6881 17.661C16.4336 17.6784 16.2405 17.9131 16.2568 18.1852L16.3158 19.166L15.7789 18.8345C15.6363 18.745 15.4598 18.7442 15.3164 18.8323C15.173 18.9203 15.0847 19.0837 15.0851 19.2605C15.0855 19.4373 15.1744 19.6003 15.3182 19.6877L15.855 20.0192L15.0315 20.4547C14.8051 20.5762 14.7129 20.8704 14.8251 21.1133C14.9374 21.3561 15.212 21.4565 15.4398 21.338L16.8144 20.6114L18.9045 21.9001L16.8162 23.1888L15.4416 22.4622C15.2138 22.3437 14.9392 22.4441 14.827 22.687C14.7147 22.9298 14.8069 23.224 15.0334 23.3455L15.8568 23.781L15.32 24.1125C15.1762 24.1999 15.0873 24.3629 15.087 24.5397C15.0866 24.7165 15.1748 24.8799 15.3182 24.968C15.4616 25.056 15.6381 25.0552 15.7808 24.9658L16.3176 24.6342L16.2586 25.6151C16.2423 25.8864 16.4348 26.1206 16.6886 26.1383H16.719C16.9624 26.1388 17.1642 25.9368 17.1798 25.6771L17.2788 24.0411L19.3653 22.7534V25.3313L18.0894 26.2407C17.8776 26.3917 17.8205 26.6976 17.9617 26.924C18.103 27.1504 18.3891 27.2115 18.6009 27.0605L19.3653 26.5156V27.1782C19.3653 27.4503 19.5716 27.6708 19.8261 27.6708C20.0806 27.6708 20.2869 27.4503 20.2869 27.1782V26.5156L21.0514 27.0605C21.1884 27.1581 21.3637 27.1703 21.5113 27.0923C21.6589 27.0143 21.7564 26.8581 21.767 26.6824C21.7777 26.5068 21.6998 26.3384 21.5629 26.2407L20.2869 25.3313V22.7534L22.3748 24.0421L22.4739 25.6781C22.4894 25.9378 22.6913 26.1398 22.9347 26.1392H22.9651C23.2189 26.1216 23.4113 25.8874 23.395 25.6161L23.336 24.6352L23.8728 24.9668C24.0155 25.0562 24.192 25.057 24.3354 24.969C24.4788 24.8809 24.5671 24.7175 24.5667 24.5407C24.5663 24.3639 24.4774 24.2009 24.3336 24.1135L23.7968 23.782L24.6203 23.3465C24.8467 23.225 24.9389 22.9308 24.8267 22.688C24.7144 22.4451 24.4398 22.3447 24.212 22.4632L24.2106 22.4622Z" fill="white"/>
<path d="M22.5865 10.1952C22.6372 11.7027 21.6926 13.0081 20.7986 13.7274C20.4131 14.0291 20.0029 14.2929 19.5729 14.5156C17.5086 14.5968 15.5865 15.6613 14.3337 17.4172C13.2046 18.2708 12.1986 19.2965 11.3477 20.4617C10.9883 20.9544 10.6657 21.4618 10.3524 21.9544C9.88746 22.7765 9.31835 23.5259 8.66123 24.1811C8.16066 24.6095 7.53754 24.8408 6.89637 24.8363C6.37961 24.8321 5.87113 24.697 5.4126 24.4422C4.65837 23.9908 4.01673 23.3521 3.54176 22.58C3.13646 21.9491 2.80817 21.2653 2.56487 20.5455C1.94672 18.5812 1.72221 16.4999 1.90593 14.4368C2.32525 8.58921 5.25593 3.86484 9.03908 2.94854C9.67298 2.7978 10.3204 2.72181 10.9698 2.72192C13.7254 2.72192 16.8865 4.00278 20.3701 6.52999C20.513 6.62852 20.6558 6.74675 20.8125 6.87977L21.006 7.04726C21.2558 7.29307 21.4884 7.55817 21.7018 7.8404C22.2245 8.50414 22.5345 9.32938 22.5865 10.1952Z" fill="#E64C3C"/>
<path d="M24.4298 10.1262C24.4254 12.0105 23.6305 13.7933 22.2641 14.9836C21.4848 14.6702 20.659 14.51 19.8264 14.5106C19.7435 14.5106 19.6559 14.5106 19.573 14.5156C20.0029 14.2928 20.4132 14.029 20.7987 13.7273C21.6927 13.0081 22.6373 11.7026 22.5866 10.1951C22.5346 9.32932 22.2245 8.50408 21.7019 7.84035C21.4884 7.55811 21.2559 7.29302 21.0061 7.04721L20.8125 6.87971C20.6559 6.7467 20.513 6.62847 20.3702 6.52994C16.8865 4.00272 13.7255 2.72187 10.9699 2.72187C10.3205 2.72176 9.67303 2.79775 9.03913 2.94849C5.25597 3.86479 2.32529 8.58916 1.90596 14.4367C1.72225 16.4998 1.94676 18.5812 2.56491 20.5454C2.80821 21.2653 3.1365 21.949 3.5418 22.58C4.01677 23.3521 4.65842 23.9907 5.41264 24.4421C5.87118 24.697 6.37965 24.832 6.89641 24.8363C7.53759 24.8408 8.16071 24.6094 8.66127 24.181C9.3184 23.5258 9.88751 22.7765 10.3524 21.9543C10.6657 21.4617 10.9883 20.9543 11.3477 20.4617C12.1987 19.2964 13.2047 18.2707 14.3337 17.4172C13.4867 18.5976 12.995 20.0252 12.9237 21.511C12.8822 21.5652 12.8407 21.6243 12.7992 21.6785C11.8085 23.0332 11.0206 24.6835 9.81327 25.7181C8.30806 26.9793 6.24621 27.1651 4.56477 26.191C3.54451 25.5948 2.67482 24.7428 2.03038 23.7081C1.53596 22.9378 1.13493 22.1035 0.836911 21.2252C0.125142 18.9955 -0.137117 16.6299 0.0673774 14.284C0.514352 8.04233 3.67082 2.22924 8.63363 1.02721C12.9836 -0.0270286 17.5547 2.10608 21.4024 4.89439C21.4623 4.93873 21.5176 4.97814 21.5729 5.02248C21.6143 5.05204 21.6512 5.08159 21.6927 5.11608C21.7894 5.18997 21.8816 5.2688 21.9738 5.34762L22.2088 5.55452C22.543 5.87574 22.8527 6.22498 23.135 6.59891C23.9104 7.59503 24.3646 8.83207 24.4298 10.1262Z" fill="#F9EAB0"/>
<path d="M11.5928 11.7875C13.6402 10.5472 14.5988 8.21903 13.734 6.58743C12.8691 4.95582 10.5083 4.63862 8.46098 5.87895C6.41362 7.11927 5.45499 9.44744 6.31981 11.079C7.18464 12.7107 9.54544 13.0278 11.5928 11.7875Z" fill="#F9EAB0"/>
<path d="M10.3268 9.92908C11.7797 9.29999 12.2621 8.09549 12.2069 7.88563C12.1276 7.593 11.0774 7.14667 9.72867 7.72897C9.06392 8.00285 8.49111 8.48328 8.08407 9.10835C7.94362 9.29862 7.86126 9.53044 7.84814 9.77242C7.9274 10.0636 8.97803 10.5124 10.3268 9.92908Z" fill="#E64C3C"/>
</svg>
