<svg width="39" height="33" viewBox="0 0 39 33" fill="none" xmlns="http://www.w3.org/2000/svg">
<path d="M26.6262 18.1336C26.6262 18.1336 33.1547 19.9181 32.3238 26.3708C32.3238 26.3708 32.2181 27.9266 30.9522 28.1709C29.7071 28.4105 28.7237 27.0255 28.9353 25.5865C29.1259 24.2884 28.7845 22.0168 26.6262 18.1336Z" fill="#88C057"/>
<path d="M26.6258 18.1338C26.6258 18.1338 33.1543 16.4842 32.3234 10.5194C32.3234 10.5194 32.2165 8.37204 30.9226 7.71235C29.7194 7.09847 28.457 8.39831 28.8061 9.77342C29.1883 11.2806 29.1325 13.9648 26.6258 18.1338Z" fill="#88C057"/>
<path d="M32.0262 26.5047C32.0262 26.5047 32.0199 26.559 32.0096 26.6325C32.1714 26.6421 32.3364 26.6424 32.5078 26.6197C34.0866 26.4117 34.2181 25.0852 34.2181 25.0852C35.2543 19.5848 27.1141 18.0634 27.1141 18.0634C27.3283 18.3265 27.5229 18.5786 27.7092 18.8246C29.5753 19.7531 32.6087 21.9806 32.0262 26.5047Z" fill="#88C057"/>
<path d="M32.3237 10.5196C32.965 15.1207 29.2281 17.153 27.4856 17.8421C27.4597 17.872 27.4374 17.9 27.4115 17.9298C27.4115 17.9298 35.5518 16.5235 34.5156 11.4392C34.5156 11.4392 34.3821 9.60851 32.769 9.04646C32.4921 8.94989 32.2128 8.90977 31.9441 8.91438C32.2818 9.69727 32.3237 10.5196 32.3237 10.5196Z" fill="#A4E869"/>
<path d="M37.4033 17.8131C36.9769 15.6792 34.2547 15.3025 34.2547 15.3025C33.6941 15.3565 33.1338 15.4605 32.5825 15.5933C30.8267 17.0174 28.1519 17.7261 26.9012 17.9938C26.7673 18.0737 26.6511 18.1447 26.5681 18.1965C27.5368 18.4 30.278 19.0788 32.2099 20.5612C32.8947 20.7096 33.5871 20.8086 34.2543 20.826C37.8298 20.9198 37.4033 17.8131 37.4033 17.8131Z" fill="#659C35"/>
<path d="M26.6262 18.1336C26.6262 18.1336 33.1547 19.9181 32.3238 26.3708C32.3238 26.3708 32.2181 27.9266 30.9522 28.1709C29.7071 28.4105 28.7237 27.0255 28.9353 25.5865C29.1259 24.2884 28.7845 22.0168 26.6262 18.1336Z" fill="#A4E869"/>
<path d="M27.2232 17.9859C26.9482 18.0804 26.7818 18.1226 26.7818 18.1226C26.7818 18.1226 27.0289 18.1908 27.4178 18.346C27.355 18.2277 27.2912 18.1091 27.2232 17.9859Z" fill="#F2681C"/>
<path d="M27.1755 22.6048C27.7046 22.3382 28.0819 21.9164 28.3582 21.4342C27.9962 20.487 27.4877 19.3923 26.7817 18.1227C27.6073 16.7493 28.1632 15.5407 28.5289 14.4788C28.2466 13.8553 27.8268 13.2922 27.1759 12.9642C25.1331 11.9349 9.01703 15.0348 4.46619 17.2578C4.03811 17.4669 4.03844 17.9899 4.46619 18.1987C9.01703 20.4216 25.1331 23.6338 27.1755 22.6048Z" fill="#ED8F20"/>
<path d="M9.85518 17.2816C9.73828 16.9279 9.65127 16.5558 9.59647 16.1756C9.55729 15.9008 9.31717 15.7137 9.06112 15.7559C8.80507 15.7982 8.62906 16.0545 8.66858 16.3282C8.73201 16.7703 8.8333 17.2038 8.96979 17.616C8.99404 17.6888 9.03223 17.7523 9.08039 17.8038C9.20426 17.9363 9.39289 17.9888 9.56924 17.9224C9.81334 17.8297 9.94186 17.5425 9.85518 17.2816Z" fill="#DD7017"/>
<path d="M26.4464 21.5039C26.026 20.5005 25.8609 19.3285 25.9565 18.0212C25.9768 17.7447 25.7835 17.5032 25.5248 17.4816C25.2661 17.4599 25.0403 17.6665 25.02 17.9431C24.9121 19.4198 25.1034 20.7562 25.5889 21.9151C25.6132 21.9722 25.6457 22.0226 25.6852 22.0649C25.8191 22.208 26.0266 22.2552 26.2099 22.1679C26.4464 22.0542 26.5523 21.7571 26.4464 21.5039Z" fill="#DD7017"/>
<path d="M23.603 12.8709C23.6987 13.0449 23.6937 13.2718 23.5678 13.4397C23.0853 14.0827 22.6628 15.1329 22.8083 16.0305C22.8525 16.3035 22.6811 16.5634 22.425 16.6107C22.269 16.6398 22.1172 16.5819 22.0129 16.4704C21.9468 16.3998 21.8996 16.3074 21.8824 16.2009C21.6864 14.9895 22.1982 13.7358 22.7336 12.959" fill="#DD7017"/>
<path d="M21.8824 16.2009C21.8993 16.3071 21.9465 16.3994 22.0129 16.4704C22.1172 16.5819 22.269 16.6398 22.425 16.6107C22.6808 16.5631 22.8521 16.3039 22.8083 16.0305C22.6635 15.1329 23.0856 14.0824 23.5678 13.4397C23.6933 13.2721 23.6987 13.0449 23.603 12.8709C23.3234 12.8965 23.0351 12.9249 22.7339 12.9586C22.1982 13.7358 21.6864 14.9895 21.8824 16.2009Z" fill="#DD7017"/>
<path d="M19.948 22.1934C19.4219 21.4137 18.9294 20.1799 19.122 18.9876C19.1662 18.7146 19.4093 18.5314 19.665 18.5783C19.9201 18.6251 20.0918 18.8854 20.0479 19.1588C19.9031 20.0556 20.3249 21.1066 20.8074 21.7496C20.937 21.9222 20.9373 22.1547 20.832 22.3312" fill="#DD7017"/>
<path d="M20.808 21.7497C20.3251 21.1064 19.903 20.0558 20.0485 19.1589C20.0927 18.8859 19.921 18.6249 19.6656 18.5784C19.4099 18.5309 19.1668 18.7141 19.1226 18.9878C18.93 20.1801 19.4225 21.4139 19.9485 22.1935C20.2481 22.2418 20.5427 22.2883 20.8323 22.3317C20.9379 22.1548 20.9372 21.9219 20.808 21.7497Z" fill="#DD7017"/>
<path d="M17.4827 13.7571C17.584 13.9321 17.581 14.1633 17.4535 14.3337C17.1503 14.7374 16.8843 15.3932 16.9733 15.947C17.0175 16.2201 16.8461 16.48 16.59 16.5272C16.4336 16.556 16.2822 16.4984 16.1779 16.387C16.1118 16.3163 16.0647 16.224 16.0474 16.1175C15.9175 15.3133 16.2201 14.4842 16.5675 13.9289" fill="#DD7017"/>
<path d="M16.0483 16.1182C16.0653 16.2244 16.1124 16.3167 16.1789 16.3877C16.2832 16.4992 16.4346 16.5567 16.591 16.5279C16.8464 16.4807 17.0181 16.2212 16.9743 15.9478C16.8849 15.3936 17.1509 14.7385 17.4545 14.3344C17.5827 14.164 17.5857 13.9329 17.4837 13.7578C17.1802 13.8132 16.8753 13.8707 16.5684 13.9297C16.221 14.485 15.9185 15.314 16.0483 16.1182Z" fill="#DD7017"/>
<path d="M13.0431 20.8245C12.6513 20.2799 12.2607 19.3574 12.4055 18.4634C12.45 18.19 12.6924 18.0068 12.9482 18.0537C13.2045 18.1006 13.3752 18.3612 13.3314 18.6339C13.2421 19.1881 13.5081 19.8431 13.8113 20.2468C13.9737 20.4631 13.9412 20.7791 13.7389 20.9527C13.7276 20.9626 13.7133 20.9658 13.7014 20.9743" fill="#DD7017"/>
<path d="M13.8104 20.2476C13.5072 19.8439 13.2411 19.1881 13.3305 18.6346C13.3747 18.3616 13.204 18.1017 12.9472 18.0545C12.6918 18.0072 12.4487 18.1904 12.4046 18.4642C12.2601 19.3586 12.6503 20.2806 13.0422 20.8253C13.2604 20.8761 13.4803 20.9258 13.7001 20.9755C13.7121 20.967 13.7264 20.9638 13.7376 20.9538C13.9402 20.7805 13.9728 20.4638 13.8104 20.2476Z" fill="#DD7017"/>
<path d="M9.13474 6.26337C5.94462 6.56427 3.59256 4.04895 3.87332 0.639161C7.06344 0.338253 9.41549 2.85357 9.13474 6.26337Z" fill="#7FB241"/>
<path d="M9.25721 8.63904C8.98207 8.5655 8.76588 8.31637 8.73289 7.99745C8.58199 6.53643 8.97294 5.10093 9.83207 3.95433C10.6919 2.80772 11.9181 2.08735 13.284 1.92676C13.6672 1.88249 14.0112 2.17739 14.0526 2.58636C14.0947 2.99532 13.8188 3.36302 13.4363 3.40879C12.4403 3.52585 11.5468 4.05038 10.92 4.88632C10.2932 5.72225 10.0089 6.7683 10.1184 7.83311C10.1606 8.24283 9.88471 8.61052 9.50147 8.65629C9.41724 8.6668 9.33512 8.66005 9.25721 8.63904Z" fill="#8E6D53"/>
<path d="M14.425 6.25447C13.6642 6.0376 12.8773 6.08263 12.1053 6.34827C10.1217 7.03187 8.01249 7.03187 6.02892 6.34827C5.25683 6.08263 4.47 6.0376 3.70915 6.25447C0.671328 7.11967 -0.794237 11.8179 0.434788 16.7487C1.66381 21.6795 5.12207 24.9745 8.15989 24.1093C8.1634 24.1086 8.1662 24.1078 8.16971 24.1063C8.76001 23.936 9.37487 23.936 9.96517 24.1063C9.96868 24.107 9.97149 24.1078 9.975 24.1093C13.0121 24.9745 16.4711 21.6788 17.7001 16.7487C18.9284 11.8179 17.4622 7.11967 14.425 6.25447Z" fill="#E14B4B"/>
<path d="M17.6994 16.7477C16.471 21.6778 13.0107 24.972 9.97145 24.1091H9.96443C9.37484 23.9365 8.75717 23.9365 8.16757 24.1091H8.16055C7.01646 24.4318 5.81621 24.1691 4.7002 23.4562C10.6593 20.995 15.1234 14.7817 16.0569 7.21021C17.945 9.01866 18.682 12.8081 17.6994 16.7477Z" fill="#D03F3F"/>
</svg>
