<svg width="25" height="21" viewBox="0 0 25 21" fill="none" xmlns="http://www.w3.org/2000/svg">
<path d="M22.8027 0.810547H2.19727C0.985693 0.810547 0 1.88963 0 3.216V17.6487C0 18.9751 0.985693 20.0542 2.19727 20.0542H22.8027C24.0143 20.0542 25 18.9751 25 17.6487V3.216C25 1.88963 24.0143 0.810547 22.8027 0.810547ZM7.32422 18.4505H2.19727C1.79341 18.4505 1.46484 18.0908 1.46484 17.6487V8.82872H3.04956C3.41499 10.0232 4.5353 10.7427 5.67085 10.4992L4.51753 12.3931C4.29316 12.7615 4.38413 13.2594 4.7207 13.505C5.05723 13.7505 5.51201 13.651 5.73638 13.2826L7.32422 10.6751V18.4505ZM4.39453 8.02578C4.39453 7.29581 5.13613 6.85898 5.69263 7.26523L6.73623 8.02691L5.69263 8.78858C5.13804 9.19334 4.39453 8.76126 4.39453 8.02578ZM7.32422 6.52868L6.50518 5.9309C5.24067 5.00801 3.52847 5.6601 3.0498 7.22503H1.46484V3.21595C1.46484 2.77388 1.79341 2.41418 2.19727 2.41418H7.32422V6.52868ZM23.5352 17.6488C23.5352 18.0908 23.2066 18.4505 22.8027 18.4505H8.78906V10.6751L10.3769 13.2826C10.6016 13.6515 11.0564 13.7504 11.3926 13.505C11.7292 13.2594 11.8201 12.7615 11.5958 12.3931L10.4424 10.4992C11.5728 10.7416 12.6964 10.0289 13.0635 8.82878H23.5352V17.6488ZM9.37705 8.02691L10.4207 7.26523C10.9753 6.86042 11.7188 7.29255 11.7188 8.02797C11.7188 8.75918 10.9761 9.19403 10.4207 8.78852L9.37705 8.02691ZM23.5352 7.22509H13.0637C12.585 5.66031 10.8728 5.00795 9.60811 5.93095L8.78906 6.52868V2.41418H22.8027C23.2066 2.41418 23.5352 2.77388 23.5352 3.216V7.22509Z" fill="#444444"/>
</svg>
