<svg width="25" height="19" viewBox="0 0 25 19" fill="none" xmlns="http://www.w3.org/2000/svg">
<path d="M22.2656 0.712891H2.73438C1.22666 0.712891 0 2.00999 0 3.60429V15.996C0 17.5903 1.22666 18.8874 2.73438 18.8874H22.2656C23.7733 18.8874 25 17.5903 25 15.996V3.60429C25 2.00999 23.7733 0.712891 22.2656 0.712891ZM2.73438 2.36512H22.2656C22.9118 2.36512 23.4375 2.92104 23.4375 3.60429V5.25652H1.5625V3.60429C1.5625 2.92104 2.08823 2.36512 2.73438 2.36512ZM22.2656 17.2352H2.73438C2.08823 17.2352 1.5625 16.6793 1.5625 15.996V6.90875H23.4375V15.996C23.4375 16.6793 22.9118 17.2352 22.2656 17.2352Z" fill="#444444"/>
</svg>
