<svg width="25" height="25" viewBox="0 0 25 25" fill="none" xmlns="http://www.w3.org/2000/svg">
<path d="M12.5 24.684C12.1441 24.684 11.801 24.5461 11.5335 24.2957C10.5236 23.3516 9.5499 22.4644 8.69083 21.6817L8.68645 21.6777C6.16779 19.383 3.99284 17.4014 2.47955 15.4494C0.787926 13.2671 0 11.198 0 8.9376C0 6.74146 0.704384 4.71538 1.98326 3.23233C3.2774 1.73173 5.05314 0.905273 6.98395 0.905273C8.42705 0.905273 9.74865 1.39303 10.9119 2.35489C11.499 2.84041 12.0312 3.43461 12.5 4.12771C12.969 3.43461 13.501 2.84041 14.0882 2.35489C15.2515 1.39303 16.5731 0.905273 18.0162 0.905273C19.9469 0.905273 21.7228 1.73173 23.0169 3.23233C24.2958 4.71538 25 6.74146 25 8.9376C25 11.198 24.2123 13.2671 22.5206 15.4492C21.0073 17.4014 18.8326 19.3828 16.3143 21.6773C15.4537 22.4611 14.4785 23.3498 13.4663 24.2961C13.199 24.5461 12.8557 24.684 12.5 24.684ZM6.98395 2.47092C5.46703 2.47092 4.07352 3.11814 3.05977 4.29349C2.03094 5.48658 1.46427 7.13583 1.46427 8.9376C1.46427 10.8387 2.12517 12.5389 3.60699 14.4504C5.03922 16.298 7.16953 18.2389 9.63612 20.4862L9.64069 20.4903C10.503 21.276 11.4805 22.1666 12.4979 23.1177C13.5214 22.1648 14.5004 21.2727 15.3645 20.4858C17.8308 18.2385 19.961 16.298 21.3932 14.4504C22.8748 12.5389 23.5357 10.8387 23.5357 8.9376C23.5357 7.13583 22.9691 5.48658 21.9402 4.29349C20.9267 3.11814 19.533 2.47092 18.0162 2.47092C16.905 2.47092 15.8848 2.84856 14.9839 3.59325C14.1811 4.25719 13.6219 5.0965 13.294 5.68377C13.1254 5.98576 12.8286 6.16602 12.5 6.16602C12.1714 6.16602 11.8746 5.98576 11.706 5.68377C11.3783 5.0965 10.8191 4.25719 10.0161 3.59325C9.11522 2.84856 8.09498 2.47092 6.98395 2.47092Z" fill="#222222"/>
</svg>
