<svg width="30" height="28" viewBox="0 0 30 28" fill="none" xmlns="http://www.w3.org/2000/svg">
<path d="M29.1657 12.8632C28.8911 11.8102 28.3013 10.8825 27.4867 10.2218C26.672 9.5612 25.6773 9.20412 24.6548 9.20524H18.4131V4.91854C18.4131 3.81763 18.004 2.76182 17.2759 1.98337C16.5477 1.20491 15.5601 0.767578 14.5304 0.767578H12.873C12.5924 0.769465 12.3238 0.889981 12.126 1.10281C11.9282 1.31565 11.8171 1.60351 11.8171 1.90356V5.93306C11.7811 7.88932 11.1048 9.77019 9.90585 11.2486L7.64038 13.6991L9.1507 15.2924L11.4429 12.7989C11.4642 12.7811 11.4823 12.7593 11.4964 12.7346C13.0338 10.8456 13.8977 8.43672 13.9356 5.93306V3.06096H14.5304C14.9983 3.06096 15.447 3.25968 15.7779 3.61341C16.1087 3.96713 16.2946 4.44688 16.2946 4.94712V10.3412C16.2964 10.6413 16.4091 10.9284 16.6082 11.1399C16.8073 11.3514 17.0765 11.4701 17.3572 11.4701H24.6548C25.2187 11.4721 25.7665 11.6715 26.2142 12.038C26.662 12.4044 26.9851 12.9177 27.1341 13.4991C27.2118 13.8128 27.2118 14.1427 27.1341 14.4565L25.6105 22.5941C25.5637 22.8798 25.4233 23.7658 23.7259 23.7658H8.23515V26.0234H23.7393C25.9513 26.0234 27.4015 24.916 27.7022 23.0013L29.2125 14.928C29.3653 14.2471 29.3491 13.5354 29.1657 12.8632Z" fill="#444444"/>
<path d="M8.28668 9.92603H1.05588C0.775844 9.92603 0.507277 10.045 0.30926 10.2567C0.111244 10.4684 0 10.7555 0 11.0549V26.3655C0 26.6649 0.111244 26.9521 0.30926 27.1637C0.507277 27.3754 0.775844 27.4944 1.05588 27.4944H8.28668C8.56734 27.4944 8.83659 27.3757 9.03567 27.1642C9.23475 26.9527 9.34748 26.6656 9.34924 26.3655V11.0549C9.34748 10.7548 9.23475 10.4677 9.03567 10.2562C8.83659 10.0447 8.56734 9.92602 8.28668 9.92603ZM7.2308 25.2296H2.11845V12.1837H7.2308V25.2296Z" fill="#444444"/>
</svg>
