<svg width="24" height="22" viewBox="0 0 24 22" fill="none" xmlns="http://www.w3.org/2000/svg">
<path d="M20.356 13.4483C19.049 10.2422 15.6136 12.8422 13.589 8.27805C11.7955 4.23497 11.2503 0.00814004 5.8083 0.752878C0.400277 1.49294 -2.54124 11.8601 2.88751 17.9738C8.54306 24.3428 23.3351 20.7562 20.356 13.4483Z" fill="#FF7B8B"/>
<path d="M18.9656 13.8483C18.3071 12.2245 13.5259 12.9378 12.1454 8.73091C10.8711 4.84776 9.29697 1.75511 6.34435 1.95318C2.33116 2.22243 -0.769653 11.6066 4.10287 16.9185C8.8559 22.1001 21.2997 19.6037 18.9656 13.8483Z" fill="#FF4755"/>
<path d="M13.5892 8.27849C15.6138 12.8427 19.0492 10.2427 20.3562 13.4488C22.2548 18.1062 16.9353 21.2518 11.363 21.2725L11.3629 21.2729L13.6791 21.2647L13.6787 21.2629C18.7376 21.1895 23.8062 18.3732 23.28 13.5112C22.9084 10.0781 17.3712 10.2615 16.2424 8.27849C14.2218 4.72867 13.9364 0.640886 9.54768 0.671949L9.54759 0.671121L7.22021 0.670975C11.3642 0.802824 11.9646 4.61596 13.5892 8.27849Z" fill="#994E37"/>
<path d="M15.398 8.72997C17.0635 11.3269 22.0639 10.5295 22.4355 13.9627C22.7284 16.6682 21.2883 18.7399 19.0819 20.0583C21.7538 18.7877 23.6087 16.5487 23.2799 13.5114C22.9083 10.0782 17.3711 10.2617 16.2423 8.27863C14.2218 4.72881 13.9363 0.640978 9.54768 0.67209L9.54759 0.671263L7.22021 0.671116C13.07 0.667463 13.2 5.30275 15.398 8.72997Z" fill="#8C4534"/>
<path d="M7.95465 10.5167C7.95465 9.35914 7.3822 8.42078 6.67606 8.42078C5.96991 8.42078 5.39746 9.35914 5.39746 10.5167C5.39746 11.6742 5.96991 12.6125 6.67606 12.6125C7.3822 12.6125 7.95465 11.6742 7.95465 10.5167Z" fill="#F4E9D3"/>
<path d="M7.11031 10.5167C7.11031 11.4316 6.75254 12.2092 6.25391 12.4951C6.38611 12.5709 6.52807 12.6125 6.67607 12.6125C7.38219 12.6125 7.95465 11.6742 7.95465 10.5166C7.95465 9.35909 7.38224 8.42072 6.67607 8.42072C6.52806 8.42072 6.38611 8.46239 6.25391 8.5382C6.75254 8.82415 7.11031 9.6017 7.11031 10.5167Z" fill="#E5D6BE"/>
</svg>
