<svg width="18" height="18" viewBox="0 0 18 18" fill="none" xmlns="http://www.w3.org/2000/svg">
<path d="M11.8125 0.914062C8.64748 0.914062 6.04976 3.09622 5.84885 5.84486C2.83461 5.99606 0 8.16957 0 11.1094C0 12.3379 0.486145 13.5283 1.37109 14.4715C1.54619 15.1933 1.3336 15.9583 0.806122 16.4858C0.705597 16.5863 0.675522 16.7375 0.729904 16.869C0.784286 17.0002 0.912415 17.0859 1.05469 17.0859C2.05733 17.0859 3.02357 16.6928 3.74153 15.9999C4.44095 16.2383 5.3535 16.3828 6.1875 16.3828C9.35211 16.3828 11.9496 14.2012 12.151 11.4531C12.8871 11.4204 13.6527 11.2845 14.2585 11.0781C14.9764 11.7709 15.9427 12.1641 16.9453 12.1641C17.0876 12.1641 17.2157 12.0784 17.2701 11.9471C17.3245 11.8157 17.2944 11.6645 17.1939 11.5639C16.6664 11.0365 16.4538 10.2714 16.6289 9.54959C17.5139 8.60641 18 7.41605 18 6.1875C18 3.13289 14.947 0.914062 11.8125 0.914062ZM6.1875 15.6797C5.35776 15.6797 4.41225 15.5168 3.77888 15.2648C3.6432 15.2107 3.48816 15.2463 3.38942 15.3541C2.96494 15.8181 2.41301 16.1417 1.81165 16.2904C2.14302 15.6555 2.22762 14.9071 2.02602 14.1979C2.01009 14.142 1.98056 14.0909 1.94005 14.0493C1.14244 13.2278 0.703125 12.1837 0.703125 11.1094C0.703125 8.63196 3.2146 6.53906 6.1875 6.53906C8.99478 6.53906 11.4609 8.4912 11.4609 11.1094C11.4609 13.6295 9.09531 15.6797 6.1875 15.6797ZM16.06 9.12744C16.0194 9.16919 15.9899 9.22028 15.974 9.27603C15.7724 9.9852 15.857 10.7336 16.1884 11.3685C15.587 11.2199 15.0351 10.8962 14.6106 10.4322C14.5118 10.3245 14.3568 10.2888 14.2211 10.3429C13.6722 10.5613 12.8892 10.7125 12.1499 10.749C12.0472 9.41954 11.384 8.16998 10.2502 7.24219H14.8359C15.0301 7.24219 15.1875 7.08481 15.1875 6.89062C15.1875 6.69644 15.0301 6.53906 14.8359 6.53906H9.17015C8.37213 6.13284 7.47606 5.89595 6.55376 5.84624C6.75577 3.485 9.03722 1.61719 11.8125 1.61719C14.7854 1.61719 17.2969 3.71008 17.2969 6.1875C17.2969 7.26183 16.8576 8.30594 16.06 9.12744Z" fill="white"/>
</svg>
