<svg width="30" height="30" viewBox="0 0 30 30" fill="none" xmlns="http://www.w3.org/2000/svg">
<path d="M5.4539 4.59119V1.73183C5.4539 1.19118 5.86383 0.75293 6.36931 0.75293H15.7558C16.2615 0.75293 16.6714 1.19118 16.6714 1.73183V4.59119L19.4832 8.14877V27.3909C19.4832 28.3286 18.772 29.089 17.8947 29.089H4.23042C3.3531 29.089 2.64209 28.3286 2.64209 27.3909V8.14877L5.4539 4.59119Z" fill="#E9E9EA"/>
<path d="M16.6713 4.59119V1.73183C16.6713 1.19118 16.2614 0.75293 15.7557 0.75293H14.1133C14.619 0.75293 15.0289 1.19118 15.0289 1.73183V4.59119L17.8407 8.14877V27.3909C17.8407 28.3286 17.1295 29.089 16.2524 29.089H17.8946C18.7719 29.089 19.4832 28.3286 19.4832 27.3909V8.14877L16.6713 4.59119Z" fill="#C5C4CC"/>
<path d="M17.8947 29.0889H4.23042C3.3531 29.0889 2.64209 28.3285 2.64209 27.3906V8.14868H19.4832V27.3906C19.483 28.3285 18.772 29.0889 17.8947 29.0889Z" fill="#8CBAFA"/>
<path d="M19.4832 8.14868H17.8408V27.3906C17.8408 28.3285 17.1298 29.0889 16.2524 29.0889H17.8949C18.7722 29.0889 19.4832 28.3285 19.4832 27.3906V8.14868Z" fill="#5692D8"/>
<path d="M15.756 0.75293H6.36952C5.86403 0.75293 5.4541 1.19118 5.4541 1.73183V4.59119H16.6714V1.73183C16.6714 1.19118 16.2617 0.75293 15.756 0.75293Z" fill="#8CBAFA"/>
<path d="M16.6716 4.59119V1.73183C16.6716 1.19118 16.2617 0.75293 15.756 0.75293H14.1138C14.6193 0.75293 15.0292 1.19118 15.0292 1.73183V4.59119H16.6716Z" fill="#5692D8"/>
<path d="M20.746 23.8753C20.746 22.0343 19.5987 20.542 18.1835 20.542C16.7684 20.542 15.6211 22.0343 15.6211 23.8753C15.6211 25.7164 16.7684 27.2088 18.1835 27.2088C19.5987 27.2088 20.746 25.7164 20.746 23.8753Z" fill="#FFD2C0"/>
<path d="M27.1083 23.8753C27.1083 22.0343 25.961 20.542 24.5458 20.542C23.1307 20.542 21.9834 22.0343 21.9834 23.8753C21.9834 25.7164 23.1307 27.2088 24.5458 27.2088C25.961 27.2088 27.1083 25.7164 27.1083 23.8753Z" fill="#FFD2C0"/>
<path d="M24.5457 20.5417C24.4071 20.5417 24.2712 20.5567 24.1387 20.5842C25.0252 20.8379 25.7029 22.2145 25.7029 23.8753C25.7029 25.536 25.0252 26.9127 24.1387 27.1664C24.2712 27.1941 24.4071 27.2088 24.5457 27.2088C25.961 27.2088 27.1083 25.7162 27.1083 23.8753C27.1083 22.0343 25.961 20.5417 24.5457 20.5417Z" fill="#EDAA9D"/>
<path d="M18.1834 20.5417C18.0448 20.5417 17.9089 20.5567 17.7764 20.5842C18.6629 20.8379 19.3406 22.2145 19.3406 23.8753C19.3406 25.536 18.6629 26.9127 17.7764 27.1664C17.9089 27.1941 18.0448 27.2088 18.1834 27.2088C19.5987 27.2088 20.746 25.7162 20.746 23.8753C20.746 22.0343 19.5987 20.5417 18.1834 20.5417Z" fill="#EDAA9D"/>
<path d="M21.7109 24.2161H14.6562L15.8369 28.7516C15.8887 28.9508 16.0587 29.0889 16.252 29.0889H20.1152C20.3087 29.0889 20.4784 28.9508 20.5303 28.7516L21.0445 26.7764C21.0635 26.7032 21.1259 26.6524 21.1971 26.6524H21.5324C21.6037 26.6524 21.6659 26.7032 21.685 26.7764L22.1993 28.7516C22.2511 28.9508 22.4208 29.0889 22.6144 29.0889H26.4775C26.6709 29.0889 26.8408 28.9508 26.8926 28.7516L28.0733 24.2161H21.7109Z" fill="#F9AA4B"/>
<path d="M26.6094 24.2161L25.4288 28.7516C25.3769 28.9508 25.2073 29.0889 25.0137 29.0889H26.4774C26.6709 29.0889 26.8406 28.9508 26.8927 28.7516L28.0731 24.2161H26.6094Z" fill="#C1762B"/>
<path d="M10.6566 25.8639C10.6566 25.1172 11.1905 24.5038 11.8727 24.4366C11.943 24.4299 11.9971 24.3677 11.9971 24.2923V22.7756C11.9971 22.7033 11.9488 22.6393 11.8819 22.6296C11.467 22.5694 11.1472 22.1892 11.1472 21.7293C11.1472 21.2693 11.467 20.8891 11.8819 20.8289C11.9488 20.8193 11.9971 20.7552 11.9971 20.6829V19.9611C11.9971 19.6332 11.7485 19.3672 11.4418 19.3672H1.64333C0.735802 19.3672 0 20.1538 0 21.124V27.3321C0 28.3023 0.735802 29.089 1.64333 29.089H11.4418C11.7485 29.089 11.9971 28.8232 11.9971 28.4951V27.4355C11.9971 27.36 11.943 27.2979 11.8727 27.2909C11.1905 27.2239 10.6566 26.6105 10.6566 25.8639Z" fill="#FFEB96"/>
<path d="M1.90678 27.3321V21.124C1.90678 20.1538 2.64258 19.3672 3.55011 19.3672H1.64333C0.735803 19.3672 0 20.1538 0 21.124V27.3321C0 28.3023 0.735803 29.089 1.64333 29.089H3.55011C2.64258 29.089 1.90678 28.3023 1.90678 27.3321Z" fill="#F9AA4B"/>
<path d="M5.34418 21.7835C5.34418 22.229 5.00637 22.5901 4.58946 22.5901C4.17277 22.5901 3.83496 22.229 3.83496 21.7835C3.83496 21.3377 4.17277 20.9766 4.58946 20.9766C5.00637 20.9766 5.34418 21.3377 5.34418 21.7835Z" fill="#FFCD34"/>
<path d="M8.80414 25.7553C8.80414 26.4873 8.24931 27.0804 7.56467 27.0804C6.88003 27.0804 6.3252 26.4873 6.3252 25.7553C6.3252 25.0234 6.88003 24.4302 7.56467 24.4302C8.24931 24.4302 8.80414 25.0234 8.80414 25.7553Z" fill="#FFCD34"/>
<path d="M6.83278 15.1441C9.65544 15.0774 12.4779 18.2774 15.3005 18.1924C15.4898 18.1866 15.6401 18.0189 15.6401 17.8165V14.5261C15.6401 14.3139 15.4754 14.1464 15.2769 14.1512C12.4542 14.218 9.63177 11.0179 6.80912 11.103C6.61982 11.1088 6.46973 11.2765 6.46973 11.4788V14.769C6.46973 14.9815 6.63424 15.1489 6.83278 15.1441Z" fill="#E9E9EA"/>
<path d="M29.0991 24.6855H13.6299C13.3874 24.6855 13.1909 24.4754 13.1909 24.2162C13.1909 23.9567 13.3874 23.7466 13.6299 23.7466H29.0993C29.3418 23.7466 29.5383 23.9567 29.5383 24.2162C29.5383 24.4754 29.3418 24.6855 29.0991 24.6855Z" fill="#C1762B"/>
</svg>
