<svg width="24" height="27" viewBox="0 0 24 27" fill="none" xmlns="http://www.w3.org/2000/svg">
<path d="M15.0313 10.11C14.8452 9.71839 14.6625 9.32519 14.4722 8.93405C14.3287 8.63852 14.2575 8.35168 14.5061 8.07711C14.7711 7.78516 15.0528 7.85827 15.3464 8.02598C15.6989 8.22641 16.0576 8.41457 16.4852 8.53268C16.1609 7.93752 15.8365 7.3422 15.5119 6.74671C15.4383 6.61274 15.3641 6.47878 15.2871 6.34687C15.0839 5.99765 15.0279 5.63411 15.3924 5.39483C15.7568 5.15554 16.0394 5.35955 16.2389 5.71439C16.896 6.8839 17.5523 8.05359 18.2079 9.22345C18.3159 9.4157 18.4781 9.59669 18.5178 9.80428C18.5656 10.0497 18.5933 10.4025 18.4671 10.5528C18.3408 10.7032 17.984 10.7333 17.786 10.6525C17.2599 10.4393 16.7669 10.1371 16.1643 9.81911L16.895 11.3801C17.0385 11.6833 17.1638 11.9983 16.8883 12.2846C16.6014 12.5822 16.3082 12.4671 16.0069 12.2728C14.8175 11.5059 13.6219 10.7502 12.4291 9.98989C12.3875 9.9633 12.3497 9.93057 12.3086 9.90296C11.9838 9.68157 11.793 9.3799 12.0216 8.99541C12.233 8.6375 12.5592 8.66868 12.8767 8.8686C13.4188 9.20947 13.9616 9.55034 14.5052 9.8912C14.6535 9.98426 14.8036 10.0737 14.9528 10.1648L15.0313 10.11Z" fill="#444444"/>
<path d="M9.71882 16.139L8.21326 14.5289C8.10601 14.4239 8.00445 14.3124 7.90908 14.195C7.6843 13.8934 7.60491 13.5656 7.90287 13.2747C8.18169 13.0012 8.47678 13.0891 8.72356 13.3448C9.27978 13.923 9.82356 14.5141 10.3721 15.1C10.8179 15.5761 11.2612 16.0551 11.7112 16.5281C11.9384 16.7674 12.1508 17.0051 11.9791 17.383C11.8074 17.7608 11.5061 17.7465 11.189 17.6995C10.1655 17.5475 9.14204 17.3954 8.11856 17.2434C7.96169 17.2204 7.80434 17.202 7.50065 17.1621L8.21804 17.9291C8.58343 18.3197 8.95169 18.7083 9.31421 19.105C9.68486 19.509 9.73317 19.8628 9.46295 20.1348C9.19273 20.4068 8.86608 20.3577 8.49113 19.9599C7.52791 18.9373 6.57378 17.9055 5.60818 16.8855C5.36665 16.6298 5.23561 16.3589 5.38818 16.0086C5.54457 15.6507 5.84252 15.6788 6.14096 15.7238C7.32066 15.9 8.49926 16.0756 9.67673 16.2505L9.71882 16.139Z" fill="#444444"/>
<path d="M10.5337 12.3322L11.3353 13.1892C11.6973 12.8021 12.0555 12.4166 12.4166 12.0341C12.6361 11.8015 12.8781 11.6491 13.1938 11.8296C13.5654 12.0387 13.5988 12.4805 13.2535 12.8706C12.9082 13.2607 12.5314 13.6473 12.1512 14.0538L12.9446 14.902C13.2248 14.6024 13.4931 14.313 13.7638 14.0272C13.8901 13.8937 14.0144 13.7567 14.1512 13.6371C14.41 13.4095 14.7026 13.3814 14.9379 13.6371C15.1732 13.8927 15.168 14.2143 14.9327 14.4751C14.4066 15.0593 13.87 15.6328 13.3229 16.1956C13.0728 16.4512 12.7791 16.4139 12.5429 16.1639C11.4754 15.0339 10.4148 13.898 9.36102 12.7561C9.11185 12.4856 9.10898 12.1645 9.37107 11.8818C9.88121 11.3296 10.3956 10.7808 10.9144 10.2354C11.1765 9.95979 11.4826 9.95467 11.7351 10.2119C11.9876 10.469 11.9446 10.7952 11.7241 11.0509C11.3534 11.4824 10.9541 11.8828 10.5337 12.3322Z" fill="#444444"/>
<path d="M23.937 10.7666L22.333 3.82315C22.2979 3.6738 22.2491 3.52855 22.1871 3.38957L23.465 2.02338C23.5957 1.87873 23.668 1.685 23.6663 1.48391C23.6647 1.28281 23.5893 1.09045 23.4562 0.948255C23.3232 0.806057 23.1433 0.725397 22.9552 0.72365C22.7671 0.721903 22.5859 0.799207 22.4506 0.938913L21.1741 2.3051C21.044 2.23971 20.9082 2.18832 20.7686 2.15171L14.2738 0.43426C13.9134 0.339196 13.5361 0.344905 13.1782 0.450838C12.8204 0.556771 12.4941 0.759364 12.2307 1.03913L0.629175 13.4207C0.226264 13.8526 0 14.4377 0 15.0477C0 15.6577 0.226264 16.2428 0.629175 16.6747L8.74615 25.3524C9.15013 25.7832 9.69741 26.0251 10.268 26.0251C10.8385 26.0251 11.3858 25.7832 11.7898 25.3524L23.3712 12.9504C23.6329 12.6689 23.8224 12.3201 23.9215 11.9377C24.0206 11.5552 24.026 11.1519 23.937 10.7666ZM22.3588 11.8674L10.7749 24.2674C10.6404 24.4112 10.458 24.492 10.2677 24.492C10.0775 24.492 9.89507 24.4112 9.76054 24.2674L1.64404 15.5902C1.57737 15.519 1.52449 15.4344 1.48841 15.3413C1.45233 15.2482 1.43376 15.1485 1.43376 15.0477C1.43376 14.9469 1.45233 14.8472 1.48841 14.7541C1.52449 14.661 1.57737 14.5764 1.64404 14.5052L13.2446 2.12564C13.3798 1.98174 13.5628 1.90102 13.7535 1.90118C13.8115 1.90106 13.8694 1.90862 13.9257 1.92367L20.0263 3.53171L19.6839 3.8978C19.3738 3.78174 19.0364 3.77909 18.7247 3.89028C18.413 4.00147 18.1447 4.22019 17.962 4.51209C17.7792 4.80399 17.6923 5.15253 17.7149 5.50296C17.7376 5.8534 17.8684 6.18586 18.087 6.44815C18.3055 6.71043 18.5994 6.88766 18.9224 6.95201C19.2454 7.01636 19.5793 6.96417 19.8715 6.80365C20.1638 6.64313 20.3979 6.38337 20.537 6.06517C20.6762 5.74697 20.7126 5.38836 20.6404 5.04567L21.0412 4.61669L22.5472 11.1373C22.5767 11.266 22.5746 11.4007 22.5411 11.5283C22.5077 11.656 22.4441 11.7722 22.3564 11.8659L22.3588 11.8674Z" fill="#444444"/>
</svg>
