<?xml version="1.0" standalone="no"?>
<!DOCTYPE svg PUBLIC "-//W3C//DTD SVG 20010904//EN"
 "http://www.w3.org/TR/2001/REC-SVG-20010904/DTD/svg10.dtd">
<svg version="1.0" xmlns="http://www.w3.org/2000/svg"
 width="512.000000pt" height="512.000000pt" viewBox="0 0 512.000000 512.000000"
 preserveAspectRatio="xMidYMid meet">
<metadata>
Created by potrace 1.16, written by Peter Selinger 2001-2019
</metadata>
<g transform="translate(0.000000,512.000000) scale(0.100000,-0.100000)"
fill="#000000" stroke="none">
<path d="M928 5101 c-145 -47 -269 -174 -312 -320 -14 -49 -16 -273 -16 -2222
0 -2099 1 -2169 19 -2228 46 -147 172 -272 320 -315 49 -14 236 -16 1798 -16
1730 0 1743 0 1763 20 20 20 20 33 20 2540 0 2507 0 2520 -20 2540 -20 20 -33
20 -1767 19 -1667 0 -1751 -1 -1805 -18z m232 -2141 l0 -2000 -85 0 c-100 0
-179 -23 -261 -75 l-54 -35 0 1883 c0 1247 4 1903 10 1946 29 176 152 274 353
280 l37 1 0 -2000z m3200 0 l0 -2000 -1520 0 -1520 0 0 2000 0 2000 1520 0
1520 0 0 -2000z m-320 -2280 l0 -120 -1500 0 c-1487 0 -1500 0 -1520 -20 -13
-13 -20 -33 -20 -60 0 -27 7 -47 20 -60 20 -20 33 -20 1520 -20 l1500 0 0
-120 0 -120 -1467 0 c-963 0 -1490 4 -1532 10 -78 13 -130 39 -181 90 -68 68
-85 111 -85 220 0 79 4 102 23 137 50 95 132 155 233 172 30 5 716 9 1532 10
l1477 1 0 -120z m320 -200 l0 -320 -80 0 -80 0 0 320 0 320 80 0 80 0 0 -320z"/>
<path d="M2662 4454 c-41 -13 -97 -39 -125 -58 -51 -32 -157 -132 -157 -148 0
-4 -60 -8 -133 -8 -189 0 -272 -28 -379 -128 -101 -94 -148 -207 -148 -352 0
-105 22 -183 74 -264 61 -95 172 -175 284 -205 l42 -12 0 -379 c0 -367 1 -381
20 -400 20 -20 33 -20 694 -20 371 0 682 3 690 6 38 15 41 40 46 422 l5 373
58 20 c202 68 326 241 327 455 0 142 -36 238 -128 336 -104 112 -202 148 -398
148 -74 0 -134 4 -134 8 0 17 -115 124 -169 156 -132 80 -323 101 -469 50z
m351 -182 c70 -35 143 -106 177 -173 21 -39 35 -96 45 -172 8 -62 33 -87 85
-87 45 0 79 26 81 63 2 52 -3 120 -11 149 l-9 31 87 -7 c192 -15 309 -122 320
-290 5 -87 -8 -139 -51 -202 -57 -82 -129 -122 -250 -139 -88 -12 -87 -7 -87
-305 l0 -260 -555 0 -555 0 0 239 c0 244 -6 293 -40 311 -9 5 -48 14 -85 20
-160 26 -263 133 -273 285 -2 39 1 89 7 112 24 90 121 188 209 213 20 5 72 13
114 16 l77 7 -9 -34 c-6 -19 -10 -64 -10 -101 0 -83 18 -108 80 -108 52 0 77
25 85 87 15 121 39 179 98 248 84 97 178 137 313 132 79 -2 100 -7 157 -35z
m387 -1592 l0 -40 -555 0 -555 0 0 40 0 40 555 0 555 0 0 -40z"/>
<path d="M1900 2140 c-13 -13 -20 -33 -20 -60 0 -27 7 -47 20 -60 20 -20 33
-20 940 -20 907 0 920 0 940 20 13 13 20 33 20 60 0 27 -7 47 -20 60 -20 20
-33 20 -940 20 -907 0 -920 0 -940 -20z"/>
<path d="M1900 1900 c-13 -13 -20 -33 -20 -60 0 -27 7 -47 20 -60 20 -20 33
-20 940 -20 907 0 920 0 940 20 13 13 20 33 20 60 0 27 -7 47 -20 60 -20 20
-33 20 -940 20 -907 0 -920 0 -940 -20z"/>
<path d="M2302 1657 c-28 -29 -29 -86 -3 -118 l19 -24 522 0 522 0 19 24 c27
33 25 92 -4 119 l-23 22 -515 0 -516 0 -21 -23z"/>
</g>
</svg>
