<svg width="18" height="18" viewBox="0 0 18 18" fill="none" xmlns="http://www.w3.org/2000/svg">
<path d="M17.8292 16.7178L13.1819 12.2262C14.3989 10.9275 15.1466 9.20996 15.1466 7.32C15.146 3.27702 11.7556 0 7.57302 0C3.39042 0 0 3.27702 0 7.32C0 11.363 3.39042 14.64 7.57302 14.64C9.3802 14.64 11.0377 14.026 12.3397 13.0053L17.005 17.5147C17.2323 17.7347 17.6014 17.7347 17.8287 17.5147C18.0565 17.2948 18.0565 16.9378 17.8292 16.7178ZM7.57302 13.5138C4.03408 13.5138 1.16522 10.7407 1.16522 7.32C1.16522 3.89926 4.03408 1.12622 7.57302 1.12622C11.112 1.12622 13.9808 3.89926 13.9808 7.32C13.9808 10.7407 11.112 13.5138 7.57302 13.5138Z" fill="white"/>
</svg>
