<svg width="19" height="27" viewBox="0 0 19 27" fill="none" xmlns="http://www.w3.org/2000/svg">
<path d="M13.886 7.63984C13.8514 7.59032 13.8103 7.55104 13.7651 7.52424C13.7198 7.49744 13.6713 7.48364 13.6224 7.48364C13.5734 7.48364 13.5249 7.49744 13.4796 7.52424C13.4344 7.55104 13.3933 7.59032 13.3587 7.63984L12.1329 9.38798L11.6501 8.71819C11.6162 8.66425 11.575 8.62075 11.529 8.59035C11.4829 8.55995 11.4331 8.5433 11.3824 8.54142C11.3317 8.53953 11.2812 8.55245 11.2342 8.57938C11.1871 8.60631 11.1443 8.64668 11.1086 8.69803C11.0728 8.74939 11.0447 8.81063 11.0261 8.87802C11.0074 8.94541 10.9986 9.01753 11.0002 9.08995C11.0017 9.16238 11.0136 9.23359 11.0351 9.29923C11.0566 9.36488 11.0872 9.42356 11.1251 9.4717L11.8681 10.5333C11.9025 10.5832 11.9436 10.6229 11.9888 10.6499C12.0341 10.677 12.0827 10.6909 12.1317 10.6909C12.1808 10.6909 12.2294 10.677 12.2746 10.6499C12.3199 10.6229 12.3609 10.5832 12.3954 10.5333L13.8837 8.40674C13.9202 8.35754 13.9494 8.29824 13.9694 8.23245C13.9894 8.16665 13.9998 8.09574 14 8.02401C14.0002 7.95228 13.9902 7.88124 13.9706 7.81519C13.951 7.74915 13.9223 7.68949 13.886 7.63984Z" fill="#444444"/>
<path d="M13.886 11.9162C13.8514 11.8667 13.8103 11.8274 13.7651 11.8006C13.7198 11.7738 13.6713 11.76 13.6224 11.76C13.5734 11.76 13.5249 11.7738 13.4796 11.8006C13.4344 11.8274 13.3933 11.8667 13.3587 11.9162L12.1329 13.6643L11.6501 12.9946C11.6162 12.9406 11.575 12.8971 11.529 12.8667C11.4829 12.8363 11.4331 12.8197 11.3824 12.8178C11.3317 12.8159 11.2812 12.8288 11.2342 12.8557C11.1871 12.8827 11.1443 12.923 11.1086 12.9744C11.0728 13.0258 11.0447 13.087 11.0261 13.1544C11.0074 13.2218 10.9986 13.2939 11.0002 13.3663C11.0017 13.4387 11.0136 13.51 11.0351 13.5756C11.0566 13.6412 11.0872 13.6999 11.1251 13.7481L11.8681 14.8097C11.9025 14.8596 11.9436 14.8992 11.9888 14.9263C12.0341 14.9533 12.0827 14.9673 12.1317 14.9673C12.1808 14.9673 12.2294 14.9533 12.2746 14.9263C12.3199 14.8992 12.3609 14.8596 12.3954 14.8097L13.8837 12.6831C13.9202 12.6339 13.9494 12.5746 13.9694 12.5088C13.9894 12.443 13.9998 12.3721 14 12.3004C14.0002 12.2286 13.9902 12.1576 13.9706 12.0916C13.951 12.0255 13.9223 11.9659 13.886 11.9162Z" fill="#444444"/>
<path d="M13.886 16.1926C13.8514 16.1431 13.8103 16.1038 13.7651 16.077C13.7198 16.0502 13.6713 16.0364 13.6224 16.0364C13.5734 16.0364 13.5249 16.0502 13.4796 16.077C13.4344 16.1038 13.3933 16.1431 13.3587 16.1926L12.1329 17.9407L11.6501 17.2709C11.6162 17.217 11.575 17.1735 11.529 17.1431C11.4829 17.1127 11.4331 17.096 11.3824 17.0942C11.3317 17.0923 11.2812 17.1052 11.2342 17.1321C11.1871 17.159 11.1443 17.1994 11.1086 17.2508C11.0728 17.3021 11.0447 17.3634 11.0261 17.4308C11.0074 17.4981 10.9986 17.5703 11.0002 17.6427C11.0017 17.7151 11.0136 17.7863 11.0351 17.852C11.0566 17.9176 11.0872 17.9763 11.1251 18.0244L11.8681 19.086C11.9025 19.136 11.9436 19.1756 11.9888 19.2027C12.0341 19.2297 12.0827 19.2436 12.1317 19.2436C12.1808 19.2436 12.2294 19.2297 12.2746 19.2027C12.3199 19.1756 12.3609 19.136 12.3954 19.086L13.8837 16.9595C13.9202 16.9103 13.9494 16.851 13.9694 16.7852C13.9894 16.7194 13.9998 16.6485 14 16.5767C14.0002 16.505 13.9902 16.434 13.9706 16.3679C13.951 16.3019 13.9223 16.2422 13.886 16.1926Z" fill="#444444"/>
<path d="M13.886 20.458C13.8514 20.4084 13.8103 20.3692 13.7651 20.3424C13.7198 20.3156 13.6713 20.3018 13.6224 20.3018C13.5734 20.3018 13.5249 20.3156 13.4796 20.3424C13.4344 20.3692 13.3933 20.4084 13.3587 20.458L12.1329 22.2061L11.6501 21.5363C11.6162 21.4824 11.575 21.4389 11.529 21.4085C11.4829 21.3781 11.4331 21.3614 11.3824 21.3595C11.3317 21.3576 11.2812 21.3706 11.2342 21.3975C11.1871 21.4244 11.1443 21.4648 11.1086 21.5161C11.0728 21.5675 11.0447 21.6287 11.0261 21.6961C11.0074 21.7635 10.9986 21.8356 11.0002 21.9081C11.0017 21.9805 11.0136 22.0517 11.0351 22.1173C11.0566 22.183 11.0872 22.2417 11.1251 22.2898L11.8681 23.3514C11.9025 23.4013 11.9436 23.441 11.9888 23.468C12.0341 23.4951 12.0827 23.509 12.1317 23.509C12.1808 23.509 12.2294 23.4951 12.2746 23.468C12.3199 23.441 12.3609 23.4013 12.3954 23.3514L13.8837 21.2249C13.9202 21.1757 13.9494 21.1164 13.9694 21.0506C13.9894 20.9848 13.9998 20.9139 14 20.8421C14.0002 20.7704 13.9902 20.6994 13.9706 20.6333C13.951 20.5673 13.9223 20.5076 13.886 20.458Z" fill="#444444"/>
<path d="M6.8957 8.55536H3.72989C3.53115 8.57202 3.34566 8.66701 3.21039 8.82141C3.07512 8.97582 3 9.17829 3 9.38848C3 9.59866 3.07512 9.80114 3.21039 9.95554C3.34566 10.1099 3.53115 10.2049 3.72989 10.2216H6.8957C7.00475 10.2307 7.11442 10.216 7.21779 10.1783C7.32117 10.1405 7.41602 10.0807 7.49638 10.0024C7.57674 9.92415 7.64086 9.82921 7.68472 9.72355C7.72858 9.61789 7.75122 9.50381 7.75122 9.38848C7.75122 9.27314 7.72858 9.15906 7.68472 9.0534C7.64086 8.94775 7.57674 8.8528 7.49638 8.77455C7.41602 8.6963 7.32117 8.63642 7.21779 8.5987C7.11442 8.56098 7.00475 8.54622 6.8957 8.55536Z" fill="#444444"/>
<path d="M6.8957 12.8317H3.72989C3.53115 12.8484 3.34566 12.9434 3.21039 13.0978C3.07512 13.2522 3 13.4547 3 13.6648C3 13.875 3.07512 14.0775 3.21039 14.2319C3.34566 14.3863 3.53115 14.4813 3.72989 14.498H6.8957C7.00475 14.5071 7.11441 14.4923 7.21779 14.4546C7.32117 14.4169 7.41602 14.357 7.49638 14.2788C7.57674 14.2005 7.64086 14.1056 7.68472 13.9999C7.72858 13.8943 7.75122 13.7802 7.75122 13.6648C7.75122 13.5495 7.72858 13.4354 7.68472 13.3298C7.64086 13.2241 7.57674 13.1292 7.49638 13.0509C7.41602 12.9727 7.32117 12.9128 7.21779 12.8751C7.11441 12.8373 7.00475 12.8226 6.8957 12.8317Z" fill="#444444"/>
<path d="M6.8957 17.1081H3.72989C3.53115 17.1248 3.34566 17.2197 3.21039 17.3742C3.07512 17.5286 3 17.731 3 17.9412C3 18.1514 3.07512 18.3539 3.21039 18.5083C3.34566 18.6627 3.53115 18.7577 3.72989 18.7743H6.8957C7.00475 18.7835 7.11441 18.7687 7.21779 18.731C7.32117 18.6933 7.41602 18.6334 7.49638 18.5551C7.57674 18.4769 7.64086 18.3819 7.68472 18.2763C7.72858 18.1706 7.75122 18.0565 7.75122 17.9412C7.75122 17.8259 7.72858 17.7118 7.68472 17.6061C7.64086 17.5005 7.57674 17.4055 7.49638 17.3273C7.41602 17.249 7.32117 17.1892 7.21779 17.1514C7.11441 17.1137 7.00475 17.099 6.8957 17.1081Z" fill="#444444"/>
<path d="M6.8957 21.3737H3.72989C3.53115 21.3904 3.34566 21.4854 3.21039 21.6398C3.07512 21.7942 3 21.9966 3 22.2068C3 22.417 3.07512 22.6195 3.21039 22.7739C3.34566 22.9283 3.53115 23.0233 3.72989 23.04H6.8957C7.00475 23.0491 7.11441 23.0343 7.21779 22.9966C7.32117 22.9589 7.41602 22.899 7.49638 22.8208C7.57674 22.7425 7.64086 22.6476 7.68472 22.5419C7.72858 22.4363 7.75122 22.3222 7.75122 22.2068C7.75122 22.0915 7.72858 21.9774 7.68472 21.8718C7.64086 21.7661 7.57674 21.6712 7.49638 21.5929C7.41602 21.5147 7.32117 21.4548 7.21779 21.4171C7.11441 21.3793 7.00475 21.3646 6.8957 21.3737Z" fill="#444444"/>
<path d="M17.4146 3.36314H14.2488V2.52214C14.2488 2.30049 14.1652 2.08791 14.0166 1.93118C13.8679 1.77445 13.6663 1.6864 13.456 1.6864H11.736C11.575 1.19411 11.2723 0.767061 10.8702 0.464766C10.468 0.162472 9.98643 0 9.49252 0C8.99861 0 8.51701 0.162472 8.11485 0.464766C7.7127 0.767061 7.41002 1.19411 7.24902 1.6864H5.53897C5.32959 1.68778 5.12924 1.77645 4.98166 1.93303C4.83407 2.08961 4.75124 2.3014 4.75125 2.52214V3.36314H1.58541C1.16534 3.36453 0.762847 3.54108 0.465809 3.85424C0.168771 4.16741 0.00131479 4.59175 0 5.03463V25.061C0.00131954 25.5034 0.168936 25.9272 0.466115 26.2395C0.763294 26.5519 1.1658 26.7272 1.58541 26.7272H17.4146C17.6226 26.7279 17.8286 26.6853 18.0209 26.6019C18.2132 26.5185 18.3881 26.3959 18.5353 26.2411C18.6826 26.0863 18.7995 25.9024 18.8792 25.6999C18.959 25.4974 19 25.2803 19 25.061V5.03463C19 4.81513 18.959 4.59778 18.8793 4.39498C18.7996 4.19219 18.6829 4.00792 18.5356 3.85271C18.3884 3.6975 18.2136 3.57438 18.0213 3.49038C17.8289 3.40638 17.6228 3.36314 17.4146 3.36314ZM6.33167 3.36314H7.91708C8.02137 3.36315 8.12462 3.34133 8.22085 3.29894C8.31708 3.25654 8.40436 3.19443 8.47764 3.11619C8.55092 3.03796 8.60873 2.94516 8.64773 2.84318C8.68672 2.74121 8.70612 2.63208 8.7048 2.52214C8.7048 2.30049 8.78832 2.08791 8.93698 1.93118C9.08564 1.77445 9.28727 1.6864 9.49751 1.6864C9.70774 1.6864 9.90937 1.77445 10.058 1.93118C10.2067 2.08791 10.2902 2.30049 10.2902 2.52214C10.2915 2.74288 10.3756 2.95411 10.5241 3.10971C10.6727 3.26531 10.8735 3.35264 11.0829 3.35263H12.6633V5.02412H6.33167V3.36314ZM17.4146 25.061H1.58541V5.03463H4.75125V5.87038C4.74859 5.98145 4.76697 6.09196 4.80531 6.19545C4.84364 6.29894 4.90117 6.39333 4.97451 6.47311C5.04786 6.55288 5.13555 6.61644 5.23247 6.66006C5.32939 6.70368 5.43359 6.72649 5.53897 6.72715H13.456C13.6654 6.72716 13.8663 6.63983 14.0148 6.48423C14.1633 6.32863 14.2474 6.1174 14.2488 5.89666V5.03463H17.4146V25.061Z" fill="#444444"/>
</svg>
