<svg width="18" height="18" viewBox="0 0 18 18" fill="none" xmlns="http://www.w3.org/2000/svg">
<g clip-path="url(#clip0_3:2458)">
<path d="M16.125 16.5H1.875C0.825 16.5 0 15.675 0 14.625V5.625C0 4.575 0.825 3.75 1.875 3.75H16.125C17.175 3.75 18 4.575 18 5.625V14.625C18 15.675 17.175 16.5 16.125 16.5ZM1.875 4.5C1.275 4.5 0.75 5.025 0.75 5.625V14.625C0.75 15.225 1.275 15.75 1.875 15.75H16.125C16.725 15.75 17.25 15.225 17.25 14.625V5.625C17.25 5.025 16.725 4.5 16.125 4.5H1.875Z" fill="white"/>
<path d="M11.625 4.5C11.4 4.5 11.25 4.35 11.25 4.125V2.625C11.25 2.4 11.1 2.25 10.875 2.25H7.125C6.9 2.25 6.75 2.4 6.75 2.625V4.125C6.75 4.35 6.6 4.5 6.375 4.5C6.15 4.5 6 4.35 6 4.125V2.625C6 2.025 6.525 1.5 7.125 1.5H10.875C11.475 1.5 12 2.025 12 2.625V4.125C12 4.35 11.85 4.5 11.625 4.5Z" fill="white"/>
<path d="M8.99993 10.5C8.92493 10.5 8.92493 10.5 8.84993 10.5L0.224929 7.50005C0.0749294 7.42505 -0.0750706 7.20005 -7.0557e-05 6.97505C0.0749294 6.82505 0.299929 6.67505 0.524929 6.75005L8.99993 9.75005L17.4749 6.75005C17.6999 6.67505 17.8499 6.75005 17.9249 6.97505C17.9999 7.20005 17.9249 7.35005 17.6999 7.42505L9.07493 10.425C9.07493 10.5 9.07493 10.5 8.99993 10.5Z" fill="white"/>
</g>
<defs>
<clipPath id="clip0_3:2458">
<rect width="18" height="18" fill="white"/>
</clipPath>
</defs>
</svg>
