<svg width="25" height="25" viewBox="0 0 25 25" fill="none" xmlns="http://www.w3.org/2000/svg">
<path d="M25 12.5C25 5.60773 19.3923 0 12.5 0C5.60773 0 0 5.60773 0 12.5C0 16.1405 1.56545 19.4218 4.05727 21.7082L4.04545 21.7186L4.45091 22.0605C4.47727 22.0827 4.50591 22.1009 4.53227 22.1227C4.74773 22.3014 4.97091 22.4709 5.19818 22.635C5.27182 22.6882 5.34545 22.7414 5.42045 22.7932C5.66318 22.9605 5.91227 23.1191 6.16682 23.2695C6.22227 23.3023 6.27818 23.3341 6.33409 23.3659C6.61273 23.5245 6.89727 23.6741 7.18864 23.8114C7.21 23.8214 7.23182 23.8305 7.25318 23.8405C8.20273 24.2818 9.21636 24.6059 10.2764 24.7973C10.3041 24.8023 10.3318 24.8073 10.36 24.8123C10.6891 24.8691 11.0218 24.9145 11.3586 24.945C11.3995 24.9486 11.4405 24.9509 11.4818 24.9545C11.8173 24.9823 12.1564 25 12.5 25C12.8405 25 13.1764 24.9823 13.51 24.9555C13.5523 24.9518 13.5945 24.9495 13.6368 24.9459C13.9709 24.9155 14.3009 24.8714 14.6268 24.8155C14.655 24.8105 14.6836 24.8055 14.7118 24.8C15.7559 24.6127 16.755 24.2959 17.6923 23.8659C17.7268 23.85 17.7618 23.835 17.7964 23.8186C18.0768 23.6868 18.3509 23.5445 18.6195 23.3932C18.6864 23.3555 18.7527 23.3173 18.8191 23.2782C19.0636 23.1341 19.3041 22.9836 19.5377 22.8236C19.6218 22.7664 19.7041 22.7059 19.7873 22.6459C19.9868 22.5023 20.1827 22.3541 20.3732 22.1991C20.4155 22.165 20.4609 22.1355 20.5023 22.1005L20.9182 21.7532L20.9059 21.7427C23.4195 19.4555 25 16.1591 25 12.5ZM0.909091 12.5C0.909091 6.10864 6.10864 0.909091 12.5 0.909091C18.8914 0.909091 24.0909 6.10864 24.0909 12.5C24.0909 15.9441 22.5795 19.0405 20.1868 21.165C20.0532 21.0727 19.9186 20.99 19.7809 20.9209L15.9323 18.9968C15.5868 18.8241 15.3723 18.4768 15.3723 18.0909V16.7468C15.4614 16.6368 15.5555 16.5123 15.6527 16.3755C16.1509 15.6718 16.5505 14.8891 16.8418 14.0468C17.4177 13.7732 17.7895 13.1995 17.7895 12.5518V10.9405C17.7895 10.5464 17.645 10.1641 17.3864 9.86364V7.74227C17.41 7.50636 17.4936 6.175 16.5305 5.07682C15.6927 4.12045 14.3368 3.63636 12.5 3.63636C10.6632 3.63636 9.30727 4.12045 8.46955 5.07636C7.50636 6.17455 7.59 7.50591 7.61364 7.74182V9.86318C7.35545 10.1636 7.21045 10.5459 7.21045 10.94V12.5514C7.21045 13.0518 7.435 13.5186 7.81955 13.8336C8.18773 15.2759 8.94545 16.3677 9.22545 16.7377V18.0532C9.22545 18.4241 9.02318 18.765 8.69727 18.9432L5.10318 20.9036C4.98864 20.9659 4.875 21.0386 4.76136 21.12C2.39818 18.9964 0.909091 15.9191 0.909091 12.5ZM19.2995 21.8782C19.1405 21.9936 18.9786 22.1055 18.8145 22.2123C18.7391 22.2614 18.6641 22.3105 18.5873 22.3582C18.3727 22.4909 18.1545 22.6173 17.9318 22.7355C17.8827 22.7614 17.8332 22.7859 17.7836 22.8114C17.2718 23.0736 16.7423 23.2991 16.1982 23.4823C16.1791 23.4886 16.16 23.4955 16.1405 23.5018C15.8555 23.5964 15.5668 23.6805 15.275 23.7527C15.2741 23.7527 15.2732 23.7532 15.2723 23.7532C14.9777 23.8259 14.6795 23.8864 14.3795 23.9359C14.3714 23.9373 14.3632 23.9391 14.355 23.9405C14.0727 23.9864 13.7882 24.0195 13.5027 24.0445C13.4523 24.0491 13.4018 24.0523 13.3509 24.0559C13.0686 24.0773 12.785 24.0909 12.5 24.0909C12.2118 24.0909 11.9245 24.0768 11.6386 24.0555C11.5891 24.0518 11.5395 24.0486 11.4905 24.0441C11.2023 24.0186 10.9155 23.9845 10.6314 23.9382C10.6186 23.9359 10.6059 23.9336 10.5932 23.9314C9.99227 23.8309 9.40091 23.6832 8.825 23.49C8.80727 23.4841 8.78909 23.4777 8.77136 23.4718C8.48546 23.3745 8.20273 23.2668 7.925 23.1477C7.92318 23.1468 7.92091 23.1459 7.91909 23.145C7.65636 23.0318 7.39864 22.9064 7.14409 22.7741C7.11091 22.7568 7.07727 22.7405 7.04455 22.7227C6.81227 22.5986 6.585 22.4645 6.36091 22.3245C6.29455 22.2827 6.22864 22.2405 6.16318 22.1977C5.95682 22.0627 5.75318 21.9223 5.555 21.7736C5.53455 21.7582 5.515 21.7418 5.49455 21.7264C5.50909 21.7182 5.52364 21.71 5.53818 21.7018L9.13227 19.7414C9.75045 19.4041 10.1345 18.7573 10.1345 18.0532L10.1341 16.4159L10.0295 16.2895C10.0195 16.2782 9.03682 15.0827 8.66545 13.4641L8.62409 13.2841L8.46909 13.1836C8.25045 13.0423 8.11955 12.8059 8.11955 12.5509V10.9395C8.11955 10.7282 8.20909 10.5314 8.37273 10.3836L8.52273 10.2482V7.71636L8.51864 7.65682C8.51727 7.64591 8.38318 6.55273 9.15318 5.675C9.81045 4.92591 10.9368 4.54545 12.5 4.54545C14.0573 4.54545 15.18 4.92273 15.8391 5.66636C16.6082 6.535 16.4823 7.64864 16.4814 7.65773L16.4773 10.2491L16.6273 10.3845C16.7905 10.5318 16.8805 10.7291 16.8805 10.9405V12.5518C16.8805 12.8759 16.66 13.17 16.3436 13.2677L16.1177 13.3373L16.045 13.5623C15.7768 14.3955 15.395 15.165 14.9105 15.8495C14.7914 16.0177 14.6755 16.1668 14.5759 16.2809L14.4632 16.4095V18.0909C14.4632 18.8236 14.8705 19.4827 15.5259 19.81L19.3745 21.7341C19.3991 21.7464 19.4232 21.7591 19.4473 21.7718C19.3986 21.8086 19.3486 21.8427 19.2995 21.8782Z" fill="black"/>
</svg>
