<?xml version="1.0" encoding="UTF-8" standalone="no"?>
<!-- Created with Inkscape (http://www.inkscape.org/) -->
<svg
   xmlns:i="http://ns.adobe.com/AdobeIllustrator/10.0/"
   xmlns:dc="http://purl.org/dc/elements/1.1/"
   xmlns:cc="http://creativecommons.org/ns#"
   xmlns:rdf="http://www.w3.org/1999/02/22-rdf-syntax-ns#"
   xmlns:svg="http://www.w3.org/2000/svg"
   xmlns="http://www.w3.org/2000/svg"
   xmlns:sodipodi="http://sodipodi.sourceforge.net/DTD/sodipodi-0.dtd"
   xmlns:inkscape="http://www.inkscape.org/namespaces/inkscape"
   version="1.0"
   width="1000"
   height="600"
   id="svg2"
   sodipodi:version="0.32"
   inkscape:version="0.46"
   sodipodi:docname="Flagge_der_Stadt_Bottrop.svg"
   inkscape:output_extension="org.inkscape.output.svg.inkscape">
  <metadata
     id="metadata3769">
    <rdf:RDF>
      <cc:Work
         rdf:about="">
        <dc:format>image/svg+xml</dc:format>
        <dc:type
           rdf:resource="http://purl.org/dc/dcmitype/StillImage" />
      </cc:Work>
    </rdf:RDF>
  </metadata>
  <sodipodi:namedview
     inkscape:window-height="667"
     inkscape:window-width="836"
     inkscape:pageshadow="2"
     inkscape:pageopacity="0.0"
     guidetolerance="10.0"
     gridtolerance="10.0"
     objecttolerance="10.0"
     borderopacity="1.0"
     bordercolor="#666666"
     pagecolor="#ffffff"
     id="base"
     showgrid="false"
     inkscape:zoom="0.544"
     inkscape:cx="671.36092"
     inkscape:cy="300"
     inkscape:window-x="22"
     inkscape:window-y="29"
     inkscape:current-layer="svg2" />
  <defs
     id="defs4">
    <inkscape:perspective
       sodipodi:type="inkscape:persp3d"
       inkscape:vp_x="0 : 300 : 1"
       inkscape:vp_y="0 : 1000 : 0"
       inkscape:vp_z="1000 : 300 : 1"
       inkscape:persp3d-origin="500 : 200 : 1"
       id="perspective3771" />
  </defs>
  <rect
     width="1000"
     height="300"
     rx="2.8429685"
     ry="2.8429685"
     x="0"
     y="300"
     style="overflow:visible;marker:none;opacity:1;color:black;fill:#1c46b1;fill-opacity:1;fill-rule:nonzero;stroke:none;stroke-width:8;stroke-linecap:butt;stroke-linejoin:miter;stroke-miterlimit:4;stroke-dasharray:none;stroke-dashoffset:0pt;stroke-opacity:1;visibility:visible;display:inline"
     id="rect1884" />
  <rect
     width="1000"
     height="300"
     rx="2.8429685"
     ry="2.8429685"
     x="0"
     y="3.1593651e-14"
     style="overflow:visible;marker:none;opacity:1;color:black;fill:#ffffff;fill-opacity:1;fill-rule:nonzero;stroke:none;stroke-width:8;stroke-linecap:butt;stroke-linejoin:miter;stroke-miterlimit:4;stroke-dasharray:none;stroke-dashoffset:0pt;stroke-opacity:1;visibility:visible;display:inline"
     id="rect1886" />
  <g
     id="Ebene_2"
     i:layer="yes"
     i:dimmedPercent="50"
     i:rgbTrio="#FFFF4F004F00"
     transform="matrix(0.6046266,0,0,0.6046266,200,150)">
<path
   i:knockout="Off"
   d="M 451.874,4 L 4,4 C 4,4 4,267.558 4,268.236 C 4,391.915 104.26,492.174 227.938,492.174 C 351.614,492.174 451.874,391.915 451.874,268.236 C 451.874,267.558 451.874,4 451.874,4 z"
   id="path3878"
   style="fill:#ffffff;stroke:#000000;stroke-width:8" />

<path
   i:knockout="Off"
   d="M 376.794,85.835 L 79.079,85.835 C 79.079,85.835 79.079,261.029 79.079,261.48 C 79.079,343.693 145.725,410.337 227.936,410.337 C 310.148,410.337 376.794,343.692 376.794,261.48 C 376.794,261.029 376.794,85.835 376.794,85.835 z"
   id="path3880"
   style="fill:#1c46b1;stroke:#000000;stroke-width:8" />

<path
   i:knockout="Off"
   d="M 79.437,199.756 L 40.437,199.756 L 40.437,168.756 L 4.437,168.756 L 4.437,289.756 L 40.437,289.756 L 40.437,258.756 L 79.437,258.756 L 79.437,199.756 z"
   id="path3882" />

<path
   i:knockout="Off"
   d="M 376.437,258.756 L 415.437,258.756 L 415.437,289.756 L 451.437,289.756 L 451.437,168.756 L 415.437,168.756 L 415.437,199.756 L 376.437,199.756 L 376.437,258.756 z"
   id="path3884" />

<path
   i:knockout="Off"
   d="M 257.437,85.756 L 257.437,43.636 L 288.437,43.636 L 288.437,4.756 L 167.437,4.756 L 167.437,43.636 L 198.437,43.636 L 198.437,85.756 L 257.437,85.756 z"
   id="path3886" />

<path
   i:knockout="Off"
   d="M 198.437,408.756 L 198.437,450.876 L 167.437,450.876 L 167.437,485.756 C 167.437,485.756 197.997,493.029 230.185,492.756 C 262.373,492.483 288.438,485.756 288.438,485.756 L 288.438,450.876 L 257.438,450.876 L 257.438,408.756 L 198.437,408.756 z"
   id="path3888" />

<path
   i:knockout="Off"
   d="M 184.237,288.578 L 247.437,255.756 L 247.437,354.759 L 271.636,354.759 L 209.169,387.089 L 209.169,288.578 L 184.237,288.578 L 184.237,288.578 z"
   id="path3890" />

<path
   i:knockout="Off"
   d="M 212.237,281.756 L 240.705,266.792 L 240.704,361.755 L 244.903,361.756 L 216.559,375.819 L 216.559,281.756 L 212.237,281.756 z"
   id="path3892"
   style="fill:#ffffff" />

<path
   i:knockout="Off"
   id="path3894"
   style="fill:none;stroke:#000000;stroke-width:0.25"
   d="" />

<path
   i:knockout="Off"
   id="path3896"
   style="fill:none;stroke:#000000;stroke-width:0.25"
   d="" />

<path
   i:knockout="Off"
   d="M 119.237,144.578 L 182.437,111.756 L 182.437,210.759 L 206.636,210.759 L 144.169,243.089 L 144.169,144.578 L 119.237,144.578 L 119.237,144.578 z"
   id="path3898" />

<path
   i:knockout="Off"
   d="M 147.237,137.756 L 175.705,122.792 L 175.704,217.755 L 179.903,217.756 L 151.559,231.819 L 151.559,137.756 L 147.237,137.756 L 147.237,137.756 z"
   id="path3900"
   style="fill:#ffffff" />

<path
   i:knockout="Off"
   d="M 249.237,144.578 L 312.437,111.756 L 312.437,210.759 L 336.636,210.759 L 274.169,243.089 L 274.169,144.578 L 249.237,144.578 L 249.237,144.578 z"
   id="path3902" />

<path
   i:knockout="Off"
   d="M 277.237,137.756 L 305.706,122.792 L 305.705,217.755 L 309.904,217.756 L 281.559,231.819 L 281.559,137.756 L 277.237,137.756 L 277.237,137.756 z"
   id="path3904"
   style="fill:#ffffff" />

</g>
</svg>
