<svg xmlns="http://www.w3.org/2000/svg" xmlns:xlink="http://www.w3.org/1999/xlink" height="300" width="500"><defs><clipPath id="d"><path d="M85 595c31-255 381-269 435-5 62 49 399-407-219-310-576-98-285 349-216 315"/></clipPath></defs><path fill="#da121a" d="M0-.002h500v150H0z"/><path fill="none" d="M0 149.998h500v150H0z"/><path d="M.251 150.248l.715 149.5 498.78-.255-.031-149.08" color="#000" fill="#fff" stroke="#000" stroke-width=".502"/><path d="M171.498 58.065v105.376a78.502 78.494 0 0 0 157.004 0V58.065z" fill="#fcdd09" stroke="#000" stroke-width=".269"/><g id="c" transform="matrix(.26884 0 0 .26881 167.654 150)"><g fill="#da121a" stroke="#000" stroke-linejoin="round"><path d="M228.5-202.2v187H114.1v-187z" stroke-width="6"/><g stroke-width="5"><path d="M106.6-188.3l7.3 8.54c39-10.2 76.97-9.51 114.7 0l5.62-8.54"/><path d="M106-226.6l16.97-4.3v16.2l18.34-3.96v-18.45l18.34-2.7v19.82h21.1v-19.82l18.34 2.7v18.45l18.34 4.45v-17.76l17.1 5.6.3 39.3c-33.1-13.1-94.2-13.8-128 0zM115.5-113.6c34-5.73 74-7 113 0 4.7.5 4.7-7.19-.1-8.19-37.83-7.32-79.6-7.09-113.2 0-5.95 1.2-5.95 8.39.25 8.19z"/></g></g><g id="b"><g id="a"><path d="M129-148.5l9.4-1.57-.2-15.7c-1.97-4.09-7.45-3.33-9.2.6zM154-152l9.5-.79-.2-16c-1.85-4.09-6.85-3.74-9.2.49z"/></g><use xlink:href="#a" transform="matrix(-1 0 0 1 342.7 0)" width="100%" height="100%"/></g><use xlink:href="#b" transform="translate(0 66.92)" width="100%" height="100%"/></g><use xlink:href="#c" transform="matrix(-1 0 0 1 500 0)" width="100%" height="100%"/><path d="M195.495 219.892c.886-29.462 25.013-52.903 54.494-52.93 29.492.016 53.634 23.454 54.521 52.93h.135c25.271-29.301 24.384-37.446 23.846-86.908h-12.098v10.126h-12.098l.005-10.126h-12.065v10.126h-12.098v-10.126h-12.098v10.126H255.94v-10.126H243.87v10.126h-12.098v-10.126h-12.098v10.126h-12.098v-10.126h-12.084v10.126h-12.09v-10.126h-12.093c.941 43.01-2.19 60.564 24.035 86.908" fill="#da121a" stroke="#000" stroke-width="1.613"/><path d="M172.573 154.032h155.122m-155.39-6.72h155.39" fill="none" stroke="#000" stroke-width="1.613"/><path d="M47.6 549h505m-512-16h518m-525-14h533m-539-14h545m-549-14h553m-559-14h563m-565-16h569m-569-14h575m-577-14h577m-578-16h578m-579-12h579m-578-14h578m-579-12h579" clip-path="url(#d)" transform="matrix(.26884 0 0 .26881 169.186 55.915)" fill="#0f47af" stroke="#000" stroke-width="3.7"/><g fill="none"><g stroke="#da121a"><path d="M85.1 580.5c15.84-129 117-181.5 215-182.5 98-.95 188 52.1 215 182.5" stroke-width="18" transform="matrix(.26884 0 0 .26881 169.347 55.915)"/><path d="M299.5 368v14.7" stroke-width="4" transform="matrix(.26884 0 0 .26881 169.347 55.915)"/></g><path d="M300 368v9" stroke="#000" stroke-width="3.8" transform="matrix(.26884 0 0 .26881 169.347 55.915)"/></g><g id="e"><path d="M256 377v19.11" fill="none" stroke="#da121a" stroke-width="4" transform="matrix(.26884 0 0 .26881 169.347 55.915)"/><path d="M80 386.7v45h20v-45c-2.3-8.9-17.3-8.7-20 0z" fill="#da121a" stroke="#000" stroke-width="5" transform="matrix(.26884 0 0 .26881 169.347 55.915)"/><path d="M213 377v30.41m-89-30.4l-.2 97.1M36 377.01v102.3m45-34.3v101.9m87-169.9v59" stroke="#da121a" transform="matrix(.26884 0 0 .26881 169.347 55.915)" stroke-width="4"/><path d="M213 368v9m-89 42v12m0 18v11.4m0-67.4v10m0-36v10m-43 58v9.469m0 76.5v10m0-38v10m0-40v12.5m-45-26.5v10m0-40v12.2m0 47.8v11m0-97.38v10.39m0-36v10m132 28v10m0-34v8.1m45 3.9v10m43-22v8.8" fill="none" stroke="#000" stroke-width="4" transform="matrix(.26884 0 0 .26881 169.347 55.915)"/></g><path d="M171.498 58.065v105.376a78.502 78.494 0 0 0 157.004 0V58.065z" fill="none" stroke="#000" stroke-width="2.151"/><path d="M221.454 177.755c-2.42 13.629.511 23.091 4.517 33.656 4.963 13.037 14.33 22.446 24.276 28.602 5.996-3.764 12.069-9.731 16.722-16.054l.697-.828-.06-.054c2.294-3.225 4.2-6.527 5.514-9.65 5.03-11.936 7.2-22.097 5.969-35.672"/><path d="M266.055 223.158c-1.578 2.212-3.266 4.35-5.135 6.312-3.495-3.326-7.127-6.592-10.538-9.946l-10.883 10.241c-1.793-1.983-3.592-3.967-5.27-6.05 5.34-4.995 10.676-9.974 16.024-14.979 5.274 4.81 10.538 9.618 15.821 14.43m-41.267-19.49c1.019 3.313 2.194 6.582 3.578 9.759 7.259-6.86 14.544-13.737 21.803-20.591 7.259 6.795 14.518 13.594 21.803 20.392 1.396-2.992 2.35-6.156 3.283-9.314l-25.244-24.758-25.218 24.516m-1.911-24.812c-.707 4.086-1.003 8.234-.772 12.366l12.896-12.366h-12.124zm54.52 0h-11.963l12.308 12.392c.126-4.018.298-8.064-.196-12.075l-.135-.322" fill="#fff"/><path d="M233.525 222.862l16.695-15.672 16.454 15.08c2.048-2.956 3.57-5.612 4.715-7.959l-21.292-19.946-21.32 20.15c1.404 3.076 2.985 5.941 4.732 8.36zm17.556-44.005l24.438 23.871c.94-3.293 1.868-6.887 2.096-10.054l-13.764-13.817m-13.55 42.231l-10.108 9.49c3.137 3.36 6.403 5.698 9.947 8.22a80.687 80.687 0 0 0 9.947-8.527zm-1.532-42.23l-24.384 23.628c-.904-3.226-1.91-6.478-2.21-9.844l14.383-13.79" fill="#da121a"/><path d="M191.339 215.698c3.177-30 28.497-52.768 58.661-52.768 30.003.038 55.193 22.567 58.554 52.365" fill="none" stroke="#000" stroke-width="1.613"/><use xlink:href="#e" transform="matrix(-1 0 0 1 500 0)" width="100%" height="100%"/></svg>