<svg width="21" height="35" viewBox="0 0 21 35" fill="none" xmlns="http://www.w3.org/2000/svg">
<path d="M8.35687 14.561C8.35687 13.3564 8.3558 12.2795 8.35687 11.2026C8.35793 10.4684 8.5101 10.1917 8.91873 10.1779C9.34757 10.1619 9.50826 10.445 9.50826 11.2175C9.50826 13.6831 9.50826 16.1476 9.50826 18.6132C9.50826 18.8027 9.50826 18.991 9.50826 19.2666C9.6998 19.156 9.82005 19.1006 9.9254 19.0229C10.7959 18.3813 11.6642 17.7375 12.5315 17.0915C12.8454 16.8574 13.1625 16.8095 13.4136 17.1533C13.6637 17.4948 13.5232 17.7907 13.2146 18.0216C12.1207 18.8378 11.0321 19.6604 9.9254 20.4585C9.62106 20.6777 9.4625 20.9118 9.50613 21.2949C9.68916 22.8783 8.81231 24.0786 7.98974 25.2705C7.5162 25.9579 6.45952 26.043 5.79443 25.4971C2.02953 22.4048 -0.247719 18.5707 0.021507 13.5426C0.184319 10.5141 1.3687 7.84315 3.12558 5.41054C4.58238 3.39294 6.37119 1.71055 8.38879 0.265452C8.96236 -0.145303 9.21562 -0.094225 9.57955 0.522973C11.7397 4.18678 13.9085 7.84528 16.0527 11.5176C18.6215 15.9178 17.6563 21.0831 13.6616 24.4404C13.0784 24.931 12.5112 25.4407 11.9164 25.9175C11.6269 26.1494 11.5142 26.4038 11.5163 26.7773C11.5312 29.2067 11.5237 31.6361 11.5237 34.0666C11.5237 34.2262 11.5759 34.4273 11.4993 34.5359C11.362 34.7317 11.1502 34.9924 10.9608 34.9998C10.7746 35.0073 10.5511 34.7562 10.3947 34.5742C10.3213 34.4891 10.3585 34.3018 10.3585 34.1602C10.3574 31.6414 10.3649 29.1237 10.3521 26.6049C10.3489 25.9919 10.5458 25.5163 11.031 25.1268C11.7632 24.5394 12.4687 23.9179 13.1827 23.3071C16.4571 20.5021 17.2807 15.9604 15.1311 12.2263C13.0891 8.67849 10.9863 5.16685 8.90915 1.63925C8.87403 1.57859 8.83041 1.52326 8.72931 1.37747C8.05997 1.9404 7.38212 2.46714 6.75215 3.04816C4.26846 5.34137 2.36579 8.01873 1.53151 11.342C0.460994 15.6092 1.63473 19.3294 4.44192 22.5974C5.01549 23.2656 5.69972 23.8424 6.35736 24.4341C6.75747 24.7937 7.00754 24.7214 7.30869 24.284C8.09615 23.1433 8.53458 21.9333 8.42284 20.501C8.32175 19.2145 8.38666 17.913 8.41114 16.6191C8.41859 16.2413 8.29621 15.9944 8.01315 15.7624C6.95753 14.8973 5.91681 14.0141 4.87076 13.1372C4.77606 13.0574 4.68135 12.9765 4.5909 12.8925C4.31529 12.6371 4.25037 12.3412 4.50789 12.0507C4.76754 11.7581 5.07082 11.8017 5.35282 12.0401C6.22115 12.7701 7.08735 13.5033 7.95462 14.2343C8.04614 14.312 8.14191 14.3865 8.35687 14.561Z" fill="black"/>
<path d="M9.05836 30.6847C9.46805 31.685 9.43293 32.7662 9.17329 33.8122C9.00941 34.4731 8.42839 34.8487 7.72287 34.8636C6.55445 34.8891 5.38391 34.871 4.21442 34.8742C3.75046 34.8753 3.53231 34.6348 3.53231 34.1836C3.53125 31.7563 3.53125 29.328 3.53125 26.9007C3.53125 26.4474 3.75897 26.2005 4.21123 26.1983C5.36262 26.192 6.51508 26.1728 7.66647 26.2079C8.62632 26.2367 9.27119 26.9145 9.30737 27.8839C9.33291 28.5565 9.33503 29.2311 9.30417 29.9037C9.29353 30.1463 9.15732 30.3836 9.05836 30.6847ZM8.16555 29.9547C8.16555 29.2801 8.20492 28.6075 8.14214 27.9446C8.12192 27.735 7.83673 27.3923 7.6569 27.3817C6.69279 27.3253 5.72336 27.3551 4.72627 27.3551C4.72627 28.2404 4.72627 29.0768 4.72627 29.9547C5.86915 29.9547 6.97798 29.9547 8.16555 29.9547ZM4.71882 33.7079C5.72124 33.7079 6.69173 33.7367 7.65796 33.6824C7.83673 33.6718 8.10915 33.3429 8.1432 33.1301C8.21769 32.664 8.21876 32.1692 8.1432 31.7031C8.10915 31.4913 7.83035 31.1668 7.64732 31.1561C6.68215 31.1019 5.71272 31.1306 4.71882 31.1306C4.71882 31.9989 4.71882 32.8077 4.71882 33.7079Z" fill="black"/>
<path d="M20.8825 30.8529C20.8676 33.1057 19.066 34.8818 16.8047 34.8732C14.5796 34.8647 12.7685 33.0185 12.7897 30.7785C12.811 28.5523 14.6552 26.7603 16.9058 26.7805C19.1107 26.7997 20.8974 28.6289 20.8825 30.8529ZM16.8292 33.7123C18.4371 33.7155 19.7077 32.4672 19.7215 30.87C19.7353 29.2365 18.4775 27.9521 16.8558 27.9447C15.2458 27.9372 13.9465 29.2333 13.9507 30.8434C13.955 32.4247 15.2426 33.708 16.8292 33.7123Z" fill="black"/>
</svg>
