<svg width="50" height="38" viewBox="0 0 50 38" fill="none" xmlns="http://www.w3.org/2000/svg">
<path d="M0 33.5111C0 23.8962 0 14.2815 0 4.66654C0.0302343 4.63456 0.0725624 4.60715 0.0872021 4.56969C0.105024 4.524 0.0824283 4.45973 0.107571 4.42105C0.229144 4.23311 0.3504 4.04366 0.491069 3.86883C0.683932 3.62881 0.958269 3.47956 1.24438 3.37661C1.4487 3.3032 1.68166 3.28523 1.90317 3.27579C2.26853 3.26026 2.63484 3.27244 3.00083 3.27061C3.06735 3.27031 3.13387 3.25873 3.21407 3.25112C3.21407 2.82043 3.20261 2.40436 3.21948 1.98921C3.2268 1.81011 3.26403 1.62126 3.33882 1.45831C3.43589 1.24662 3.56478 1.04193 3.715 0.861009C3.86172 0.684042 4.0374 0.520783 4.22803 0.388591C4.37411 0.287467 4.56443 0.246043 4.73374 0.175074C5.0068 0.0605485 5.29164 0.00511333 5.58953 0.00541791C6.66619 0.00633168 7.74285 0.00419956 8.81951 0.00724545C8.999 0.00785463 9.17118 0.00450414 9.35386 0.0769963C9.70935 0.218021 9.90731 0.556724 9.78032 0.90822C9.6457 1.28012 9.46939 1.40531 9.06297 1.40592C7.93317 1.40775 6.80367 1.40988 5.67387 1.4044C5.43295 1.40318 5.21049 1.44947 5.02335 1.58867C4.83144 1.73152 4.67072 1.90392 4.67486 2.16221C4.67613 2.24841 4.672 2.33461 4.672 2.42111C4.67168 10.1875 4.67168 17.9536 4.672 25.72C4.672 25.8267 4.65608 25.9384 4.68473 26.038C4.71369 26.1386 4.77129 26.2436 4.84704 26.317C4.99789 26.4632 5.19171 26.5129 5.41162 26.5126C10.6622 26.5083 15.9131 26.5083 21.1637 26.5083C21.4024 26.5083 21.6411 26.5129 21.8795 26.5184C21.9533 26.5202 22.0294 26.5232 22.1003 26.5409C22.4313 26.6238 22.7636 26.7036 23.0901 26.8013C23.2648 26.8537 23.4357 26.9274 23.5949 27.0139C23.7753 27.1123 23.9389 27.239 24.1152 27.3447C24.1343 27.356 24.2043 27.3194 24.2253 27.289C24.2454 27.2604 24.233 27.2104 24.233 27.1699C24.233 19.5509 24.233 11.9316 24.2333 4.31261C24.2333 3.96355 24.2212 3.61206 24.0856 3.28584C23.9341 2.92125 23.7253 2.59168 23.4399 2.2944C23.0646 1.90392 22.6044 1.66847 22.0987 1.51344C21.8254 1.42968 21.5211 1.41171 21.2305 1.41079C18.2179 1.40379 15.2053 1.40653 12.193 1.40622C12.0921 1.40622 11.9906 1.41079 11.891 1.39891C11.8289 1.3916 11.7701 1.3581 11.7102 1.33495C11.5594 1.27616 11.4563 1.17595 11.3815 1.03462C11.3251 0.928323 11.2831 0.501594 11.3551 0.406257C11.5374 0.164718 11.7627 0.00267661 12.0982 0.0029812C15.1744 0.00633168 18.2507 0.00206743 21.3266 0.00937757C21.6497 0.00998675 21.9724 0.0706 22.2951 0.103191C22.3056 0.104409 22.3167 0.104409 22.3263 0.108064C22.5573 0.192436 22.7913 0.270715 23.0188 0.36331C23.2448 0.455296 23.4847 0.534185 23.6824 0.667899C23.972 0.864359 24.2365 1.09707 24.4974 1.32886C24.6397 1.45496 24.7686 1.60177 24.8733 1.75741C24.9261 1.83569 24.9573 1.87407 25.0534 1.83783C25.0681 1.79336 25.0693 1.73366 25.1012 1.70046C25.2647 1.52806 25.4239 1.34805 25.6078 1.19728C25.8799 0.974316 26.1625 0.759885 26.4588 0.567689C26.6428 0.44829 26.856 0.365747 27.0645 0.286554C27.2147 0.229596 27.378 0.201573 27.5371 0.168373C27.8102 0.11172 28.0835 0.0532384 28.3595 0.0112051C28.4941 -0.00920236 28.6348 0.00450415 28.7726 0.00450415C33.9436 0.00419956 39.1149 0.00480874 44.2859 0.0029812C44.6163 0.0029812 44.9285 0.060244 45.2391 0.170201C45.4975 0.261882 45.7356 0.378844 45.9386 0.552155C46.409 0.953908 46.7235 1.43729 46.7496 2.05926C46.7569 2.23166 46.7547 2.40436 46.7553 2.57706C46.7562 2.7988 46.7556 3.02085 46.7556 3.25417C46.8403 3.26026 46.9077 3.26909 46.9749 3.26939C47.2772 3.27092 47.5796 3.27396 47.8819 3.26909C48.2902 3.26239 48.6734 3.3297 49.035 3.53012C49.2511 3.64983 49.4283 3.8006 49.576 3.98457C49.7227 4.16732 49.8538 4.36104 49.8815 4.60136C49.8841 4.62512 49.9359 4.6437 49.9652 4.66441C49.9652 14.2794 49.9652 23.894 49.9652 33.509C49.9347 33.541 49.8809 33.5708 49.8771 33.6056C49.8538 33.8124 49.738 33.9811 49.6199 34.1389C49.415 34.4124 49.1594 34.6308 48.8119 34.745C48.5722 34.8239 48.3386 34.908 48.0815 34.9077C47.0048 34.9077 45.9281 34.9107 44.8512 34.9055C44.6188 34.9043 44.3875 34.9363 44.1536 34.8352C44.0148 34.7752 43.8961 34.6969 43.8299 34.5921C43.6816 34.3576 43.651 34.1036 43.8067 33.8453C43.9292 33.6418 44.0905 33.5145 44.3423 33.5099C44.4273 33.5084 44.5119 33.5069 44.5969 33.5069C45.7372 33.5066 46.8775 33.5063 48.0181 33.5072C48.1852 33.5072 48.3364 33.4627 48.4182 33.3195C48.4688 33.2309 48.4981 33.1188 48.4981 33.0174C48.5016 23.7329 48.5012 14.4484 48.5012 5.16394C48.5012 5.10302 48.506 5.04119 48.4965 4.98149C48.4901 4.94068 48.4704 4.89651 48.4433 4.86453C48.3249 4.72472 48.1741 4.66045 47.9809 4.66594C47.6735 4.67477 47.3657 4.66837 47.058 4.66837C46.7559 4.66837 46.7559 4.66837 46.7559 4.95743C46.7559 12.6124 46.7559 20.2676 46.7553 27.9225C46.7553 28.161 46.761 28.4007 46.7394 28.6377C46.7238 28.8092 46.6837 28.9831 46.6239 29.1455C46.5557 29.3297 46.4685 29.5113 46.3623 29.6779C46.1996 29.9328 46.044 30.2027 45.8295 30.4147C45.5262 30.7144 45.1602 30.9441 44.7506 31.1119C44.3674 31.2691 43.9814 31.3833 43.5613 31.376C43.3916 31.3729 43.2217 31.379 43.0521 31.379C31.2346 31.3793 19.4171 31.3808 7.59963 31.3744C6.97585 31.3741 6.34157 31.4692 5.72765 31.2785C5.50233 31.2084 5.27286 31.1426 5.06091 31.0443C4.87823 30.9596 4.71114 30.8393 4.54851 30.7208C4.3652 30.5874 4.16724 30.4595 4.02403 30.2913C3.75606 29.9773 3.52564 29.6395 3.39388 29.2414C3.30286 28.9667 3.20229 28.7005 3.21057 28.4074C3.21534 28.235 3.20738 28.0623 3.20738 27.8896C3.20706 20.2548 3.20706 12.6203 3.20706 4.98545C3.20706 4.92971 3.20356 4.87367 3.2077 4.81793C3.21598 4.70523 3.16124 4.66563 3.04698 4.66685C2.65457 4.6702 2.26121 4.65649 1.86975 4.67599C1.76186 4.68147 1.65716 4.7762 1.55468 4.83559C1.4086 4.91996 1.46557 5.0616 1.46557 5.17917C1.46366 14.4557 1.46398 23.7302 1.46398 33.0046C1.46398 33.0655 1.45793 33.1277 1.46843 33.187C1.47671 33.2324 1.49899 33.2799 1.52795 33.3171C1.64284 33.4651 1.80451 33.5099 1.99133 33.5099C7.84183 33.5087 13.692 33.5093 19.5425 33.5084C19.8293 33.5084 20.0966 33.5328 20.3604 33.6823C20.5994 33.8179 20.7589 34.0058 20.8642 34.2239C20.9486 34.3984 20.9562 34.6107 20.9775 34.8081C21.0039 35.052 21.095 35.2689 21.2464 35.4599C21.5144 35.7977 21.8871 35.9396 22.3199 35.9402C24.0862 35.9427 25.8526 35.9405 27.6186 35.9421C27.8754 35.9424 28.1096 35.8833 28.3381 35.7669C28.7589 35.5525 28.9578 35.2056 28.9797 34.7724C28.9957 34.4599 29.0822 34.1818 29.2843 33.9458C29.5058 33.6872 29.7935 33.5257 30.1551 33.5133C30.2505 33.5099 30.346 33.509 30.4415 33.509C34.0642 33.5087 37.6869 33.5087 41.3096 33.509C41.4264 33.509 41.5432 33.5081 41.6594 33.5169C41.7144 33.5212 41.773 33.5389 41.8211 33.5653C41.9977 33.6628 42.1247 33.7901 42.1906 33.9902C42.2583 34.1958 42.1842 34.5979 41.9948 34.7136C41.8 34.8327 41.5941 34.9138 41.3481 34.9135C37.7945 34.9083 34.2408 34.9098 30.6869 34.9098C30.6137 34.9098 30.5408 34.9098 30.467 34.9098C30.4199 35.12 30.4011 35.3243 30.3263 35.5074C30.2324 35.7374 30.087 35.9475 29.9743 36.1711C29.8451 36.4273 29.6223 36.6018 29.4033 36.7751C29.1729 36.9573 28.9075 37.0824 28.6192 37.1766C28.3617 37.2609 28.1007 37.3343 27.8356 37.3356C25.9315 37.345 24.0274 37.3435 22.1232 37.3362C21.9075 37.3352 21.6917 37.2768 21.4762 37.2442C21.4613 37.242 21.4473 37.232 21.4329 37.2259C21.3126 37.1747 21.1869 37.1327 21.0733 37.0706C20.8782 36.9636 20.6764 36.8607 20.503 36.7258C20.2933 36.5625 20.0886 36.3874 19.9702 36.1419C19.8569 35.907 19.7198 35.6816 19.6217 35.4413C19.5549 35.2771 19.5374 35.0947 19.4951 34.9098C19.4177 34.9098 19.3442 34.9098 19.2707 34.9098C13.5688 34.9098 7.86697 34.9092 2.16509 34.9113C1.73227 34.9116 1.3214 34.8638 0.934718 34.6491C0.71353 34.526 0.531169 34.3768 0.383498 34.1846C0.243784 34.0027 0.103115 33.8188 0.0827465 33.5794C0.080837 33.5547 0.0289613 33.5337 0 33.5111ZM45.2926 14.0576C45.2926 10.1948 45.2926 6.33204 45.2923 2.46893C45.2923 2.3471 45.3018 2.22313 45.2811 2.10434C45.2624 1.99499 45.2366 1.86798 45.1653 1.78879C44.9431 1.54207 44.665 1.40409 44.3057 1.4044C39.1079 1.40896 33.9102 1.40775 28.7124 1.40653C28.3763 1.40653 28.0571 1.47476 27.7376 1.57009C27.5078 1.63862 27.3038 1.74218 27.0954 1.85306C26.7895 2.01601 26.5511 2.24019 26.3459 2.5C26.2287 2.64803 26.125 2.80977 26.0435 2.9779C25.9366 3.19903 25.829 3.42687 25.7746 3.66292C25.724 3.88284 25.7335 4.11737 25.7335 4.34551C25.7319 11.9444 25.7319 19.5433 25.7323 27.1422C25.7323 27.193 25.7205 27.25 25.7409 27.292C25.7555 27.3219 25.8233 27.3551 25.8529 27.3456C25.9191 27.3246 25.976 27.2774 26.0372 27.2415C26.2281 27.1291 26.4105 26.9984 26.6126 26.9098C26.8277 26.8153 27.0635 26.7645 27.2876 26.6874C27.6262 26.5708 27.9744 26.5135 28.3337 26.512C28.5192 26.5111 28.7051 26.5086 28.8906 26.5086C34.0884 26.5092 39.2861 26.5102 44.4839 26.5095C44.6383 26.5095 44.784 26.5077 44.9387 26.434C45.157 26.3301 45.2627 26.1824 45.2862 25.9655C45.2967 25.8699 45.2923 25.7727 45.2923 25.6765C45.2929 21.8036 45.2926 17.9308 45.2926 14.0576ZM24.2037 29.98C24.1945 29.8947 24.2011 29.8305 24.1789 29.7775C24.0923 29.5716 24.0102 29.362 23.9007 29.1671C23.746 28.8908 23.5153 28.6712 23.2562 28.4821C23.014 28.3054 22.7499 28.1711 22.4568 28.0785C22.1675 27.9871 21.882 27.9073 21.5739 27.9079C19.9674 27.9097 18.3605 27.9067 16.7539 27.907C12.9785 27.9073 9.20301 27.9088 5.42754 27.907C5.23022 27.907 5.0259 27.9429 4.8394 27.8333C4.80248 27.8117 4.73979 27.8302 4.67295 27.8302C4.67295 27.9621 4.68409 28.084 4.67072 28.2034C4.64367 28.4446 4.69937 28.6791 4.80025 28.8856C4.92374 29.1384 5.09019 29.3751 5.32951 29.5563C5.66687 29.8119 6.03127 29.9855 6.47205 29.9782C6.55671 29.9767 6.64168 29.9803 6.72666 29.9803C12.4747 29.9803 18.223 29.9803 23.971 29.9803C24.0388 29.98 24.1066 29.98 24.2037 29.98ZM45.2748 27.8287C45.22 27.8287 45.1646 27.8129 45.1277 27.8312C44.8824 27.9527 44.6192 27.9064 44.3639 27.9064C39.1455 27.9085 33.9274 27.907 28.7089 27.9067C28.5234 27.9067 28.3359 27.8972 28.1526 27.918C27.9623 27.9396 27.7666 27.9707 27.5896 28.0374C27.3382 28.1321 27.0826 28.2378 26.8637 28.3858C26.6126 28.5558 26.3605 28.7495 26.1804 28.9834C26.0018 29.2152 25.9086 29.5085 25.7864 29.7781C25.7619 29.832 25.7749 29.9018 25.7692 29.9797C25.865 29.9797 25.9382 29.9797 26.0117 29.9797C31.739 29.9797 37.4667 29.9797 43.194 29.9794C43.3691 29.9794 43.5441 29.9752 43.7188 29.9703C43.7659 29.9691 43.8187 29.9703 43.8592 29.9511C44.095 29.8393 44.3407 29.74 44.5593 29.6023C44.9403 29.3626 45.1608 28.995 45.2636 28.5847C45.3228 28.3511 45.2748 28.0925 45.2748 27.8287Z" fill="white"/>
<path d="M14.0513 7.65763C15.7804 7.65763 17.5092 7.64941 19.2382 7.6622C19.8277 7.66646 20.3146 7.90892 20.7013 8.34874C20.9922 8.67953 21.1077 9.05387 21.1077 9.47268C21.1083 11.2137 21.1093 12.9547 21.107 14.6958C21.1067 14.9528 21.0918 15.2169 20.9603 15.4441C20.8502 15.6348 20.6943 15.802 20.5504 15.9735C20.3728 16.1855 20.1189 16.2991 19.869 16.403C19.7096 16.4694 19.5244 16.4828 19.349 16.509C19.2558 16.523 19.1584 16.5145 19.0629 16.5145C15.7164 16.5148 12.37 16.5126 9.02351 16.5172C8.67693 16.5178 8.34308 16.4569 8.03755 16.3226C7.7508 16.1962 7.49302 16.0095 7.31638 15.7408C7.17094 15.5197 7.03282 15.3004 7.01531 15.0287C7.00068 14.8045 6.94848 14.5812 6.94753 14.3577C6.94148 12.7638 6.94084 11.1702 6.94848 9.57624C6.94944 9.35785 6.96503 9.12392 7.04714 8.92472C7.19449 8.56744 7.38863 8.23026 7.75271 8.01065C7.96849 7.88029 8.19159 7.79561 8.43442 7.72251C8.65115 7.65733 8.85897 7.65946 9.07157 7.65885C10.7313 7.65611 12.3913 7.65763 14.0513 7.65763ZM14.0408 9.05874C12.3331 9.05874 10.6253 9.05874 8.91753 9.05874C8.62601 9.05874 8.40832 9.26799 8.408 9.55065C8.40737 11.2359 8.41119 12.9209 8.40355 14.6062C8.40259 14.8459 8.66102 15.1201 8.92835 15.1195C12.3385 15.1109 15.7489 15.1134 19.159 15.1143C19.3904 15.1143 19.665 14.9675 19.6443 14.6714C19.6399 14.6056 19.6453 14.5395 19.6453 14.4734C19.6453 13.1841 19.6453 11.8948 19.6453 10.6057C19.6453 10.2454 19.6345 9.88479 19.6475 9.52476C19.658 9.23906 19.4187 9.05174 19.1479 9.05356C17.4458 9.06392 15.7432 9.05874 14.0408 9.05874Z" fill="white"/>
<path d="M14.0424 18.9478C16.147 18.9478 18.252 18.9493 20.3566 18.9453C20.5577 18.945 20.727 18.9867 20.8811 19.1156C21.0628 19.2673 21.0953 19.4601 21.1054 19.6736C21.1182 19.9355 20.9473 20.0961 20.7697 20.2423C20.6895 20.3084 20.5564 20.3193 20.4447 20.3452C20.3897 20.358 20.3286 20.3489 20.2703 20.3489C16.119 20.3489 11.968 20.3473 7.81666 20.3528C7.57224 20.3531 7.3762 20.2663 7.19129 20.1402C7.00829 20.0153 6.94018 19.669 7.00256 19.4473C7.0433 19.3032 7.10409 19.1826 7.22661 19.1007C7.3205 19.0379 7.42839 18.9825 7.53819 18.9566C7.64353 18.9319 7.75938 18.9481 7.87076 18.9481C9.92829 18.9478 11.9855 18.9478 14.0424 18.9478Z" fill="white"/>
<path d="M14.0519 22.3074C16.1415 22.3074 18.2312 22.3093 20.3209 22.3047C20.5459 22.3041 20.7397 22.351 20.9004 22.5039C21.009 22.6075 21.0777 22.7256 21.0939 22.8776C21.1334 23.2477 21.037 23.4713 20.6449 23.6348C20.5488 23.675 20.4386 23.7049 20.3352 23.7049C16.14 23.7082 11.9447 23.7064 7.74946 23.7113C7.51681 23.7116 7.33668 23.6086 7.1645 23.4969C7.00347 23.3924 6.93377 23.0062 7.00601 22.8225C7.16737 22.4122 7.32268 22.3074 7.78288 22.3074C9.87254 22.3071 11.9622 22.3074 14.0519 22.3074Z" fill="white"/>
<path d="M12.1891 4.4806C13.6897 4.4806 15.1906 4.48334 16.6911 4.47847C17.0158 4.47725 17.2118 4.66122 17.3598 4.89027C17.4909 5.09343 17.3544 5.53509 17.1453 5.70078C16.996 5.81957 16.8302 5.88323 16.6284 5.88323C13.6642 5.87988 10.7 5.87897 7.73574 5.88415C7.4178 5.88476 7.08904 5.67489 7.01107 5.37457C6.93819 5.09282 7.00343 4.76082 7.24594 4.60792C7.36593 4.53207 7.51391 4.4739 7.68705 4.47512C9.18762 4.48486 10.6885 4.4806 12.1891 4.4806Z" fill="white"/>
<path d="M30.2631 7.44942C30.2631 7.26179 30.2421 7.07142 30.2692 6.88745C30.2947 6.71353 30.3682 6.5457 30.4258 6.37696C30.457 6.28558 30.5018 6.19877 30.5365 6.10861C30.7211 5.63224 31.0636 5.26825 31.4547 4.94204C31.6068 4.81533 31.7663 4.69045 31.9413 4.59663C32.1119 4.50495 32.3054 4.45195 32.4906 4.38616C32.6377 4.33377 32.7869 4.28565 32.9362 4.23874C32.9807 4.22473 33.0285 4.21316 33.0749 4.21285C33.446 4.21041 33.8181 4.19336 34.1872 4.21742C34.3772 4.22991 34.5621 4.31611 34.7483 4.37124C34.8651 4.40596 34.9816 4.4419 35.0959 4.48333C35.1656 4.50861 35.2343 4.53968 35.2967 4.57836C35.4183 4.6539 35.5363 4.73492 35.6538 4.81655C35.817 4.92985 35.9141 4.79005 36.0315 4.72852C36.1302 4.67674 36.2282 4.62313 36.3269 4.57105C36.3861 4.53998 36.443 4.50221 36.5057 4.48089C36.7587 4.39469 37.0134 4.31337 37.2676 4.23052C37.2826 4.22564 37.2972 4.2162 37.3119 4.2162C37.7304 4.2162 38.1565 4.17082 38.5652 4.23174C38.9197 4.28473 39.272 4.42667 39.5938 4.58719C39.9649 4.77208 40.2981 5.03006 40.559 5.34836C40.7284 5.55487 40.8471 5.79885 40.9954 6.02211C41.1052 6.1875 41.1408 6.37391 41.201 6.55606C41.3248 6.93161 41.3989 7.31174 41.3579 7.70131C41.3346 7.92305 41.2519 8.13931 41.1917 8.35709C41.165 8.45365 41.1255 8.54655 41.0959 8.64219C40.9581 9.0878 40.659 9.43899 40.3519 9.78044C40.1183 10.0403 39.8672 10.2882 39.6014 10.5178C39.3188 10.7621 39.0095 10.9784 38.7122 11.2071C38.5209 11.3546 38.3376 11.5126 38.1374 11.6479C37.879 11.8224 37.6063 11.9774 37.3421 12.1444C37.1868 12.2424 37.0401 12.3536 36.8819 12.4477C36.6216 12.6025 36.3472 12.7374 36.0939 12.9016C35.9357 13.0042 35.7683 13.0009 35.613 12.9658C35.4584 12.9311 35.3142 12.84 35.1757 12.7578C34.8954 12.5912 34.6191 12.4179 34.346 12.2403C34.0758 12.0646 33.8117 11.8809 33.5453 11.6997C33.3063 11.537 33.0609 11.3817 32.8315 11.2074C32.2561 10.7713 31.6857 10.3284 31.2198 9.77922C31.0346 9.56113 30.8427 9.34548 30.6858 9.10943C30.5763 8.94464 30.5305 8.7424 30.4391 8.56512C30.2568 8.21028 30.2447 7.83107 30.2631 7.44942ZM35.7591 11.4499C35.8333 11.4188 35.9045 11.4008 35.9612 11.3634C36.3157 11.1282 36.668 10.8897 37.0194 10.65C37.3593 10.4182 37.7014 10.1892 38.0334 9.94735C38.1973 9.82765 38.3363 9.67718 38.4932 9.54803C38.9894 9.14019 39.4964 8.74057 39.7297 8.12621C39.8006 7.9395 39.8735 7.74609 39.8932 7.55084C39.9095 7.38819 39.8299 7.21854 39.8274 7.05162C39.8242 6.82379 39.7096 6.62824 39.595 6.46255C39.4611 6.26883 39.307 6.07724 39.0757 5.93713C38.8548 5.80372 38.6285 5.67092 38.3898 5.62889C37.9942 5.55944 37.5767 5.54939 37.1938 5.70991C36.8784 5.8421 36.6238 6.05683 36.3918 6.30751C36.0481 6.67911 35.6146 6.7315 35.2123 6.33431C35.0745 6.19816 34.9485 6.05866 34.7827 5.94079C34.5641 5.78545 34.3257 5.66209 34.0829 5.62889C33.6529 5.5698 33.2175 5.55914 32.7942 5.76717C32.482 5.92068 32.2284 6.12841 32.032 6.38031C31.8118 6.66266 31.6994 7.00167 31.6994 7.37296C31.6998 7.72537 31.7446 8.0656 31.9324 8.36623C32.054 8.56086 32.2319 8.72321 32.3853 8.89956C32.8557 9.44143 33.4097 9.89222 34.0144 10.2906C34.2547 10.4487 34.4784 10.6296 34.7155 10.7926C34.888 10.9108 35.0701 11.0162 35.2477 11.1276C35.4198 11.2358 35.5914 11.3442 35.7591 11.4499Z" fill="white"/>
<path d="M35.6109 19.0371C37.7006 19.0371 39.7902 19.0374 41.8802 19.0368C42.0626 19.0368 42.2567 19.0204 42.3968 19.1477C42.5002 19.2415 42.6014 19.3652 42.637 19.4928C42.6781 19.6393 42.6743 19.8114 42.6358 19.9594C42.6071 20.0706 42.51 20.1818 42.4127 20.2564C42.2491 20.3816 42.0457 20.4373 41.8347 20.4373C37.6872 20.4385 33.5394 20.4376 29.3919 20.4392C29.0682 20.4392 28.7989 20.3179 28.6357 20.0639C28.5463 19.925 28.4791 19.7544 28.5577 19.5498C28.6331 19.3533 28.7337 19.2056 28.9138 19.1017C28.9613 19.0743 29.0176 19.0521 29.0717 19.0475C29.1875 19.0371 29.3047 19.0377 29.4211 19.0377C31.4847 19.0368 33.548 19.0368 35.6109 19.0371Z" fill="white"/>
<path d="M35.6124 15.6661C37.6537 15.6661 39.695 15.6658 41.7363 15.6667C41.8737 15.6667 42.0119 15.674 42.149 15.6843C42.388 15.7023 42.6363 15.9454 42.6506 16.1723C42.6557 16.2533 42.6586 16.3346 42.6557 16.4157C42.6449 16.7379 42.46 16.9496 42.1229 17.0044C41.9167 17.0379 41.7063 17.0641 41.4979 17.0644C37.4844 17.0678 33.4705 17.0681 29.457 17.0647C29.1454 17.0644 28.8399 17.0114 28.6633 16.7202C28.5656 16.5591 28.4939 16.4013 28.557 16.189C28.6193 15.9786 28.753 15.8494 28.9121 15.7249C28.9449 15.6993 28.9987 15.6913 29.0439 15.688C29.1865 15.6773 29.3294 15.6673 29.4723 15.667C31.5193 15.6658 33.566 15.6661 35.6124 15.6661Z" fill="white"/>
<path d="M37.3803 22.3073C38.8595 22.3073 40.3388 22.31 41.818 22.3042C42.0236 22.3033 42.1952 22.3606 42.3489 22.479C42.5134 22.6055 42.5488 22.7782 42.5682 22.9737C42.5962 23.2524 42.4603 23.4409 42.2534 23.5899C42.1599 23.6572 42.0243 23.6736 41.9053 23.7044C41.8556 23.7172 41.7999 23.7081 41.7468 23.7081C38.8306 23.7081 35.9144 23.7059 32.9982 23.712C32.7528 23.7126 32.5495 23.6362 32.3684 23.5009C32.2927 23.4443 32.2525 23.3401 32.2067 23.2524C32.1768 23.1951 32.1641 23.1293 32.1463 23.0669C32.1367 23.0337 32.1163 22.9914 32.1291 22.9664C32.2118 22.804 32.2201 22.6088 32.3904 22.4842C32.5288 22.3828 32.666 22.3066 32.8467 22.307C34.0555 22.3088 35.2645 22.3073 36.4733 22.3066C36.7756 22.3073 37.0779 22.3073 37.3803 22.3073Z" fill="white"/>
</svg>
