<svg width="20" height="21" viewBox="0 0 20 21" fill="none" xmlns="http://www.w3.org/2000/svg">
<path d="M4.00232 8.79114C5.59441 11.9848 8.15943 14.5917 11.2883 16.2281L13.7207 13.7453C14.0192 13.4406 14.4614 13.3391 14.8484 13.4745C16.0867 13.892 17.4245 14.1177 18.7954 14.1177C19.4035 14.1177 19.901 14.6256 19.901 15.2462V19.1848C19.901 19.8055 19.4035 20.3133 18.7954 20.3133C8.41372 20.3133 0 11.7253 0 1.12852C0 0.507832 0.497526 0 1.10561 0H4.97526C5.58335 0 6.08088 0.507832 6.08088 1.12852C6.08088 2.53916 6.302 3.89338 6.71108 5.15732C6.83269 5.5523 6.74424 5.99242 6.43467 6.3084L4.00232 8.79114Z" fill="white"/>
</svg>
