<svg width="22" height="23" viewBox="0 0 22 23" fill="none" xmlns="http://www.w3.org/2000/svg">
<path fill-rule="evenodd" clip-rule="evenodd" d="M10.9267 0.272461C4.8872 0.272461 0 5.17639 0 11.2427C0 13.5304 0.694902 15.6466 1.92925 17.4649C1.97519 17.5332 2.00519 17.6111 2.01702 17.6927C2.02884 17.7743 2.02218 17.8576 1.99754 17.9362L0.887796 21.6644L4.52434 20.4045C4.60208 20.3785 4.68464 20.3704 4.76591 20.3808C4.84718 20.3912 4.92508 20.4198 4.99385 20.4645C6.6972 21.5742 8.73634 22.2129 10.9267 22.2129C16.9691 22.2129 21.8534 17.3091 21.8534 11.2427C21.8534 5.17622 16.9691 0.272461 10.9267 0.272461ZM6.45359 5.05479L8.4426 8.35444L7.61456 9.17721C7.53025 9.26261 7.47623 9.37344 7.46081 9.49268C7.44539 9.61191 7.46941 9.73294 7.52919 9.83712C8.79282 12.0341 10.29 13.7433 12.3865 14.6709C12.4869 14.7157 12.5985 14.729 12.7066 14.7091C12.8148 14.6893 12.9144 14.6371 12.9925 14.5595L13.8718 13.6767L17.0815 15.6908C16.7261 16.4939 16.2628 16.972 15.7328 17.2506C15.1188 17.5733 14.369 17.6344 13.5133 17.4563C11.8018 17.1 9.73458 15.7496 8.04992 14.0195C6.36526 12.2895 5.06157 10.1858 4.72922 8.4744C4.56305 7.61872 4.63646 6.8818 4.95117 6.29753C5.22215 5.79446 5.68243 5.36377 6.45359 5.05479Z" fill="white"/>
</svg>
