<svg width="35" height="35" viewBox="0 0 35 35" fill="none" xmlns="http://www.w3.org/2000/svg">
<path d="M35 6.04167C34.6403 7.3125 33.6458 7.65486 32.4938 7.69375C31.9368 7.7125 31.3757 7.59861 30.8007 7.54375C31.1813 9.62361 30.6299 11.3903 28.8139 12.5729C27.0049 13.7514 25.1604 13.5681 23.375 12.3882C23.2639 12.7944 23.2097 13.2042 23.041 13.5604C22.7917 14.0868 22.5181 14.6222 22.1458 15.0611C21.9056 15.3444 21.4667 15.4569 21.1229 15.6563C20.9938 15.7306 20.8312 15.8083 20.7694 15.9285C20.0465 17.3368 19.0986 18.5611 17.8535 19.5451C17.6722 19.6882 17.6903 19.8035 17.7924 19.9819C19.3222 22.6625 20.8458 25.3472 22.3708 28.0306C23.2444 29.5688 24.1215 31.1049 24.991 32.6458C25.5382 33.6153 25.1431 34.5896 24.0785 34.9257C24.0146 34.9458 23.9528 34.975 23.8903 35C23.7285 35 23.566 35 23.4042 35C22.8687 34.8201 22.5319 34.4389 22.275 33.9486C21.9694 33.3646 21.6264 32.8007 21.3 32.2278C19.2701 28.6576 17.2389 25.0882 15.2153 21.5153C15.0924 21.2986 14.9938 21.2278 14.7333 21.3257C13.1604 21.9167 11.5368 22.1278 9.85903 21.9597C5.27431 21.5021 1.42778 18.1806 0.339583 13.7063C0.193056 13.1042 0.111806 12.4861 0 11.875C0 11.3424 0 10.8104 0 10.2778C0.0277778 10.0861 0.0583333 9.89514 0.0833333 9.70347C0.723611 4.81597 4.29375 1.04306 9.11736 0.161111C9.45625 0.0993056 9.79861 0.0534722 10.1389 0C10.6944 0 11.25 0 11.8056 0C12.066 0.0430556 12.3264 0.0854167 12.5861 0.129861C16.5861 0.815278 19.4146 3.0125 21.0632 6.71944C21.2611 7.16458 21.409 7.63125 21.6097 8.16667C21.9479 6.36944 22.8583 5.08681 24.4958 4.41667C26.1424 3.74236 27.7 4.02708 29.1639 5.05069C29.1958 4.88889 29.2153 4.77639 29.2396 4.66458C29.4667 3.625 29.8431 2.66875 30.7583 2.02778C31.4472 1.54514 32.3938 1.65625 32.9819 2.25556C33.0993 2.375 33.2764 2.46944 33.441 2.50278C34.309 2.67778 34.9972 3.54444 34.8194 4.37917C34.7285 4.80347 34.8396 5.13333 35 5.48542C35 5.67153 35 5.85625 35 6.04167ZM18.3618 17.6076C18.3521 17.6035 18.3382 17.5931 18.3333 17.5958C18.1986 17.6847 18.0632 17.7729 17.9306 17.8646C16.1889 19.066 14.2563 19.641 12.1458 19.6111C7.99514 19.5521 4.80278 16.9694 4.00069 13.0208C3.76181 11.8451 3.82917 10.6722 4.12431 9.5132C4.23681 9.07083 4.72431 8.90069 4.99028 9.22847C5.10903 9.37431 5.1375 9.66389 5.09167 9.86181C4.31806 13.2021 5.85972 16.4896 8.97222 17.8938C12.4701 19.4715 16.8132 18.3715 19.2944 15.1826C19.3375 15.1271 19.3514 15.0486 19.3861 14.9632C19.284 14.9438 19.2174 14.9292 19.1507 14.9181C18.1222 14.7417 17.5201 13.8542 17.7132 12.8299C17.7444 12.6639 17.7181 12.4694 17.6618 12.3083C17.5243 11.9111 17.4979 11.5188 17.6243 11.1181C17.8951 10.2604 18.5924 9.94375 19.3826 9.79583C19.8417 9.71042 20.3188 9.72222 20.7875 9.69028C20.4583 6.08819 17.4868 1.84167 12.2896 1.11389C7.47014 0.439583 2.82431 3.48333 1.42847 8.25139C0.0340278 13.0153 2.35417 18.0785 6.90694 20.1194C11.5403 22.1965 16.2042 20.2674 18.3618 17.6076ZM26.2542 12.3181C28.2785 12.3181 29.8743 10.7375 29.8854 8.72292C29.8965 6.71111 28.2646 5.07986 26.2486 5.08819C24.241 5.09653 22.6347 6.70556 22.6333 8.70972C22.6326 10.7132 24.2431 12.3181 26.2542 12.3181ZM15.9882 20.7903C16.0729 20.9479 16.1403 21.0799 16.2132 21.2083C18.2188 24.7368 20.225 28.2653 22.2313 31.7938C22.5854 32.4174 22.934 33.0438 23.3 33.6604C23.5153 34.0236 23.9042 34.0694 24.1229 33.7757C24.2986 33.5396 24.2028 33.3215 24.0764 33.0993C21.9264 29.3201 19.7792 25.5389 17.6306 21.759C17.3583 21.2806 17.0799 20.8063 16.7993 20.3208C16.5097 20.4889 16.2625 20.6319 15.9882 20.7903ZM20.2833 10.6222C19.8347 10.7549 19.3688 10.8465 18.9431 11.0313C18.55 11.2021 18.4431 11.6993 18.7111 12.0347C18.9729 12.3611 18.9639 12.6361 18.7493 12.9757C18.5646 13.2674 18.6618 13.5403 18.9715 13.6993C19.1229 13.7771 19.2979 13.8549 19.4618 13.8535C19.8333 13.8507 20.05 14.0563 20.2625 14.3174C20.6396 14.7813 20.8813 14.8014 21.3375 14.4257C21.4431 14.3389 21.5361 14.2319 21.6188 14.1222C22.2111 13.3382 22.3389 12.4125 22.3951 11.4722C22.4007 11.3764 22.2694 11.2368 22.1667 11.175C21.5965 10.8333 20.9639 10.7153 20.2833 10.6222ZM32.2417 6.75972C32.6826 6.65694 33.0542 6.6125 33.3938 6.48264C33.9986 6.25069 34.1208 5.80903 33.7556 5.27361C33.5882 5.02778 33.5549 4.81528 33.7104 4.54028C33.9972 4.03333 33.6597 3.4875 33.0806 3.53056C32.7194 3.55694 32.4986 3.45903 32.334 3.12431C32.1403 2.72986 31.6917 2.63542 31.3313 2.88889C31.1639 3.00625 31.0056 3.15347 30.8861 3.31875C30.3146 4.11042 30.1604 5.02917 30.1326 5.9757C30.1299 6.06806 30.2396 6.22361 30.3257 6.24861C30.9764 6.4375 31.6347 6.60139 32.2417 6.75972Z" fill="black"/>
<path d="M0 25.7639C0.19375 25.1035 0.571528 24.6174 1.25139 24.3951C1.34375 24.3653 1.41736 24.2458 1.47708 24.1528C1.98194 23.3667 2.87361 23.1076 3.71806 23.5104C4.59236 23.9271 5.10556 24.6694 5.50695 25.5104C5.59583 25.6965 5.67361 25.8875 5.77014 26.1083C7.2875 24.5903 9.05764 24.0361 11.0583 24.8583C13.0514 25.6771 13.9563 27.2951 13.9813 29.4458C14.3465 29.3167 14.6882 29.1813 15.0382 29.0743C15.7715 28.85 16.5125 28.7813 17.2542 29.0375C18.1486 29.3465 18.6028 30.1729 18.4118 31.0965C18.3847 31.2285 18.4049 31.3924 18.4597 31.516C18.8806 32.4618 18.4722 33.4778 17.5167 33.8653C17.3799 33.9208 17.2389 34.0257 17.1569 34.1458C16.8625 34.5771 16.4507 34.8306 15.9736 35C15.7653 35 15.5569 35 15.3486 35C14.0069 34.5382 13.3576 33.4444 12.8625 32.2028C11.3792 33.6799 9.66181 34.2215 7.72292 33.5167C5.61042 32.7493 4.68889 31.0819 4.6375 28.859C4.43611 28.9368 4.25833 29.0153 4.07361 29.0764C3.16319 29.3764 2.24514 29.5993 1.29306 29.2646C0.549306 29.0028 0.0520833 28.2333 0.199306 27.4632C0.277083 27.0542 0.178472 26.7271 0.00208333 26.3896C0 26.1806 0 25.9722 0 25.7639ZM12.9306 29.1674C12.941 27.1618 11.3493 25.5465 9.33611 25.5208C7.36875 25.4958 5.70764 27.1424 5.69236 29.1313C5.67708 31.141 7.27222 32.7701 9.27431 32.791C11.2813 32.8111 12.9201 31.1875 12.9306 29.1674ZM16.2396 29.8938C15.2799 29.9639 14.4514 30.1819 13.7785 30.7965C13.6896 30.8778 13.6132 31.0771 13.6507 31.175C13.8993 31.8181 14.134 32.4757 14.4715 33.0729C14.6535 33.3944 15.0035 33.6465 15.3264 33.8549C15.7007 34.0965 16.1847 33.9104 16.3139 33.4903C16.4257 33.1257 16.6208 32.9701 17 32.9326C17.5354 32.8792 17.7861 32.275 17.4458 31.8597C17.2076 31.5688 17.1611 31.3215 17.341 30.9819C17.5549 30.5778 17.3333 30.1264 16.8847 30.0007C16.6535 29.9354 16.4083 29.9201 16.2396 29.8938ZM2.41042 28.4347C3.23403 28.4188 4.22917 28.0729 4.80903 27.5486C4.91458 27.4535 5.01458 27.2326 4.97569 27.1181C4.78264 26.5528 4.60139 25.9681 4.29861 25.4611C4.06597 25.0715 3.69236 24.7382 3.31806 24.4681C2.93958 24.1951 2.45556 24.3896 2.31181 24.8361C2.19583 25.1979 1.99653 25.3493 1.62083 25.3889C1.09583 25.4444 0.85 26.0597 1.1875 26.466C1.41944 26.7451 1.45347 26.9903 1.30139 27.3174C1.08681 27.7792 1.30278 28.2007 1.79792 28.3333C1.99653 28.3861 2.20556 28.4021 2.41042 28.4347Z" fill="black"/>
<path d="M31.9445 35C31.6077 34.8312 31.2889 34.7104 30.875 34.8083C30.2167 34.9639 29.4855 34.5479 29.1785 33.9299C28.8139 33.1972 28.8195 32.4306 29.0167 31.6611C29.1278 31.2278 29.2896 30.8076 29.4348 30.3604C27.3112 30.3299 25.6806 29.4521 24.8605 27.4486C24.0396 25.4437 24.5702 23.6687 26.0625 22.1611C25.5827 21.8993 25.0959 21.6667 24.6438 21.3799C24.1174 21.0465 23.7098 20.591 23.4528 20.0118C23.1 19.2153 23.3709 18.3271 24.0959 17.8458C24.2271 17.759 24.3493 17.6153 24.4084 17.4701C24.7889 16.5292 25.7931 16.1104 26.7257 16.5035C26.8702 16.5646 27.0584 16.5826 27.2125 16.5507C28.1084 16.3653 28.9549 16.8437 29.2362 17.7167C29.532 18.634 29.3757 19.5222 29.0584 20.3986C28.9889 20.591 28.9084 20.7792 28.8271 20.9868C29.2459 21.0264 29.6452 21.0132 30.0146 21.1111C30.5125 21.2424 31 21.4333 31.4695 21.6479C31.873 21.8319 31.9771 22.1333 31.8132 22.4229C31.6535 22.7056 31.3424 22.7472 30.9674 22.5375C29.6424 21.7958 28.0875 21.9007 26.9278 22.8097C25.4757 23.9479 25.0917 25.9951 26.0396 27.55C27.0049 29.1333 28.9848 29.7486 30.641 28.9792C32.3375 28.191 33.1584 26.3125 32.5827 24.5368C32.5542 24.4486 32.5195 24.3618 32.4993 24.2722C32.425 23.9444 32.5334 23.7146 32.8007 23.6201C33.0743 23.5236 33.3473 23.6514 33.4667 23.9576C33.7799 24.7625 33.8612 25.5944 33.7209 26.4465C33.5556 27.45 33.0945 28.3007 32.3813 29.0194C32.3257 29.075 32.2771 29.1368 32.2035 29.2215C33.4577 29.7222 34.5542 30.3736 35 31.7361C35 31.9444 35 32.1528 35 32.3611C34.8195 32.8896 34.5466 33.3437 34.0209 33.6014C33.975 33.6236 33.9306 33.6812 33.9167 33.7312C33.7209 34.425 33.2285 34.8 32.5695 35C32.3612 35 32.1528 35 31.9445 35ZM28.382 18.6354C28.3549 18.5028 28.3292 18.2583 28.2528 18.0312C28.1042 17.5875 27.6896 17.4125 27.2827 17.6368C26.9612 17.8139 26.7195 17.7833 26.4396 17.5424C26.0313 17.191 25.4105 17.425 25.3625 17.9514C25.3257 18.3604 25.1542 18.5674 24.7632 18.6819C24.3653 18.7986 24.2139 19.1972 24.3841 19.5806C24.4625 19.7569 24.5723 19.9285 24.7 20.0729C25.3681 20.8306 26.2806 21.1278 27.2167 21.3653C27.2973 21.3854 27.4514 21.3097 27.4987 21.234C27.975 20.4701 28.341 19.6653 28.382 18.6354ZM29.907 32.6653C29.9257 32.7896 29.9368 32.9875 29.9868 33.175C30.1459 33.7701 30.541 33.9486 31.0841 33.6736C31.3584 33.5347 31.5889 33.5715 31.8105 33.7778C32.0125 33.966 32.2514 34.0285 32.5146 33.9208C32.7855 33.8097 32.9382 33.6021 32.9493 33.3083C32.9619 32.9694 33.1271 32.7847 33.4556 32.7042C33.7362 32.6354 33.9493 32.4361 33.9452 32.1465C33.9417 31.9201 33.8632 31.6597 33.7327 31.4757C33.0799 30.5556 32.0764 30.2326 31.0445 29.9812C30.975 29.9646 30.8424 30.0424 30.798 30.1132C30.3195 30.8729 29.948 31.6736 29.907 32.6653Z" fill="black"/>
<path d="M11.0925 10.6472C11.4862 10.8444 11.7737 10.8028 11.9869 10.5535C12.2522 10.2424 12.273 9.76111 12.0369 9.42291C11.6223 8.82916 10.673 8.66111 9.96954 9.05694C8.89802 9.65972 8.57024 11.1451 9.25913 12.2819C10.0633 13.609 11.939 13.9701 13.3633 13.0715C14.8327 12.1444 15.4043 10.2562 14.7452 8.50486C14.0765 6.72638 12.5286 5.68263 10.5077 5.66249C8.78274 5.64583 7.36121 6.30763 6.2369 7.61111C6.06677 7.80833 5.86607 7.97708 5.6126 7.85277C5.4619 7.77916 5.32649 7.59583 5.27024 7.43263C5.23204 7.32222 5.30982 7.13194 5.39524 7.02569C7.47927 4.43888 11.1647 3.9493 13.6161 5.51944C15.982 7.03541 16.7563 10.3278 15.2848 12.6042C13.9862 14.6132 11.2334 15.2028 9.34732 13.8757C7.30843 12.4417 7.40496 9.29722 9.52302 8.12916C10.7063 7.47638 12.298 7.85833 12.9619 8.95416C13.6168 10.0347 13.0161 11.5382 11.8313 11.7847C10.8987 11.9785 9.98621 11.2958 10.0529 10.4535C10.1001 9.85763 10.6348 9.45277 11.2223 9.56388C11.5015 9.61666 11.7029 9.75694 11.7182 10.0569C11.7327 10.3528 11.5654 10.5292 11.2813 10.5972C11.2362 10.6076 11.1945 10.6201 11.0925 10.6472Z" fill="black"/>
</svg>
