<svg width="53" height="44" viewBox="0 0 53 44" fill="none" xmlns="http://www.w3.org/2000/svg">
<path d="M0.00100631 27.4335C0.0704417 27.3179 0.136355 27.2003 0.209816 27.0865C0.500639 26.6353 0.921277 26.3815 1.48179 26.3805C4.29946 26.3762 7.11713 26.3738 9.9343 26.3843C10.2986 26.3858 10.6292 26.3294 10.9562 26.1822C11.8956 25.7591 12.8345 25.3337 13.787 24.9389C14.353 24.7042 14.9417 24.5168 15.5259 24.3247C16.1181 24.1296 16.7103 23.9298 17.3156 23.7788C17.8831 23.6368 18.4633 23.5269 19.0449 23.4537C19.7886 23.3605 20.5378 23.2864 21.287 23.2621C22.1997 23.2324 23.0883 23.4074 23.9713 23.634C25.2921 23.9729 26.4574 24.6086 27.6207 25.2591C28.9053 25.9776 30.1732 26.7271 31.494 27.3795C32.3081 27.7815 33.2002 28.0487 34.0717 28.3365C34.6568 28.5301 35.2651 28.663 35.8679 28.8049C36.1306 28.8666 36.4058 28.8785 36.674 28.9192C37 28.9689 37.3246 29.0248 37.6501 29.0783C37.6828 29.0836 37.715 29.0951 37.7482 29.0979C38.1548 29.1343 38.5623 29.1672 38.9684 29.2069C39.1253 29.2222 39.225 29.1639 39.3291 29.0501C40.191 28.1109 41.0419 27.1611 41.9355 26.2495C42.6781 25.4919 43.616 24.9848 44.6334 24.6382C45.1149 24.4743 45.6347 24.3992 46.1439 24.327C46.5861 24.2644 47.038 24.2405 47.4858 24.2386C48.0574 24.2362 48.6103 24.3639 49.1643 24.4996C50.0896 24.7267 50.9133 25.1329 51.672 25.6717C52.0459 25.9369 52.4217 26.2027 52.5591 26.6611C52.5616 26.6692 52.6054 26.6664 52.63 26.6688C52.63 26.9556 52.63 27.2423 52.63 27.5291C52.5752 27.619 52.5289 27.7151 52.464 27.7978C52.0021 28.3862 51.5462 28.9794 51.0703 29.5573C50.0428 30.8049 49.0219 32.0577 47.9653 33.2823C46.9363 34.4749 45.8893 35.6541 44.809 36.8047C43.2522 38.4624 41.6074 40.0359 39.704 41.3452C38.8526 41.9307 37.956 42.4455 37.0045 42.8609C36.1799 43.2208 35.3295 43.5382 34.4239 43.6754C33.7335 43.7801 33.0427 43.9096 32.3473 43.9469C31.1679 44.01 29.9906 43.9455 28.8363 43.6658C28.2255 43.5177 27.6036 43.4039 27.0013 43.2299C26.3613 43.0449 25.7349 42.8155 25.1095 42.5889C24.4725 42.358 23.8365 42.1219 23.2131 41.8604C22.411 41.5244 21.6206 41.164 20.8271 40.8093C20.2127 40.5345 19.611 40.2329 18.9871 39.98C18.4145 39.7477 17.8233 39.5555 17.2341 39.3634C16.7561 39.208 16.2715 39.0699 15.785 38.9404C15.2909 38.8094 14.7928 38.6913 14.2931 38.5814C13.9706 38.5106 13.6425 38.4585 13.315 38.4088C13.0317 38.3658 12.7459 38.3371 12.4365 38.2994C12.4365 38.7492 12.4279 39.1865 12.4385 39.6229C12.4566 40.3777 11.6908 41.0302 10.9648 41.0273C7.80343 41.0158 4.64211 41.0216 1.48079 41.0235C1.03851 41.024 0.673222 40.8638 0.397493 40.546C0.242521 40.3672 0.131324 40.154 0 39.9566C0.00100631 35.7827 0.00100631 31.6079 0.00100631 27.4335ZM39.067 38.102C39.0494 38.0781 39.0318 38.0546 39.0141 38.0307C38.5865 37.9877 38.1593 37.9423 37.7311 37.9022C37.318 37.8634 36.9039 37.8362 36.4913 37.7922C36.2453 37.7659 36.0013 37.7186 35.7567 37.6785C35.4307 37.6249 35.1056 37.568 34.7796 37.5155C34.5104 37.472 34.2387 37.4399 33.9705 37.3907C33.5001 37.3042 33.0306 37.2105 32.5617 37.1163C32.2034 37.0446 31.8447 36.9739 31.4895 36.8917C30.9898 36.776 30.4912 36.6532 29.9946 36.526C29.5885 36.4223 29.1639 36.3525 28.787 36.1866C28.1379 35.9008 27.8104 35.3965 27.8597 34.6924C27.9025 34.081 28.4021 33.572 28.9651 33.4181C29.4376 33.2895 29.905 33.4142 30.3644 33.5438C30.7015 33.6389 31.0437 33.7197 31.3858 33.799C31.731 33.8793 32.0787 33.9496 32.4253 34.0242C32.9924 34.1461 33.5574 34.277 34.1265 34.3865C34.5758 34.473 35.0297 34.538 35.483 34.6045C36.1411 34.701 36.7993 34.7957 37.4594 34.8798C37.8639 34.9314 38.271 34.9739 38.6785 34.9998C39.6461 35.0614 40.6137 35.1384 41.5823 35.1532C42.0336 35.1599 42.4386 34.9644 42.7179 34.582C42.9765 34.2273 42.9936 33.8358 42.973 33.4314C42.9564 33.1078 42.8256 32.8325 42.584 32.605C42.2499 32.2895 41.8238 32.2274 41.3835 32.2393C40.0064 32.2771 38.6403 32.1404 37.2732 32.0214C36.9829 31.996 36.6926 31.9568 36.4063 31.9033C35.8221 31.7943 35.2395 31.6753 34.6578 31.5529C34.1939 31.4554 33.7235 31.3742 33.2721 31.2374C32.6326 31.0439 32.0047 30.8149 31.3778 30.585C30.0701 30.1055 28.8549 29.4517 27.6559 28.7695C26.4735 28.097 25.3429 27.3427 24.0725 26.8098C23.1869 26.4384 22.2621 26.2629 21.3116 26.2118C20.7984 26.1841 20.2787 26.2539 19.7624 26.2911C19.5571 26.306 19.3508 26.3404 19.1506 26.3882C18.661 26.5048 18.1725 26.6281 17.6874 26.7615C17.218 26.8905 16.739 27.0029 16.2891 27.1793C15.0942 27.6477 13.9112 28.1424 12.7288 28.6391C12.6035 28.6916 12.4289 28.7098 12.4304 28.9435C12.444 30.9984 12.44 33.0538 12.436 35.1087C12.4355 35.2966 12.5195 35.3645 12.7062 35.3649C12.8732 35.3659 13.0418 35.3716 13.2068 35.3951C13.5324 35.4424 13.8554 35.506 14.1804 35.5581C14.4325 35.5982 14.6891 35.6183 14.9382 35.6704C15.313 35.7493 15.6828 35.8492 16.0547 35.9395C16.4924 36.0456 16.9372 36.1293 17.3659 36.2626C18.0165 36.4648 18.664 36.6809 19.2975 36.927C20.2017 37.2779 21.0973 37.6507 21.9869 38.0341C22.9207 38.4366 23.8309 38.8897 24.7739 39.2702C25.6735 39.6335 26.5973 39.9442 27.5191 40.2539C28.0584 40.4351 28.6089 40.5961 29.1659 40.7161C29.6831 40.8275 30.2165 40.8691 30.7418 40.9475C32.135 41.1549 33.484 40.9255 34.7927 40.5058C35.4578 40.2926 36.1059 39.992 36.7067 39.6445C37.5208 39.1741 38.2826 38.6206 39.067 38.102ZM9.34259 38.0886C9.34259 35.1532 9.34259 32.2432 9.34259 29.3197C7.256 29.3197 5.1825 29.3197 3.09742 29.3197C3.09742 32.2494 3.09742 35.1651 3.09742 38.0886C5.18451 38.0886 7.25248 38.0886 9.34259 38.0886ZM43.0258 29.4421C43.1697 29.5176 43.2381 29.5659 43.3151 29.5922C44.2319 29.9086 44.9192 30.4889 45.4254 31.2676C45.5149 31.4052 45.5637 31.3718 45.6392 31.2857C45.7479 31.1614 45.849 31.031 45.9547 30.9043C46.7874 29.9091 47.6211 28.9144 48.4528 27.9182C48.5625 27.7868 48.6611 27.6477 48.7849 27.4866C48.0579 27.25 47.3711 27.1726 46.6525 27.2395C45.8767 27.3117 45.1703 27.5459 44.5826 28.0177C44.0422 28.4512 43.5597 28.9488 43.0258 29.4421Z" fill="white"/>
<path d="M34.0357 0.0110262C36.6345 0.0110262 39.2333 0.0110262 41.8321 0.0110262C42.1999 0.0110262 42.5184 0.138173 42.7745 0.379084C43.7839 1.32743 44.7867 2.28199 45.7915 3.23511C46.8536 4.24273 47.9092 5.25704 48.9805 6.25558C49.5983 6.83156 49.6034 7.77513 49.0192 8.38888C47.5419 9.94093 46.0737 11.5006 44.5995 13.0551C43.1972 14.534 41.7914 16.0101 40.3886 17.4885C39.1508 18.793 37.9146 20.0988 36.6773 21.4042C36.1746 21.9348 35.68 22.4721 35.1668 22.9931C34.5369 23.6322 33.5064 23.626 32.888 22.9802C31.6533 21.691 30.4241 20.3971 29.1974 19.1003C28.093 17.9326 26.9986 16.7567 25.8942 15.5889C25.0449 14.6908 24.185 13.8012 23.3331 12.9045C22.0888 11.5948 20.848 10.2827 19.6062 8.97107C19.3748 8.72634 19.1257 8.4926 18.922 8.22827C18.3891 7.53517 18.536 6.75795 19.1459 6.17957C21.1494 4.2781 23.156 2.38046 25.1591 0.479463C25.5299 0.127657 25.9691 -0.00235769 26.4909 3.229e-05C29.0057 0.0115042 31.521 0.00529025 34.0362 0.00529025C34.0357 0.00720224 34.0357 0.00911423 34.0357 0.0110262ZM34.0704 16.6974C34.9107 14.034 35.7299 11.4385 36.5575 8.81477C34.8559 8.81477 33.2096 8.81477 31.5119 8.81477C31.5627 8.97777 31.6055 9.11591 31.6488 9.25405C31.844 9.87784 32.0377 10.5016 32.2349 11.1249C32.4518 11.8104 32.6767 12.493 32.89 13.1794C33.0752 13.7759 33.2453 14.3763 33.4284 14.9733C33.5874 15.4924 33.7535 16.0101 33.9225 16.5268C33.9401 16.5793 34.001 16.6195 34.0704 16.6974ZM37.589 15.88C37.6192 15.8929 37.6494 15.9059 37.6796 15.9183C39.9101 13.5641 42.1406 11.2095 44.4063 8.81812C42.8344 8.81812 41.3234 8.81812 39.8145 8.81812C39.0688 11.1842 38.3287 13.5321 37.589 15.88ZM23.6536 8.81668C25.9274 11.2157 28.1549 13.5665 30.3823 15.9173C30.412 15.9039 30.4422 15.891 30.4719 15.8777C29.7297 13.5254 28.9871 11.1732 28.2434 8.81668C26.7324 8.81668 25.229 8.81668 23.6536 8.81668ZM36.4106 5.86218C36.3623 5.75942 36.3221 5.68724 36.2929 5.61076C35.9789 4.79291 35.6685 3.97362 35.352 3.15672C35.2987 3.01954 35.2146 2.93445 35.0214 2.93971C34.3764 2.95644 33.7303 2.95883 33.0853 2.93971C32.8397 2.93254 32.7577 3.03866 32.6863 3.22842C32.4986 3.72363 32.2913 4.21166 32.0971 4.70495C31.9481 5.08353 31.8073 5.46545 31.6568 5.86266C33.2387 5.86218 34.7955 5.86218 36.4106 5.86218ZM38.6361 2.94593C38.6477 3.04487 38.6406 3.11896 38.6658 3.18158C38.9984 4.00756 39.3455 4.82828 39.664 5.65904C39.7304 5.83159 39.8079 5.87605 39.9825 5.87509C41.2817 5.87031 42.5808 5.8727 43.8795 5.87174C43.9469 5.87174 44.0143 5.86123 44.1149 5.85262C44.0576 5.78905 44.0334 5.7575 44.0053 5.73074C43.2244 4.9908 42.4047 4.28336 41.6761 3.49945C41.248 3.03914 40.7946 2.86706 40.1848 2.9421C39.9871 2.96648 39.7833 2.94593 39.582 2.94593C39.2736 2.94593 38.9656 2.94593 38.6361 2.94593ZM29.4364 2.98369C29.37 2.96266 29.3468 2.94927 29.3237 2.94927C28.578 2.94784 27.8323 2.94306 27.0872 2.95262C27.0031 2.95357 26.904 3.01715 26.8391 3.07785C26.2258 3.65049 25.6225 4.23269 25.0076 4.80342C24.6484 5.13706 24.274 5.45589 23.9062 5.7814C23.9741 5.8488 23.9777 5.86171 23.9812 5.86218C25.3885 5.86601 26.7953 5.87031 28.2027 5.86888C28.2565 5.86888 28.34 5.82777 28.3591 5.78523C28.4427 5.6012 28.5066 5.40952 28.58 5.22119C28.7717 4.73029 28.9669 4.24082 29.1566 3.74944C29.2537 3.4961 29.3423 3.24085 29.4364 2.98369Z" fill="white"/>
</svg>
