<svg width="27" height="28" viewBox="0 0 27 28" fill="none" xmlns="http://www.w3.org/2000/svg">
<path d="M8.99508 2.63056C8.90825 2.48163 8.74537 2.39233 8.57374 2.39903C7.89203 2.42515 4.44268 2.58201 3.49853 3.13217C2.38685 3.78011 2.00941 5.21166 2.65708 6.3236C2.97093 6.86228 3.47583 7.24642 4.07864 7.40533C4.27679 7.45784 4.47796 7.48355 4.67748 7.48355C5.08501 7.48355 5.48707 7.37593 5.84865 7.16492C6.79252 6.61503 8.62981 3.69136 8.98852 3.11111C9.07932 2.96438 9.08165 2.77976 8.99508 2.63056ZM5.3789 6.35861C5.05547 6.54679 4.67871 6.59739 4.31673 6.50261C3.95501 6.40716 3.65251 6.17687 3.46393 5.85358C3.07527 5.18649 3.30174 4.3274 3.96882 3.93889C4.44008 3.66442 6.2533 3.47064 7.71219 3.37847C6.91246 4.60214 5.84988 6.08415 5.3789 6.35861Z" fill="#115C07"/>
<path d="M12.9532 5.14685C7.99849 5.14685 3.96753 9.17781 3.96753 14.1326C3.96753 19.0873 7.99849 23.1183 12.9532 23.1183C17.908 23.1183 21.9389 19.0873 21.9389 14.1326C21.9389 9.17781 17.908 5.14685 12.9532 5.14685ZM12.9532 22.1846C8.51337 22.1846 4.90115 18.5724 4.90115 14.1326C4.90115 9.69269 8.51337 6.08047 12.9532 6.08047C17.3931 6.08047 21.0053 9.69269 21.0053 14.1326C21.0053 18.5724 17.3931 22.1846 12.9532 22.1846Z" fill="#115C07"/>
<path d="M9.72476 9.16536C9.1616 8.60248 8.99381 7.59679 8.95196 6.85244C8.94266 6.68806 8.84762 6.54091 8.7017 6.46474C8.55578 6.3887 8.3806 6.39472 8.24057 6.48129C6.33586 7.6571 4.94507 9.48454 4.32393 11.6273C4.28769 11.7519 4.30519 11.8859 4.37179 11.9973C4.43853 12.1086 4.54875 12.1872 4.67566 12.214C5.81154 12.4547 5.9565 12.721 5.95773 12.7236C6.2058 13.2197 6.59938 13.5348 7.06585 13.6107C7.13915 13.6226 7.21382 13.6285 7.28903 13.6285C7.80063 13.6285 8.35079 13.356 8.86211 12.8445C8.96618 12.7408 9.07613 12.637 9.18745 12.5324C9.75416 11.9986 10.3969 11.3934 10.4088 10.5898C10.416 10.1058 10.1859 9.62663 9.72476 9.16536ZM8.54744 11.8534C8.42956 11.9644 8.31264 12.0747 8.20228 12.185C7.83933 12.5484 7.48062 12.73 7.216 12.6894C7.04889 12.662 6.90653 12.5332 6.79302 12.3062C6.60253 11.9257 6.14577 11.6406 5.37078 11.423C5.8992 9.94116 6.84882 8.65144 8.10573 7.70387C8.25643 8.62696 8.57808 9.33876 9.06492 9.82561C9.34075 10.1014 9.47901 10.354 9.47573 10.5762C9.46944 10.9851 9.00078 11.4266 8.54744 11.8534Z" fill="#115C07"/>
<path d="M13.7296 15.8522C13.5231 15.0264 13.0423 14.3857 12.3388 13.9997C11.5659 13.5756 10.5721 13.5 9.67854 13.7972C8.2868 14.2614 7.53533 14.8827 8.08919 16.5444C8.46895 17.6832 9.19826 17.8117 9.78453 17.915C10.0296 17.9582 10.2614 17.9989 10.4801 18.1085C10.7046 18.2207 10.6403 19.3754 10.2459 20.5628C10.1762 20.7722 10.263 21.0018 10.4534 21.1134C10.5257 21.1554 11.0371 21.4417 11.5951 21.4417C11.7698 21.4417 11.9488 21.4137 12.1207 21.3413C12.38 21.2321 12.7201 20.9787 12.8668 20.3919C12.9976 19.8684 13.1711 19.4268 13.3392 18.9997C13.7096 18.0587 14.0589 17.1696 13.7296 15.8522ZM12.4705 18.6581C12.2998 19.0915 12.1066 19.5829 11.961 20.1654C11.897 20.4221 11.7929 20.4665 11.7588 20.4809C11.6359 20.5327 11.4402 20.5054 11.2575 20.4487C11.5238 19.5077 11.8646 17.7567 10.8976 17.2732C10.5573 17.1033 10.2328 17.046 9.94631 16.9954C9.41912 16.9027 9.17871 16.8603 8.97494 16.249C8.66027 15.3051 8.80974 15.071 9.97393 14.6829C10.6239 14.4656 11.3404 14.517 11.8894 14.818C12.3658 15.0796 12.6804 15.5036 12.8239 16.0786C13.0806 17.1062 12.8248 17.7571 12.4705 18.6581Z" fill="#115C07"/>
<path d="M21.2983 10.801C20.5776 8.99711 19.2652 7.44933 17.603 6.44214C17.4204 6.3315 17.1866 6.35885 17.0346 6.50778C14.8585 8.63581 14.6701 9.37852 14.7726 9.82434C14.8318 10.0823 15.0187 10.2808 15.2855 10.3697C16.0016 10.6081 16.5851 10.8484 16.9528 11.0097C16.7623 11.2861 16.4185 11.6168 15.8646 11.6168C13.6379 11.6168 12.3784 11.6585 12.3784 12.5148C12.3784 12.9138 12.7575 13.2652 13.8409 14.1678C14.2388 14.4994 14.8297 14.9919 14.9711 15.1929C15.0264 15.8069 15.5666 17.6218 15.9659 18.0214C16.2446 18.2998 16.7262 18.5438 17.2381 18.5435C17.3732 18.5435 17.51 18.5267 17.646 18.4889C18.0738 18.3704 18.6394 18.0058 18.9057 16.9416C19.0805 16.2417 19.1218 15.6056 19.1554 15.0947C19.2098 14.258 19.2561 13.9294 19.5242 13.7951C19.84 13.6372 20.367 13.1927 21.2896 11.1678C21.3422 11.0517 21.3455 10.9193 21.2983 10.801ZM19.1067 12.9601C18.3339 13.3469 18.2804 14.1663 18.2238 15.034C18.1914 15.5323 18.1545 16.0971 18 16.7151C17.9134 17.0616 17.7384 17.4946 17.3966 17.5894C17.1082 17.6692 16.7655 17.5002 16.6313 17.3665C16.4144 17.1095 15.9004 15.4443 15.9004 15.103C15.9004 14.7044 15.5216 14.3531 14.4386 13.4506C14.1503 13.2102 13.7606 12.8859 13.5139 12.6484C14.0922 12.5504 15.2475 12.5504 15.8648 12.5504C17.4766 12.5504 18.0112 11.003 18.0331 10.9372C18.1064 10.7169 18.0067 10.4758 17.7989 10.3719C17.7637 10.3544 16.9512 9.95056 15.7166 9.52977C15.8038 9.31042 16.1393 8.72361 17.4245 7.43552C18.7149 8.30008 19.7433 9.53702 20.3554 10.9642C19.5453 12.7012 19.1506 12.9382 19.1067 12.9601Z" fill="#115C07"/>
<path d="M13.07 0.945679C12.8124 0.945679 12.6033 1.15477 12.6033 1.4124C12.6033 1.67003 12.8124 1.87912 13.07 1.87912C19.7621 1.87912 25.2065 7.32317 25.2065 14.015C25.2065 20.7069 19.7622 26.151 13.07 26.151C6.3778 26.151 0.93362 20.7069 0.93362 14.015C0.93362 10.8714 2.1309 7.89067 4.30475 5.62149C4.4828 5.43524 4.47651 5.13972 4.29052 4.96154C4.10454 4.78377 3.80901 4.78951 3.63055 4.97576C1.28932 7.41944 0 10.6296 0 14.015C0 21.2216 5.86306 27.0844 13.07 27.0844C20.2769 27.0844 26.14 21.2216 26.14 14.015C26.14 6.80845 20.2769 0.945679 13.07 0.945679Z" fill="#115C07"/>
</svg>
