<svg width="39" height="28" viewBox="0 0 39 28" fill="none" xmlns="http://www.w3.org/2000/svg">
<path d="M37.9886 16.835L36.0603 13.8856C35.2091 12.5819 33.7627 11.8042 32.1905 11.8042H27.2047V8.93459C27.2047 7.18267 25.7804 5.75847 24.0284 5.75847H14.6953C14.171 3.02343 11.7635 0.948242 8.87779 0.948242C5.61029 0.948242 2.95218 3.60622 2.95218 6.87357C2.95218 8.9275 4.00444 10.7405 5.597 11.8034H0.604961C0.271037 11.8034 0 12.0735 0 12.4083C0 12.7422 0.270151 13.0132 0.604961 13.0132H6.65015V14.2222H4.23207C3.89815 14.2222 3.628 14.4923 3.628 14.8271C3.628 15.161 3.89815 15.4312 4.23207 15.4312H6.65015V16.6402H0.604961C0.271037 16.6402 0 16.9103 0 17.2451C0 17.579 0.270151 17.85 0.604961 17.85H6.65015V20.5275C5.5846 20.9978 4.83615 22.0606 4.83615 23.2988V23.8958C4.83615 24.2297 5.10718 24.5007 5.44111 24.5007H10.8034C11.1471 25.9799 12.4739 27.087 14.0558 27.087C15.6387 27.087 16.9646 25.9799 17.3083 24.5007H28.9398C29.2844 25.9799 30.6103 27.087 32.1923 27.087C33.7742 27.087 35.101 25.9799 35.4447 24.5007H37.4819C37.8158 24.5007 38.086 24.2306 38.086 23.8958V17.1654C38.0869 17.0476 38.0523 16.9324 37.9886 16.835ZM4.16121 6.87357C4.16121 4.27315 6.27725 2.15722 8.87779 2.15722C11.4792 2.15722 13.5944 4.27315 13.5944 6.87357C13.5944 9.47398 11.4783 11.5899 8.87779 11.5899C6.27725 11.5899 4.16121 9.47398 4.16121 6.87357ZM10.7485 23.29H6.04519C6.04961 22.29 6.86538 21.4761 7.86627 21.4761H11.6068C11.1524 21.9676 10.8432 22.5947 10.7485 23.29ZM14.0558 25.8762C12.8805 25.8762 11.923 24.9197 11.923 23.7435C11.923 22.5681 12.8805 21.6107 14.0558 21.6107C15.2321 21.6107 16.1887 22.5681 16.1887 23.7435C16.1887 24.9188 15.2321 25.8762 14.0558 25.8762ZM25.9956 23.29H17.3632C17.2684 22.5947 16.9593 21.9676 16.504 21.4761H25.9956V23.29ZM25.9956 20.2671H7.86716C7.8645 20.2671 7.86273 20.268 7.85918 20.268V17.8491H9.06822C9.40214 17.8491 9.67318 17.579 9.67318 17.2442C9.67318 16.9103 9.40303 16.6393 9.06822 16.6393H7.85918V15.4303H12.0913C12.4252 15.4303 12.6953 15.1602 12.6953 14.8263C12.6953 14.4923 12.4252 14.2213 12.0913 14.2213H7.85918V13.0123H15.7184C16.0523 13.0123 16.3233 12.7422 16.3233 12.4074C16.3233 12.0735 16.0523 11.8025 15.7184 11.8025H12.1595C13.7272 10.7556 14.768 8.98153 14.7999 6.96656H24.0293C25.1134 6.96656 25.9965 7.84961 25.9965 8.9337V20.2671H25.9956ZM32.1923 25.8762C31.0169 25.8762 30.0594 24.9197 30.0594 23.7435C30.0594 22.5681 31.0169 21.6107 32.1923 21.6107C33.3685 21.6107 34.3251 22.5681 34.3251 23.7435C34.3251 24.9188 33.3685 25.8762 32.1923 25.8762ZM36.8778 23.29H35.5005C35.2782 21.6621 33.8814 20.4017 32.1932 20.4017C30.5049 20.4017 29.1081 21.6621 28.8858 23.29H27.2055V13.0132H32.1914C33.3535 13.0132 34.4217 13.5863 35.0497 14.5464L36.8787 17.3452V23.29H36.8778Z" fill="#115C07"/>
<path d="M32.1925 24.7329C32.7389 24.7329 33.1819 24.2899 33.1819 23.7435C33.1819 23.1971 32.7389 22.7542 32.1925 22.7542C31.6461 22.7542 31.2031 23.1971 31.2031 23.7435C31.2031 24.2899 31.6461 24.7329 32.1925 24.7329Z" fill="#115C07"/>
<path d="M14.0559 22.7542C13.5103 22.7542 13.0674 23.197 13.0674 23.7435C13.0674 24.29 13.5103 24.7329 14.0559 24.7329C14.6024 24.7329 15.0452 24.29 15.0452 23.7435C15.0452 23.197 14.6024 22.7542 14.0559 22.7542Z" fill="#115C07"/>
<path d="M9.67317 6.8739V4.22908C9.67317 3.89515 9.40302 3.625 9.06821 3.625C8.73429 3.625 8.46414 3.89515 8.46414 4.22908V6.67726L7.2303 8.36992C7.03366 8.64007 7.09301 9.01739 7.36227 9.21403C7.47034 9.29286 7.59434 9.33095 7.71834 9.33095C7.90523 9.33095 8.08858 9.24503 8.20727 9.08205L9.55714 7.23085C9.63243 7.12722 9.67317 7.00233 9.67317 6.8739Z" fill="#115C07"/>
<path d="M31.9886 13.6179H30.8327C30.4988 13.6179 30.2278 13.8881 30.2278 14.2229V18.455C30.2278 18.7889 30.4979 19.0599 30.8327 19.0599H34.9018C35.2809 19.0599 35.6202 18.8642 35.8106 18.5364C36.001 18.2087 36.001 17.8163 35.8142 17.4895L34.4023 15.0183C33.908 14.1547 32.9833 13.6179 31.9886 13.6179ZM31.4368 17.85V14.827H31.9886C32.5511 14.827 33.0728 15.1299 33.3509 15.617L34.6264 17.8491H31.4368V17.85Z" fill="#115C07"/>
</svg>
