<svg width="35" height="35" viewBox="0 0 35 35" fill="none" xmlns="http://www.w3.org/2000/svg">
<path d="M35 24.3482C35 25.1772 35 26.0045 35 26.8336C34.9379 27.0235 34.8615 27.2081 34.8154 27.4017C33.9171 31.1156 31.666 33.6294 27.9592 34.5543C24.2276 35.4845 21.0196 34.3697 18.4756 31.4458C18.3673 31.3215 18.2377 31.2167 18.1525 31.1351C17.469 31.8701 16.8743 32.6121 16.1784 33.2423C13.7977 35.394 10.1424 35.4615 7.7511 33.3418C6.33797 32.0902 4.90176 30.812 3.75315 29.3296C2.66845 27.9289 1.67962 26.3365 1.11863 24.6713C-0.819989 18.9211 -0.168458 13.2633 2.5282 7.90721C5.92788 1.15756 11.8396 -1.34914 19.1183 0.688888C23.4908 1.91206 27.2793 4.21283 30.7233 7.13141C32.7152 8.81971 34.4532 10.666 35 13.3414C35 13.9929 35 14.6427 35 15.2942C34.3911 16.773 33.7804 18.2518 33.2016 19.6543C33.7733 21.1455 34.3857 22.7468 35 24.3482ZM3.53124 18.7223C3.58983 19.301 3.63066 20.249 3.78866 21.1793C4.21295 23.6753 4.99408 26.0116 7.11555 27.6307C8.77722 28.9 10.4602 28.7526 11.8236 27.1726C12.555 26.3258 13.1924 25.3938 13.8173 24.4618C15.5748 21.8414 18.0691 19.9632 20.4178 17.9518C21.6001 16.9381 23.1056 16.4961 24.6696 16.3381C24.9022 16.315 25.1525 16.2901 25.3549 16.1889C28.5397 14.6036 30.2191 11.0779 26.4094 8.19126C23.7322 6.1621 20.7551 4.65666 17.4584 3.8418C12.871 2.70917 9.1376 4.09922 6.50485 8.01728C4.40823 11.1365 3.64131 14.6533 3.53124 18.7223ZM33.8248 25.5234C33.7999 21.0035 30.1304 17.3926 25.5945 17.4263C21.1261 17.4583 17.5134 21.1367 17.5471 25.6175C17.5809 30.109 21.2273 33.7394 25.6886 33.7252C30.2049 33.711 33.8496 30.0362 33.8248 25.5234ZM27.3183 16.3061C28.7137 16.8085 28.7137 16.8085 29.4647 15.8374C31.8293 12.7822 31.2506 8.89782 27.9415 6.41774C24.9394 4.16845 21.6445 2.46063 17.9643 1.57298C12.4876 0.252167 7.76175 1.94402 4.68873 6.51716C1.82164 10.785 0.870086 15.5747 1.36362 20.6431C1.61216 23.1995 2.35423 25.6228 3.93246 27.7248C6.6309 31.3179 11.1632 32.2074 14.1563 28.023C15.2499 26.4945 16.7305 25.1257 16.6542 22.8587C16.2601 23.3007 15.9086 23.6469 15.6121 24.0357C14.5522 25.4187 13.5918 26.8833 12.445 28.1881C10.9218 29.9208 8.67248 30.0983 6.75694 28.8183C4.97633 27.6289 3.88097 25.9228 3.27383 23.9327C1.55712 18.3068 2.28144 12.9153 5.24262 7.88591C7.4067 4.21106 10.6164 2.07539 15.0422 2.36298C19.9811 2.68431 24.2347 4.80046 27.8882 7.98177C30.5032 10.2595 30.3505 13.4142 27.8793 15.8445C27.7284 15.9865 27.5598 16.1073 27.3183 16.3061ZM16.3701 26.9117C14.3925 30.0326 12.1343 32.5535 7.81679 31.7902C9.12162 33.2086 10.5401 33.8335 12.2639 33.7057C14.6303 33.5299 16.0523 31.9801 17.2666 30.1675C17.3661 30.0202 17.3181 29.7273 17.2542 29.5267C16.9897 28.6923 16.695 27.8668 16.3701 26.9117ZM32.0672 10.1157C31.9802 11.2625 32.0725 12.5851 31.7352 13.787C31.3908 15.0155 30.6275 16.1286 30.0398 17.3074C30.6381 17.721 31.334 18.2021 32.0264 18.6814C34.4461 16.4641 34.3591 11.8253 32.0672 10.1157Z" fill="black"/>
<path d="M14.4934 5.16792C17.0107 5.1839 18.7434 6.53312 18.9547 8.69187C19.0754 9.92392 18.6262 11.0104 17.9268 12.0028C16.3059 14.3071 13.1495 15.5871 10.7173 14.932C8.12186 14.2325 6.9768 11.875 8.02777 9.39666C9.05211 6.98049 11.8464 5.15194 14.4934 5.16792ZM11.9334 13.9148C14.3815 13.9378 16.8012 12.3081 17.5912 10.2293C18.2818 8.41137 17.3125 6.67514 15.3846 6.41772C12.8974 6.08574 10.9481 7.08878 9.51369 9.0842C8.78759 10.0943 8.51953 11.2518 9.1107 12.4217C9.72495 13.6343 10.8984 13.8509 11.9334 13.9148Z" fill="black"/>
<path d="M21.2184 29.1894C20.6325 29.1042 20.2171 29.0438 19.8017 28.9817C19.9632 28.5751 20.123 28.1668 20.3325 27.6395C20.2526 27.5987 19.9064 27.4993 19.6792 27.2774C19.5052 27.107 19.3596 26.7412 19.4289 26.5406C19.4839 26.3826 19.8834 26.34 20.1337 26.2584C20.1798 26.2442 20.2455 26.2885 20.3005 26.3099C20.8669 26.5389 21.5077 27.0572 21.9817 26.9348C22.8303 26.7146 23.576 26.1057 24.5115 25.5767C23.6239 25.0618 22.9013 24.5559 22.106 24.2239C21.8184 24.1032 21.3622 24.4085 20.9769 24.4991C20.4621 24.6198 19.8532 25.4009 19.4449 24.6162C19.0277 23.812 20.0201 23.7907 20.4266 23.4534C20.4497 23.4339 20.4692 23.4126 20.4 23.48C20.1834 23.022 19.9828 22.603 19.7839 22.1823C20.2171 22.1095 20.6503 22.0367 21.1775 21.9497C21.1775 21.8361 21.1101 21.4988 21.1988 21.2077C21.2699 20.9769 21.5202 20.6591 21.7101 20.6449C21.9054 20.6307 22.1291 20.9325 22.3315 21.1065C22.3652 21.1349 22.3688 21.2219 22.3581 21.2769C21.9693 23.3842 23.6931 23.702 25.0814 24.5133C25.0814 23.5102 25.1542 22.6261 25.0423 21.7669C25.0033 21.4598 24.5293 21.1935 24.231 20.9378C24.0091 20.7461 23.6825 20.6467 23.5227 20.4212C23.3824 20.2224 23.2901 19.8354 23.3931 19.6632C23.4836 19.514 23.8991 19.4626 24.1334 19.5194C24.4334 19.5922 24.6962 19.8194 24.8204 19.8904C25.1258 19.4856 25.3956 19.127 25.6637 18.7702C25.9442 19.1075 26.2247 19.4448 26.5904 19.8851C26.6756 19.8318 26.9454 19.5868 27.2579 19.5052C27.4834 19.4466 27.8384 19.5336 27.9982 19.6916C28.0994 19.7928 27.9538 20.1478 27.9059 20.3857C27.897 20.4319 27.8295 20.4851 27.7798 20.5047C25.8252 21.2343 26.2549 22.8622 26.333 24.5186C27.1638 24.0339 27.9485 23.6043 28.6959 23.1197C28.8486 23.022 28.9125 22.7255 28.9391 22.5107C28.9906 22.1006 28.9107 21.6604 29.0314 21.2805C29.1166 21.0159 29.4468 20.8313 29.6687 20.6112C29.8409 20.8437 30.0806 21.0532 30.1694 21.3124C30.2564 21.5698 30.1889 21.877 30.1889 21.9551C30.7179 22.0421 31.1511 22.1113 31.5843 22.1823C31.4121 22.5888 31.2399 22.9936 31.0322 23.4818C31.0943 23.5155 31.3979 23.599 31.5665 23.7978C31.7618 24.0268 31.8399 24.3553 31.9677 24.6411C31.6837 24.7103 31.2736 24.9358 31.1316 24.8239C29.4912 23.5191 28.3089 24.7281 26.9028 25.5926C27.7461 26.0791 28.513 26.5477 29.3101 26.9578C29.4717 27.0413 29.7611 26.9312 29.9688 26.8513C30.2972 26.7235 30.6061 26.5424 30.9256 26.388C31.3144 26.1998 31.7831 26.0098 31.9518 26.5566C32.0174 26.7732 31.6748 27.1531 31.4565 27.4052C31.3127 27.5703 31.0606 27.6413 31.0162 27.6662C31.215 28.1473 31.3908 28.5751 31.5665 29.0012C31.1458 29.0527 30.7268 29.1024 30.1907 29.1681C30.1907 29.3101 30.2564 29.6367 30.1711 29.919C30.0984 30.1587 29.8516 30.3469 29.6829 30.5563C29.4628 30.3628 29.2409 30.1711 29.0225 29.9758C29.0066 29.9616 29.0066 29.9172 29.0119 29.8906C29.4255 27.7904 27.7053 27.4425 26.2886 26.6152C26.2886 27.6289 26.2655 28.5236 26.3081 29.4166C26.317 29.5941 26.5584 29.7894 26.7324 29.9243C27.0591 30.1782 27.4727 30.3398 27.7372 30.6416C27.9201 30.8493 27.913 31.2256 27.9911 31.5256C27.7053 31.5487 27.4035 31.6393 27.1372 31.5754C26.8691 31.5114 26.6348 31.2949 26.5531 31.2452C26.2389 31.6552 25.9708 32.0067 25.701 32.3565C25.4187 32.021 25.1364 31.6854 24.7849 31.27C24.7104 31.3144 24.4583 31.5398 24.1653 31.6197C23.9292 31.6836 23.6452 31.57 23.3807 31.5345C23.4339 31.2505 23.4854 30.9664 23.5422 30.6842C23.5458 30.6629 23.5831 30.6398 23.6097 30.6309C25.5891 29.8977 25.0601 28.2431 25.0583 26.6188C24.1902 27.1212 23.3736 27.5224 22.6528 28.055C22.4309 28.2201 22.4682 28.742 22.3972 29.1024C22.2906 29.635 22.6084 30.512 21.7687 30.5191C20.8544 30.5262 21.3 29.6332 21.1829 29.1219C21.1775 29.0953 21.158 29.0686 21.2184 29.1894Z" fill="black"/>
<path d="M12.1042 12.349C11.8202 12.3223 11.5823 12.317 11.3515 12.2762C9.93304 12.0276 9.60816 11.1933 10.4674 10.0216C11.6551 8.40073 13.718 7.5912 15.5163 8.03857C16.6205 8.31374 16.9277 8.96349 16.3347 9.92925C15.3619 11.5128 13.8742 12.23 12.1042 12.349ZM11.3 10.9713C12.7114 11.5519 14.8204 10.6145 15.2252 9.22624C13.718 8.82502 12.1095 9.54046 11.3 10.9713Z" fill="black"/>
</svg>
