<svg width="36" height="35" viewBox="0 0 36 35" fill="none" xmlns="http://www.w3.org/2000/svg">
<path d="M0 27.4276C0.31392 26.492 0.641488 25.5614 0.92811 24.6184C0.987668 24.4248 0.924388 24.1779 0.868552 23.9682C-0.0335013 20.571 -0.114153 17.1923 1.08693 13.8422C1.72966 12.0492 2.76572 10.5292 4.29561 9.37532C4.57603 9.16314 4.68398 8.946 4.52516 8.64573C4.10329 7.84791 3.69383 7.04015 3.22109 6.2721C2.78557 5.5661 2.72105 5.11817 3.12058 4.63923C3.51888 4.16152 3.98293 4.10941 4.74602 4.45435C5.153 4.63799 5.5637 4.81418 6.03892 5.02263C6.08235 3.93694 5.8528 3.01503 5.34035 2.16385C5.19146 1.9157 4.93462 1.69484 4.88995 1.43303C4.82791 1.08313 4.79689 0.599219 4.98921 0.372155C5.18277 0.143849 5.7312 -0.00876755 6.00914 0.100422C7.41992 0.650091 8.79719 1.29158 9.54787 2.59317C10.3333 1.97525 11.0927 1.33749 11.8967 0.763003C12.2776 0.49127 12.7454 0.339894 13.1735 0.133923C13.6387 -0.088178 14.0631 -0.0484728 14.4018 0.362228C14.7244 0.753077 14.6885 1.1675 14.3981 1.55835C13.7678 2.40829 13.3769 3.35005 13.2951 4.40968C13.2814 4.58835 13.2926 4.76827 13.2926 5.03256C13.7926 4.81046 14.2232 4.62186 14.6512 4.43077C15.3746 4.10941 15.8275 4.16773 16.2221 4.6355C16.6228 5.11073 16.5583 5.57974 16.1253 6.26962C15.6563 7.01658 15.2468 7.802 14.8336 8.58121C14.6674 8.89513 14.7716 9.12716 15.0793 9.35795C16.5223 10.4399 17.5534 11.842 18.123 13.5555C18.1862 13.7454 17.9679 14.0283 17.881 14.269C17.6502 14.1524 17.4058 14.0531 17.1936 13.9079C17.108 13.8496 17.0968 13.6871 17.0472 13.5729C15.99 11.1174 14.1872 9.46093 11.5902 8.84054C7.85419 7.94717 4.08716 9.40385 2.2967 13.8347C1.04723 16.9268 0.978982 20.1081 1.78425 23.4285C3.1119 22.2721 4.5872 21.7236 6.40123 22.0649C6.08483 21.1913 5.60712 20.5474 4.9433 20.0362C4.63931 19.8029 4.26707 19.5758 4.61573 19.149C4.94082 18.7507 5.28948 19.0026 5.59223 19.2321C6.58487 19.9828 7.1792 21.009 7.52166 22.0611C8.4659 22.0611 9.34562 22.0599 10.2253 22.0636C10.3271 22.0636 10.4487 22.0611 10.5293 22.112C11.4028 22.6666 11.9016 22.1257 12.4811 21.5425C18.051 15.9416 23.642 10.363 29.2268 4.77819C29.8261 4.17889 29.9477 4.17145 30.5259 4.7844C33.0881 7.50173 34.618 10.7116 35.1069 14.4166C35.1329 14.6189 35.1925 14.8162 35.2372 15.0159C35.2372 16.0495 35.2372 17.0843 35.2372 18.1179C35.1937 18.2953 35.1478 18.4715 35.1081 18.6502C34.8773 19.6974 34.7495 20.7806 34.3996 21.7869C32.3176 27.7911 28.1709 31.5805 22.0153 33.1786C21.6704 33.2679 21.3279 33.4441 21.0363 33.6513C19.8563 34.4876 18.561 34.9591 17.1105 34.9976C15.5012 35.0398 14.0693 34.5236 12.7652 33.593C12.532 33.7705 12.326 33.9392 12.1076 34.0906C10.8631 34.9529 9.51561 35.1788 8.03411 34.84C7.53655 34.7259 6.97075 34.7308 6.47071 34.84C5.21503 35.113 4.04745 34.9542 2.93198 34.3474C2.59945 34.1663 2.22473 33.9504 2.4915 33.49C2.73346 33.0719 3.07964 33.2419 3.40224 33.428C4.34648 33.9727 5.32919 34.0434 6.39254 33.7928C6.93353 33.665 7.5564 33.6501 8.09242 33.7829C10.0032 34.2581 11.6808 33.6724 12.666 31.9713C13.9303 29.7875 13.9601 27.5057 12.8298 25.2735C11.7987 23.2374 10.0206 22.5848 7.81325 23.292C7.81325 23.5513 7.81201 23.8169 7.81325 24.0824C7.81573 24.4348 7.68917 24.7586 7.30576 24.6904C7.10848 24.6556 6.89878 24.3554 6.81317 24.1308C6.70894 23.8578 6.73004 23.5364 6.69902 23.261C4.20751 22.6418 2.39348 23.5402 1.51997 25.8307C0.821402 27.6633 0.848699 29.5084 1.58573 31.3336C1.72594 31.681 1.94556 32.0731 1.46165 32.2927C0.938036 32.5309 0.75564 32.0867 0.634043 31.7182C0.395812 30.9998 0.208452 30.264 0 29.5357C0 28.8334 0 28.1311 0 27.4276ZM22.7486 31.9564C28.4265 29.9848 32.2146 26.2798 33.6837 20.5126C35.1069 14.9291 33.7172 9.94608 29.9092 5.60828C29.4787 6.02271 29.1089 6.37881 28.7218 6.75229C28.8483 6.90863 28.9464 7.03643 29.0518 7.15927C30.2604 8.57253 31.1823 10.1496 31.7828 11.9127C32.3014 13.4327 32.5682 14.9961 32.5161 16.6004C32.5087 16.8114 32.2196 17.0136 32.062 17.2208C31.8796 17.0149 31.6897 16.8151 31.521 16.5992C31.48 16.5471 31.5135 16.4379 31.5123 16.356C31.4887 14.3174 31.0507 12.3669 30.0916 10.5739C29.5159 9.49815 28.7714 8.51173 28.1361 7.53523C23.0874 12.5815 18.1589 17.5074 13.3137 22.3502C15.5582 21.0437 17.9728 20.8749 20.3551 22.2808C22.7164 23.6729 23.8045 25.8468 23.8207 28.615C24.008 28.5381 24.1247 28.4996 24.2314 28.445C26.9251 27.0441 28.9625 24.9919 30.2355 22.2348C30.6735 21.2869 30.8994 20.2421 31.2753 19.2619C31.3535 19.0584 31.6662 18.9455 31.8697 18.7917C31.9975 19.0175 32.1414 19.2371 32.2456 19.4741C32.2791 19.5498 32.2084 19.6714 32.1836 19.7719C31.0408 24.3789 28.3111 27.6782 24.0155 29.6932C23.812 29.7888 23.5998 29.9712 23.5043 30.1672C23.2387 30.697 23.0352 31.2616 22.7486 31.9564ZM13.1921 23.8107C15.0557 26.7402 15.088 29.7305 13.4837 32.7679C15.691 34.6564 19.2632 34.3015 21.3081 32.0023C23.405 29.6436 23.1978 26.0205 20.844 23.8615C18.6788 21.875 15.0334 21.8514 13.1921 23.8107ZM13.2268 1.32012C11.5877 2.01372 10.2452 2.92818 10.1608 4.91965C10.1534 5.10328 9.85062 5.27451 9.6856 5.45194C9.51064 5.2621 9.19548 5.08095 9.18432 4.88242C9.07141 2.90833 7.74872 2.00007 6.09972 1.24691C6.13322 1.38464 6.13198 1.44668 6.16052 1.49011C6.99929 2.78673 7.11468 4.23969 7.07746 5.72368C7.06257 6.30561 6.75858 6.49048 6.21635 6.26094C5.98805 6.16416 5.77339 6.0376 5.54757 5.93585C5.02147 5.7001 4.49041 5.4718 3.87871 5.20254C4.54005 6.38129 5.12694 7.42728 5.71755 8.47947C8.35299 7.23744 11.048 7.25729 13.6412 8.44224C14.2554 7.35531 14.8299 6.33787 15.4875 5.17525C14.6612 5.55493 13.9849 5.85768 13.3161 6.17532C12.5617 6.53515 12.2826 6.37137 12.2689 5.55493C12.2429 4.07095 12.3905 2.62791 13.2268 1.32012Z" fill="black"/>
<path d="M11.9573 17.0248C12.2874 16.6513 12.4673 16.3386 12.7378 16.1798C12.9252 16.0694 13.2378 16.1711 13.4947 16.1785C13.4748 16.418 13.5431 16.727 13.419 16.887C12.2229 18.4293 11.703 18.4293 10.5242 16.8821C10.4001 16.7183 10.5031 16.3808 10.5006 16.1239C10.7426 16.1376 11.0416 16.0681 11.2141 16.1847C11.4796 16.3609 11.6558 16.6687 11.9573 17.0248Z" fill="black"/>
<path d="M14.2842 13.8297C14.6452 13.4029 14.8053 13.1039 15.0559 12.9537C15.2507 12.8371 15.5572 12.9054 15.814 12.8929C15.7967 13.151 15.7793 13.4091 15.7595 13.666C15.7582 13.6821 15.7334 13.6957 15.7197 13.7119C14.4455 15.1785 14.0385 15.1748 12.8597 13.6176C12.7406 13.4612 12.8237 13.151 12.8126 12.9128C13.0694 12.914 13.3895 12.8197 13.567 12.9389C13.8275 13.1113 13.9839 13.4376 14.2842 13.8297Z" fill="black"/>
<path d="M9.66939 13.625C9.95601 13.352 10.1632 13.0716 10.4412 12.9178C10.6298 12.8135 10.9176 12.8905 11.1608 12.8855C11.1596 13.1262 11.1645 13.3682 11.1509 13.6089C11.1484 13.6573 11.0752 13.7032 11.0305 13.7466C9.45101 15.2988 9.87164 15.2902 8.25365 13.6498C8.11592 13.5096 8.20154 13.1498 8.18417 12.8917C8.44101 12.9078 8.73632 12.8508 8.94601 12.9587C9.20658 13.094 9.39766 13.3657 9.66939 13.625Z" fill="black"/>
<path d="M7.30457 17.0495C7.65075 16.6525 7.8319 16.3497 8.09743 16.1773C8.26866 16.0656 8.56397 16.145 8.8022 16.1388C8.80592 16.3795 8.90891 16.6984 8.79351 16.8473C8.46967 17.2667 8.08254 17.6538 7.66191 17.9764C7.51302 18.0906 7.12093 18.0782 6.96583 17.959C6.56009 17.6501 6.1891 17.2766 5.87766 16.8721C5.75606 16.7145 5.83299 16.4056 5.8181 16.1649C6.0737 16.1673 6.38762 16.0768 6.57002 16.1934C6.83183 16.3597 6.99933 16.6773 7.30457 17.0495Z" fill="black"/>
<path d="M28.0851 12.5418C27.9921 12.7689 27.9772 12.9203 27.9114 12.9463C27.4077 13.1486 26.9002 13.3508 26.3778 13.4886C26.2823 13.5134 26.0229 13.2528 25.9944 13.0952C25.9659 12.9401 26.0887 12.656 26.2227 12.5915C26.6061 12.4054 27.023 12.244 27.4412 12.1932C27.6384 12.1671 27.8705 12.4165 28.0851 12.5418Z" fill="black"/>
<path d="M27.8421 20.4507C27.5827 20.5574 27.3197 20.7733 27.1075 20.7311C26.7167 20.6529 26.3308 20.4606 25.9933 20.2397C25.8568 20.1504 25.7861 19.8563 25.8047 19.6677C25.8171 19.5474 26.0864 19.3302 26.1744 19.3588C26.6708 19.5213 27.1534 19.7347 27.6262 19.9593C27.7068 19.9978 27.7242 20.1727 27.8421 20.4507Z" fill="black"/>
<path d="M27.4971 16.9987C27.378 16.9863 27.11 17.0124 26.8978 16.9168C26.7265 16.8386 26.497 16.5905 26.5193 16.4577C26.5516 16.2691 26.7787 15.9912 26.9474 15.9713C27.3668 15.9217 27.8098 15.9552 28.2242 16.0458C28.3756 16.078 28.5728 16.3696 28.5642 16.5334C28.5555 16.6947 28.3396 16.8945 28.1659 16.9838C28.0219 17.0583 27.8073 16.9987 27.4971 16.9987Z" fill="black"/>
<path d="M25.5774 23.5786C25.5191 23.6481 25.4323 23.8429 25.2896 23.8987C25.1456 23.9558 24.8975 23.9397 24.7821 23.8466C24.4657 23.5898 24.1741 23.2957 23.9197 22.9768C23.8279 22.8614 23.8056 22.6058 23.8713 22.4731C23.9371 22.3416 24.1456 22.2262 24.3044 22.2051C24.6518 22.1592 25.5936 23.127 25.5774 23.5786Z" fill="black"/>
<path d="M18.8498 24.5253C18.4888 24.7785 18.2778 25.0378 18.1029 25.0167C17.9217 24.9944 17.6872 24.7177 17.6438 24.5167C17.619 24.3988 17.9192 24.0911 18.0805 24.0849C18.2766 24.0774 18.4801 24.2995 18.8498 24.5253Z" fill="black"/>
</svg>
