<svg width="16" height="16" viewBox="0 0 16 16" fill="none" xmlns="http://www.w3.org/2000/svg">
<path d="M14.5326 3.38777C14.4112 3.21707 14.2831 3.04637 14.1485 2.88551C12.6779 1.12269 10.4686 0 8 0C7.99672 0 7.99343 0 7.98687 0C7.98359 0 7.98359 0 7.9803 0C7.97046 0 7.96061 0 7.95404 0C5.50513 0.0164136 3.31555 1.13582 1.85474 2.88551C1.72015 3.04637 1.59212 3.21379 1.47066 3.38777C0.544932 4.6943 0 6.28314 0 8C0 9.71687 0.544932 11.309 1.47066 12.6122C1.59212 12.7829 1.72015 12.9503 1.85474 13.1145C3.31555 14.8642 5.50513 15.9869 7.95404 16C7.96389 16 7.97374 16 7.9803 16C7.98359 16 7.98359 16 7.98687 16C7.99015 16 7.99343 16 8 16C10.4686 16 12.6779 14.8773 14.1453 13.1145C14.2799 12.9536 14.4079 12.7862 14.5293 12.6122C15.4551 11.309 16 9.71686 16 7.99672C16.0033 6.28314 15.4551 4.6943 14.5326 3.38777ZM5.6627 1.04062C4.92737 1.74969 4.31678 2.78703 3.89331 4.03119C3.32868 3.82109 2.81986 3.56832 2.38326 3.27944C3.24333 2.2618 4.37259 1.47394 5.6627 1.04062ZM1.99918 3.7817C2.49815 4.11325 3.07263 4.40542 3.7062 4.64506C3.43045 5.64629 3.27288 6.75913 3.26959 7.93435H0.656545C0.672959 6.38818 1.16865 4.9602 1.99918 3.7817ZM0.682807 8.59089H3.28272C3.3254 9.57242 3.47312 10.5047 3.7062 11.3582C3.06935 11.5979 2.49487 11.8867 1.99918 12.2216C1.26385 11.1777 0.787854 9.93681 0.682807 8.59089ZM2.38654 12.7206C2.82314 12.435 3.33197 12.1822 3.89331 11.9721C4.3135 13.2162 4.92737 14.2536 5.6627 14.9627C4.37259 14.5261 3.24661 13.7415 2.38654 12.7206ZM7.67173 15.3238C6.32581 15.1399 5.16044 13.7579 4.5039 11.7686C5.45261 11.483 6.52934 11.3123 7.67173 11.2827V15.3238ZM7.67173 10.6262C6.46697 10.6557 5.33114 10.8396 4.31678 11.1514C4.10997 10.3636 3.97866 9.50349 3.93599 8.59089H7.66845V10.6262H7.67173ZM7.67173 7.93435H3.92614C3.9327 6.83135 4.07386 5.79073 4.32335 4.85515C5.33443 5.16373 6.47025 5.35084 7.67501 5.38039L7.67173 7.93435ZM7.67173 4.72056C6.52934 4.69101 5.45261 4.52031 4.5039 4.23471C5.16373 2.24538 6.32581 0.863357 7.67173 0.676241V4.72056ZM15.3435 7.93435H12.6943C12.6877 6.7657 12.5334 5.65613 12.261 4.65819C12.911 4.41526 13.4986 4.11982 14.0041 3.78498C14.8313 4.9602 15.3303 6.38818 15.3435 7.93435ZM13.6167 3.27944C13.1703 3.5716 12.6516 3.83094 12.0739 4.04103C11.6504 2.78047 11.03 1.73 10.2815 1.01764C11.5946 1.45096 12.7468 2.24538 13.6167 3.27944ZM8.32827 0.686089C9.66106 0.892901 10.81 2.27165 11.46 4.24785C10.5178 4.52688 9.45753 4.6943 8.32827 4.72384V0.686089ZM8.32827 5.3771C9.5199 5.34756 10.6393 5.16701 11.6438 4.86172C11.89 5.79401 12.0312 6.83135 12.0378 7.93106H8.32827V5.3771ZM8.32827 8.59089H12.0213C11.9819 9.49692 11.8506 10.357 11.6438 11.1416C10.6393 10.8363 9.51662 10.6557 8.32827 10.6262V8.59089ZM8.32827 15.3172V11.2794C9.45753 11.3057 10.5211 11.4764 11.4633 11.7554C10.81 13.7316 9.66106 15.1104 8.32827 15.3172ZM10.2815 14.9824C11.03 14.27 11.6504 13.2228 12.0739 11.959C12.6516 12.1723 13.1703 12.4284 13.6135 12.7206C12.7435 13.7579 11.5946 14.5523 10.2815 14.9824ZM14.0041 12.2216C13.4986 11.8835 12.911 11.588 12.261 11.3451C12.4908 10.4949 12.6385 9.56586 12.6812 8.59089H15.3205C15.2121 9.93681 14.7394 11.1777 14.0041 12.2216Z" fill="white"/>
</svg>
