<svg width="33" height="35" viewBox="0 0 33 35" fill="none" xmlns="http://www.w3.org/2000/svg">
<path d="M9.89569 34.9991C9.89569 34.6313 9.89569 34.2634 9.89569 33.8496C14.1764 33.8496 18.4264 33.8496 22.748 33.8496C22.748 33.6418 22.748 33.48 22.748 33.3182C22.748 27.7287 22.7429 22.1383 22.7591 16.5488C22.7599 16.1631 22.6254 15.9604 22.3239 15.7697C21.5695 15.2937 21.5737 15.28 20.8388 15.7722C19.708 16.5309 19.8877 16.5446 18.8266 15.7586C18.2723 15.3473 17.8746 15.3473 17.3237 15.7595C16.2303 16.5778 16.3674 16.5326 15.3217 15.7552C14.7639 15.3405 14.3688 15.3533 13.8196 15.7629C12.7603 16.5522 12.9144 16.5122 11.8423 15.7927C11.0717 15.2749 11.0351 15.2375 10.3002 15.8157C9.63682 16.3376 9.04926 16.4867 8.40635 15.8421C8.36888 15.8046 8.30842 15.7901 8.25733 15.7688C8.24796 15.7646 8.23093 15.7773 8.1611 15.802C8.1611 15.9442 8.1611 16.1077 8.1611 16.2712C8.1611 18.8531 8.15259 21.4358 8.17047 24.0177C8.17303 24.4154 8.05722 24.5542 7.67062 24.5065C7.46454 24.4809 7.25336 24.5022 6.99194 24.5022C6.99194 24.2817 6.99194 24.1156 6.99194 23.9504C6.99194 21.0279 6.99875 18.1054 6.98002 15.1821C6.97832 14.9258 6.84803 14.6482 6.71093 14.4191C6.53807 14.1296 6.29027 13.8852 6.0876 13.6119C5.31952 12.5764 5.16794 11.4575 5.72911 10.2917C5.8892 9.96046 5.82788 9.80293 5.57923 9.58494C4.94228 9.02633 4.32917 8.44046 3.68115 7.84268C3.95194 7.55061 4.19889 7.28407 4.47053 6.99029C5.14836 7.61277 5.79978 8.21906 6.46313 8.81174C6.56106 8.89945 6.71604 8.92329 6.84462 8.97694C6.8293 8.82962 6.85569 8.66101 6.79268 8.53924C6.38139 7.74731 5.95051 6.9656 5.48982 6.11491C5.82959 5.93013 6.15488 5.753 6.50912 5.55971C6.73307 5.96504 6.93574 6.3312 7.1384 6.69907C7.43048 6.41976 7.69276 6.16941 7.98654 5.88925C7.80431 5.68658 7.59228 5.46859 7.40153 5.23356C6.92126 4.64174 6.86251 3.80298 7.244 3.16092C7.64677 2.48224 8.39783 2.13992 9.17188 2.30853C9.41372 2.36132 9.64108 2.48139 9.94167 2.59635C9.79862 1.37864 10.0864 0.412997 11.3408 0C11.5392 0 11.7384 0 11.9368 0C13.2465 0.387451 13.5113 1.38886 13.3725 2.66106C14.2096 2.12544 14.9564 2.20123 15.6674 2.65084C15.7075 2.59549 15.7219 2.58528 15.7219 2.57421C15.7296 2.33322 15.733 2.09309 15.7432 1.8521C15.7628 1.37353 15.9467 1.17513 16.4227 1.17342C18.4945 1.16746 20.5663 1.16661 22.6381 1.17342C23.1141 1.17513 23.3083 1.37353 23.3194 1.85295C23.3321 2.40645 23.3177 2.95995 23.327 3.51345C23.3296 3.64885 23.3347 3.81831 23.4122 3.91197C23.6983 4.25685 24.0151 4.57703 24.3753 4.96618C24.7355 4.02182 25.0454 3.18987 25.3716 2.36473C25.65 1.65965 26.0937 1.06272 26.7477 0.682084C27.2296 0.401927 27.7712 0.223955 28.2864 0.00085154C28.6841 0.00085154 29.0809 0.00085154 29.4786 0.00085154C29.9324 0.189042 30.4187 0.323585 30.8342 0.57479C32.3866 1.50978 33.0499 3.48791 32.4061 5.2259C31.4669 7.76349 30.5106 10.2951 29.5526 12.8267C29.2895 13.5225 29.0792 14.1952 29.1243 14.9803C29.2095 16.4645 29.149 17.9564 29.149 19.4458C29.149 23.6004 29.143 27.7559 29.1533 31.9106C29.1558 32.964 28.7922 33.8334 27.9313 34.4414C27.5813 34.6883 27.1487 34.8178 26.7528 35C21.136 34.9991 15.5159 34.9991 9.89569 34.9991ZM23.9154 33.8291C24.6469 33.8291 25.2983 33.83 25.9498 33.8291C27.3242 33.8274 27.9884 33.1683 27.9892 31.7982C27.9909 26.6072 27.9901 21.4154 27.9892 16.2244C27.9892 16.0762 27.9764 15.9281 27.9688 15.7603C27.8802 15.7824 27.8334 15.7807 27.8036 15.8029C26.6932 16.6314 26.769 16.3879 25.7769 15.7484C25.765 15.7407 25.7505 15.7356 25.7411 15.7254C25.2932 15.269 24.8854 15.3269 24.3923 15.7152C24.0594 15.9774 23.9044 16.2074 23.9052 16.6416C23.9206 22.1733 23.9154 27.7049 23.9154 33.2373C23.9154 33.417 23.9154 33.5975 23.9154 33.8291ZM28.8859 1.17427C27.7865 1.1632 26.8039 1.84869 26.4028 2.91567C25.0769 6.4436 23.752 9.97239 22.4287 13.502C22.1442 14.2607 22.163 14.2412 22.8016 14.718C23.1746 14.9965 23.4701 15.0459 23.8354 14.7197C24.0866 14.4958 24.3974 14.3391 24.6767 14.1449C24.9424 13.9601 25.1996 13.9601 25.4661 14.1415C25.8289 14.3893 26.1916 14.6371 26.5637 14.8721C26.6625 14.9343 26.8337 15.0144 26.9001 14.9726C27.2628 14.7453 27.675 14.5894 27.8427 14.1126C28.2813 12.8702 28.7607 11.6431 29.2231 10.4092C29.9248 8.53839 30.6452 6.67437 31.3213 4.79502C31.9565 3.03063 30.7022 1.19301 28.8859 1.17427ZM12.4222 12.4725C12.4818 12.4827 12.5414 12.4929 12.6002 12.5032C12.6726 12.2511 12.8046 11.9991 12.808 11.7461C12.8275 10.2559 12.8011 8.76575 12.8327 7.27641C12.8386 6.99625 12.9715 6.665 13.1562 6.45382C13.7225 5.80239 14.3492 5.20291 14.9394 4.57107C15.234 4.256 15.228 3.87962 14.9589 3.61905C14.6916 3.35933 14.3339 3.38317 14.0163 3.69143C13.7821 3.91794 13.5812 4.18958 13.3189 4.37436C13.1222 4.51316 12.8395 4.63664 12.6155 4.60683C12.2928 4.56511 12.2178 4.25004 12.2187 3.94263C12.2212 3.2614 12.2221 2.58017 12.2178 1.89893C12.2153 1.43229 12.0288 1.18875 11.6797 1.17598C11.3118 1.16235 11.1015 1.41781 11.0989 1.89808C11.0947 2.59379 11.0921 3.28865 11.0989 3.98436C11.1023 4.2858 11.0052 4.56596 10.7098 4.61024C10.496 4.6426 10.2193 4.54382 10.0345 4.41268C9.77222 4.2279 9.5704 3.95711 9.33964 3.72719C8.99221 3.38061 8.655 3.34144 8.37143 3.60968C8.08787 3.87791 8.09809 4.28239 8.41997 4.62727C8.84574 5.08284 9.28003 5.53075 9.72027 5.97355C9.97829 6.23327 10.1852 6.51002 9.93997 6.86767C9.71602 7.19551 9.41713 7.15805 9.07395 7.00817C8.57325 6.79018 8.13215 7.12484 8.17558 7.65109C8.20453 7.99852 8.60646 8.44983 8.95304 8.50433C10.1622 8.69508 10.9857 9.37205 11.4838 10.4773C11.7861 11.1475 12.1088 11.8075 12.4222 12.4725ZM19.2235 14.2148C19.2235 11.9573 19.2235 9.79356 19.2235 7.60766C17.4778 7.60766 15.7577 7.60766 14.018 7.60766C14.018 8.85602 14.018 10.0788 14.018 11.305C17.0086 10.8699 18.2527 11.5511 19.2235 14.2148ZM20.4275 14.5605C20.4667 14.5801 20.5067 14.5997 20.5459 14.6192C20.683 14.4438 20.8746 14.2897 20.9495 14.0913C21.928 11.5205 22.8919 8.94373 23.8516 6.36611C23.889 6.26478 23.8984 6.09021 23.838 6.0255C23.4871 5.64571 23.1124 5.28806 22.7199 4.89721C22.0097 5.61761 21.3302 6.28181 20.6856 6.97922C20.5323 7.14442 20.4173 7.41691 20.4156 7.64087C20.396 9.8123 20.4037 11.9837 20.4045 14.1551C20.4054 14.2897 20.4199 14.4251 20.4275 14.5605ZM11.6516 14.2854C11.6848 14.2599 11.7188 14.2335 11.752 14.2079C11.7418 14.0496 11.7759 13.8716 11.7137 13.737C11.2352 12.6939 10.7685 11.6431 10.2363 10.6264C9.86163 9.91022 9.19147 9.5943 8.39017 9.65135C7.55821 9.71096 6.8889 10.2781 6.66069 11.0726C6.43929 11.8449 6.63429 12.5134 7.18694 13.1052C7.69957 12.7126 8.18069 12.3456 8.69247 11.9539C8.93771 12.2656 9.15996 12.55 9.40435 12.8608C9.13101 13.0762 8.88747 13.2661 8.64563 13.4577C8.40635 13.6468 8.16877 13.8375 7.89031 14.0606C8.09979 14.2131 8.25307 14.3331 8.41486 14.4404C9.32516 15.0459 9.32601 15.045 10.244 14.4353C10.3027 14.3961 10.3666 14.3629 10.4219 14.3186C10.8102 14.0061 11.2071 13.8418 11.6516 14.2854ZM12.8718 15.0169C13.3146 14.7214 13.7191 14.466 14.1091 14.1875C14.4301 13.9584 14.7214 13.955 15.0424 14.1909C15.3847 14.4421 15.7373 14.6823 16.1068 14.8909C16.2209 14.9556 16.4364 14.9564 16.5471 14.89C17.0069 14.615 17.4437 14.3033 17.884 14.0087C17.4752 12.7373 16.1622 12.0229 14.827 12.3286C13.6271 12.6019 12.7185 13.8103 12.8718 15.0169ZM14.9019 6.29288C14.9257 6.33461 14.9496 6.37548 14.9734 6.41721C16.4585 6.41721 17.9436 6.41806 19.4287 6.41465C19.4951 6.41465 19.582 6.40018 19.6262 6.3576C20.1653 5.83135 20.6983 5.29913 21.2663 4.73456C21.1496 4.6988 21.1122 4.67836 21.0747 4.67751C19.645 4.67495 18.2152 4.67155 16.7855 4.67666C16.6808 4.67666 16.5479 4.70391 16.4764 4.77118C15.9442 5.27103 15.4247 5.78451 14.9019 6.29288ZM16.9635 3.46577C18.6964 3.46577 20.4139 3.46577 22.1213 3.46577C22.1213 3.07236 22.1213 2.71471 22.1213 2.323C20.6864 2.323 19.2882 2.323 17.8899 2.323C16.8 2.323 16.8 2.323 16.9252 3.41127C16.9269 3.42404 16.9405 3.43426 16.9635 3.46577Z" fill="black"/>
<path d="M3.08343 34.9991C1.93215 34.6721 1.30456 33.8427 0.861762 32.7834C0.323589 31.4968 0.00255853 30.1743 3.90869e-06 28.7803C-0.00340225 26.4957 2.21997 25.0429 4.32242 25.9524C4.41013 25.9907 4.50124 26.0214 4.59406 26.0563C4.7831 25.2286 4.46207 24.7483 3.52368 24.4537C3.52368 24.1011 3.52368 23.7409 3.52368 23.3399C4.25685 23.3688 4.83164 23.6439 5.28466 24.1803C5.73768 24.7168 5.86711 25.3563 5.82369 25.9319C6.51854 25.8544 7.18785 25.6765 7.83843 25.7276C9.29882 25.8425 10.4433 27.1198 10.4808 28.5896C10.5284 30.4204 10.0311 32.1192 9.1498 33.7133C8.77087 34.4005 8.12199 34.7318 7.42628 34.9991C7.08567 34.9991 6.74505 34.9991 6.40444 34.9991C6.06893 34.8535 5.73683 34.6994 5.39621 34.5683C5.3034 34.5325 5.17481 34.5376 5.08029 34.5717C4.72264 34.7037 4.37266 34.8552 4.02012 34.9991C3.70761 34.9991 3.39595 34.9991 3.08343 34.9991ZM9.32011 28.9864C9.32011 28.9549 9.32266 28.8272 9.32011 28.6994C9.29286 27.4366 8.0956 26.5314 6.90088 26.9325C6.50577 27.0653 6.15323 27.377 5.8305 27.6623C5.33405 28.1008 5.13309 28.1204 4.65197 27.6486C4.57107 27.5695 4.49103 27.4886 4.40843 27.4102C3.80468 26.8363 3.10812 26.6753 2.33152 26.9836C1.57876 27.2825 1.1334 27.9927 1.15384 28.8365C1.18961 30.2935 1.56003 31.6637 2.24552 32.9512C2.6798 33.7661 3.4811 34.094 4.2824 33.6375C4.96789 33.2475 5.56397 33.1905 6.20092 33.6554C6.2452 33.6878 6.3031 33.7039 6.3559 33.7235C7.078 33.9875 7.81033 33.7295 8.1799 33.0542C8.85772 31.8178 9.2588 30.4988 9.32011 28.9864Z" fill="black"/>
<path d="M27.9227 5.07262C28.3093 6.26222 28.6763 7.39136 29.0578 8.56393C28.6865 8.6857 28.3442 8.79896 27.9533 8.92754C27.5727 7.75923 27.2014 6.62072 26.8157 5.43878C27.1904 5.31531 27.5335 5.20205 27.9227 5.07262Z" fill="black"/>
<path d="M27.3471 12.6437C26.9767 12.7689 26.6352 12.8838 26.2443 13.0149C25.862 11.8432 25.4916 10.7064 25.105 9.52108C25.478 9.39846 25.8194 9.28605 26.2103 9.15747C26.5926 10.3283 26.963 11.4643 27.3471 12.6437Z" fill="black"/>
</svg>
