<svg width="50" height="50" viewBox="0 0 50 50" fill="none" xmlns="http://www.w3.org/2000/svg">
<path d="M6.45149 42.7005C6.3634 42.7005 6.29691 42.7005 6.23076 42.7005C4.45307 42.7005 2.67572 42.6975 0.898031 42.7032C0.601356 42.7042 0.347545 42.6317 0.176425 42.3829C0.100146 42.2719 0.0549195 42.1365 0.0110426 42.0069C-0.00954579 41.9462 0.00496733 41.8729 0.00496733 41.8058C0.00496733 38.2619 0.0019297 34.7183 0.00969253 31.1744C0.0103676 30.8278 0.0424314 30.4727 0.12546 30.1379C0.200726 29.8348 0.369821 29.5557 0.490651 29.2631C0.654683 28.8655 0.93077 28.5462 1.22947 28.2529C1.50151 27.9856 1.80898 27.752 2.1627 27.5954C2.5613 27.4185 2.96328 27.2494 3.36492 27.0797C3.6049 26.9784 3.84892 26.8873 4.08754 26.7837C4.36971 26.6615 4.64478 26.5234 4.92863 26.4057C5.21113 26.2882 5.50443 26.1961 5.78625 26.0773C6.05762 25.9628 6.31885 25.8238 6.58819 25.704C6.70733 25.651 6.83795 25.6246 6.95945 25.576C7.07083 25.5315 7.17546 25.4697 7.28549 25.4215C7.39856 25.3718 7.51568 25.3303 7.62976 25.2827C7.77084 25.2237 7.91057 25.1616 8.05098 25.1008C8.13806 25.063 8.22345 25.0218 8.31221 24.9884C8.51168 24.9132 8.71554 24.849 8.91198 24.767C9.1101 24.684 9.30079 24.5827 9.49655 24.494C9.54144 24.4737 9.59409 24.4714 9.67003 24.4548C9.67003 24.3907 9.67003 24.3195 9.67003 24.2479C9.67003 23.6515 9.66396 23.0552 9.67442 22.4591C9.67712 22.3143 9.61164 22.2431 9.50904 22.1712C9.15769 21.9255 8.8033 21.6835 8.46072 21.426C8.00879 21.0858 7.65473 20.6463 7.29866 20.214C7.0948 19.9666 6.92942 19.6861 6.76133 19.4113C6.61789 19.1771 6.4758 18.9388 6.3688 18.687C6.2392 18.3819 6.14301 18.0623 6.04007 17.7467C5.95434 17.4845 5.87941 17.2188 5.7903 16.9235C4.99579 16.9569 4.27824 16.6862 3.73417 16.0463C3.33185 15.5731 3.17119 15.0129 3.19617 14.3854C3.21304 13.9564 3.32712 13.5693 3.54414 13.2082C3.75172 12.8632 4.04265 12.5915 4.38861 12.3988C4.73861 12.2037 5.12439 12.0886 5.54729 12.0684C5.41094 11.8179 5.27593 11.5851 5.15578 11.3447C5.039 11.1108 4.94314 10.8665 4.82738 10.6323C4.74468 10.4648 4.63769 10.3096 4.55365 10.1429C4.46995 9.9768 4.40312 9.8023 4.32684 9.6322C4.23639 9.4307 4.13682 9.23325 4.05514 9.02838C4.00215 8.89608 3.97076 8.75466 3.93532 8.61594C3.80909 8.1225 3.80403 7.61825 3.82901 7.11501C3.84386 6.81631 3.86276 6.50816 3.94849 6.22499C4.06662 5.83482 4.21209 5.45276 4.40413 5.08385C4.73051 4.45608 5.17907 3.95149 5.71909 3.508C6.02319 3.25824 6.34214 3.04189 6.70801 2.89878C6.97059 2.79584 7.24499 2.71923 7.4988 2.59907C7.67228 2.51672 7.82045 2.38036 7.97875 2.26628C8.45802 1.92033 8.92683 1.55851 9.4196 1.23281C9.72302 1.03199 10.0548 0.86762 10.3889 0.721139C10.6951 0.587146 11.0228 0.502767 11.3384 0.3897C11.6067 0.293508 11.8889 0.253006 12.1595 0.178753C12.4258 0.10585 12.6979 0.150065 12.9486 0.0771614C13.3277 -0.0325308 13.7064 0.00459582 14.084 0.0120211C14.4229 0.0187714 14.7648 0.0531979 15.0976 0.115976C15.4449 0.181453 15.7841 0.292158 16.1253 0.3897C16.367 0.45889 16.6093 0.528418 16.8442 0.616847C17.0241 0.68435 17.1912 0.785267 17.3671 0.864245C17.5625 0.952337 17.7623 1.0303 17.9587 1.11637C18.1211 1.18758 18.2814 1.2642 18.4424 1.33913C18.6331 1.42823 18.8244 1.51599 19.0138 1.60813C19.2639 1.72963 19.5116 1.8562 19.7617 1.97804C20.2572 2.21937 20.6973 2.54642 21.0865 2.92781C21.4108 3.24575 21.7007 3.60453 21.9697 3.97174C22.1864 4.2674 22.3602 4.59682 22.5314 4.92252C22.6336 5.1176 22.7028 5.33226 22.771 5.54321C22.8706 5.85102 22.9556 6.16356 23.0467 6.47441C23.0515 6.49027 23.0521 6.50783 23.0535 6.52436C23.0869 6.97056 23.1524 7.41776 23.1436 7.86328C23.1365 8.22544 23.0397 8.5859 22.986 8.94772C22.9769 9.00847 22.9846 9.07159 22.9846 9.09892C23.6084 9.02298 24.2038 8.90553 24.8018 8.89034C25.3935 8.87515 25.9879 8.96291 26.6133 9.0078C26.5907 8.92308 26.565 8.82621 26.538 8.72935C26.5292 8.69762 26.5144 8.66724 26.5059 8.63518C26.3807 8.16468 26.3743 7.68305 26.3976 7.20277C26.4135 6.87605 26.4455 6.5463 26.5154 6.22735C26.5701 5.97793 26.6875 5.74099 26.7881 5.50305C26.891 5.2597 26.9778 5.00217 27.1243 4.7865C27.3335 4.47801 27.5688 4.17965 27.8334 3.91808C28.1162 3.63861 28.4267 3.37569 28.7615 3.16339C29.066 2.97034 29.4156 2.84444 29.7532 2.70809C30.0191 2.60076 30.2773 2.49377 30.5062 2.31049C30.8578 2.02901 31.221 1.76001 31.595 1.5089C31.9575 1.26555 32.3301 1.03267 32.7162 0.830156C32.9879 0.687725 33.2876 0.596596 33.5792 0.496354C33.8111 0.416701 34.0538 0.368436 34.2853 0.288108C34.6593 0.158165 35.0494 0.138252 35.4345 0.0761489C35.8375 0.0110086 36.2361 -0.0051921 36.6371 0.0103336C36.9817 0.0234966 37.329 0.0538729 37.6679 0.116651C38.0094 0.180103 38.3429 0.288783 38.6777 0.384637C38.9241 0.455178 39.1712 0.526731 39.4105 0.617522C39.5951 0.687388 39.7662 0.792355 39.9471 0.873358C40.1398 0.959424 40.3386 1.03233 40.5317 1.11704C40.6961 1.18893 40.8567 1.2696 41.0191 1.34655C41.201 1.43262 41.3816 1.52071 41.5645 1.60475C41.8014 1.71343 42.0478 1.80422 42.275 1.93012C42.5352 2.07457 42.7853 2.23995 43.0279 2.41209C43.4586 2.71787 43.8579 3.06315 44.1866 3.47863C44.4097 3.76046 44.6227 4.05342 44.8107 4.35955C44.946 4.57994 45.0331 4.83038 45.1405 5.06765C45.2333 5.27252 45.3305 5.47571 45.4142 5.68429C45.4591 5.79567 45.4861 5.91515 45.5097 6.03328C45.5553 6.26009 45.6055 6.48724 45.6302 6.71675C45.672 7.10523 45.7301 7.49674 45.7163 7.88488C45.7028 8.26459 45.6106 8.64193 45.5472 9.01927C45.5144 9.21435 45.4797 9.41045 45.427 9.60047C45.3885 9.73953 45.319 9.86981 45.263 10.0038C45.2218 10.1024 45.1789 10.1999 45.1398 10.2991C45.0321 10.5722 44.9319 10.8483 44.8168 11.1179C44.7348 11.3103 44.6281 11.4919 44.5424 11.6829C44.4894 11.8017 44.4553 11.9286 44.4077 12.0667C45.1334 12.122 45.7544 12.3894 46.2067 12.9368C46.6049 13.4188 46.7943 13.9892 46.7571 14.6355C46.718 15.3207 46.4412 15.8772 45.9356 16.3211C45.428 16.7669 44.8215 16.9529 44.1549 16.9185C44.105 17.1443 44.0668 17.3515 44.0111 17.554C43.9696 17.7052 43.9038 17.8493 43.8518 17.9975C43.8042 18.1332 43.7698 18.2743 43.7121 18.4052C43.6324 18.5861 43.5376 18.7606 43.4471 18.9368C43.3709 19.0853 43.2949 19.2345 43.2122 19.3793C42.9696 19.8049 42.6736 20.1903 42.3641 20.5704C41.9331 21.0996 41.4048 21.5134 40.8733 21.9265C40.7146 22.05 40.53 22.1398 40.3609 22.2505C40.3305 22.2704 40.3002 22.3167 40.2998 22.3511C40.2964 23.0481 40.2971 23.745 40.2971 24.4217C40.5499 24.5406 40.7811 24.6587 41.0197 24.7593C41.2202 24.8436 41.4329 24.8997 41.634 24.983C41.8325 25.0654 42.0222 25.1687 42.2179 25.2588C42.3104 25.3013 42.4076 25.3334 42.5018 25.3719C42.7292 25.465 42.955 25.5622 43.1835 25.6527C43.3921 25.735 43.6044 25.8076 43.8127 25.8906C43.9882 25.9608 44.159 26.0425 44.3338 26.1151C44.5626 26.2099 44.7945 26.2983 45.0227 26.3942C45.2005 26.4688 45.3743 26.5528 45.5515 26.6294C45.7598 26.7195 45.969 26.8066 46.1786 26.8937C46.3747 26.975 46.5719 27.0537 46.7676 27.1357C46.9698 27.2204 47.176 27.2967 47.3711 27.3956C47.7002 27.5623 48.0363 27.7216 48.3421 27.9251C48.7326 28.1854 49.0404 28.5398 49.2963 28.9336C49.3975 29.0899 49.4822 29.2587 49.5592 29.4284C49.6611 29.6532 49.7482 29.8848 49.8417 30.1136C49.8457 30.1237 49.8498 30.1345 49.8511 30.1457C49.8876 30.413 49.9544 30.6806 49.9548 30.9479C49.9622 34.5931 49.9568 38.2379 49.9652 41.8831C49.9662 42.3134 49.5636 42.7079 49.139 42.7049C47.339 42.6928 45.5391 42.6998 43.7391 42.7002C43.6726 42.7002 43.6061 42.7002 43.5146 42.7002C43.5146 42.7792 43.5146 42.844 43.5146 42.9091C43.5146 44.9622 43.5113 47.0153 43.5184 49.0684C43.5194 49.3728 43.4249 49.6199 43.1886 49.7995C43.09 49.8744 42.9581 49.9142 42.8352 49.9456C42.7451 49.9686 42.6452 49.953 42.5494 49.953C30.8379 49.953 19.1265 49.9527 7.4151 49.9561C7.20652 49.9561 7.00029 49.9513 6.8285 49.8352C6.71712 49.7596 6.63477 49.6361 6.55106 49.5254C6.39716 49.3212 6.45217 49.0792 6.45183 48.8514C6.4488 46.8769 6.45015 44.9025 6.45015 42.9283C6.4515 42.8615 6.45149 42.7943 6.45149 42.7005ZM33.1276 20.9339C33.6035 20.9896 34.0534 20.889 34.4936 21.0392C34.7663 21.1323 35.0272 21.2356 35.256 21.4074C35.6333 21.6913 35.9412 22.0335 36.0843 22.4956C36.1518 22.7139 36.2321 22.9353 36.2513 23.1601C36.2743 23.4278 36.2594 23.6947 36.1818 23.9685C36.1011 24.2527 35.9965 24.5281 35.8277 24.7481C35.5405 25.1224 35.1966 25.4454 34.72 25.6027C34.4362 25.6962 34.1621 25.7914 33.859 25.7836C33.5948 25.7772 33.3301 25.7816 33.0659 25.7829C32.9997 25.7833 32.9336 25.7904 32.8742 25.7937C32.8245 26.0114 32.7871 26.2177 32.729 26.4181C32.6794 26.5893 32.6048 26.7533 32.5444 26.9214C32.4992 27.0469 32.4685 27.1786 32.4138 27.2997C32.3301 27.4847 32.2356 27.6653 32.1384 27.8435C32.0186 28.0629 31.8974 28.2822 31.7648 28.4942C31.6655 28.6532 31.5555 28.8071 31.4363 28.9515C31.1687 29.2755 30.9091 29.6097 30.6138 29.9077C30.3344 30.1899 30.0201 30.4396 29.7083 30.6877C29.5453 30.8173 29.3519 30.9078 29.178 31.0245C29.0899 31.0836 29.0019 31.1359 29.0049 31.2811C29.0164 31.8771 29.0093 32.4735 29.01 33.0699C29.01 33.1195 29.0154 33.1691 29.0174 33.2039C29.1267 33.2501 29.2189 33.3011 29.3178 33.3281C29.4879 33.3747 29.6627 33.4047 29.8345 33.4449C29.9854 33.48 30.1369 33.5134 30.2847 33.5586C30.5723 33.6464 30.8548 33.7503 31.1441 33.8313C31.4515 33.917 31.7651 33.9815 32.0746 34.0601C32.2234 34.098 32.3699 34.1455 32.5171 34.1901C32.6747 34.238 32.831 34.2924 32.9899 34.3352C33.1661 34.3828 33.347 34.4139 33.5222 34.4648C33.8131 34.5495 34.0993 34.6525 34.3913 34.7335C34.7001 34.8196 35.0137 34.8887 35.3249 34.966C35.4538 34.9981 35.5837 35.0275 35.711 35.0666C35.9941 35.1534 36.2733 35.2529 36.5581 35.3329C36.8605 35.418 37.1684 35.4841 37.4725 35.5624C37.6318 35.6036 37.789 35.6522 37.9467 35.6995C38.104 35.7467 38.2589 35.8024 38.4175 35.8439C38.593 35.8898 38.7726 35.9202 38.9487 35.9637C39.0814 35.9965 39.2117 36.0376 39.3423 36.0778C39.5249 36.1342 39.7048 36.1983 39.8887 36.2496C40.0578 36.2969 40.236 36.3164 40.3997 36.3758C40.7156 36.4909 41.0231 36.628 41.3363 36.7512C41.6607 36.8787 41.9239 37.1008 42.1788 37.3236C42.5338 37.6341 42.8288 38.002 43.0256 38.4374C43.1572 38.7293 43.3094 39.0169 43.3958 39.3227C43.4748 39.6015 43.4843 39.9012 43.5106 40.1931C43.5258 40.3605 43.514 40.5303 43.5143 40.6991C43.5146 40.8256 43.5143 40.9522 43.5143 41.0815C45.1371 41.0815 46.7322 41.0815 48.3485 41.0815C48.3485 41.0116 48.3485 40.9515 48.3485 40.8914C48.3485 37.6682 48.3472 34.4449 48.3499 31.2217C48.3502 30.7316 48.2142 30.2932 47.9665 29.8675C47.6502 29.3245 47.1473 29.0481 46.609 28.8061C46.3855 28.7055 46.157 28.6164 45.9296 28.5249C45.7314 28.4453 45.5299 28.3734 45.3325 28.2914C45.1273 28.2056 44.9265 28.1094 44.7219 28.022C44.537 27.943 44.349 27.8705 44.1627 27.7949C43.9517 27.7091 43.7404 27.6248 43.5308 27.5363C43.3469 27.4587 43.166 27.3743 42.9817 27.297C42.766 27.2069 42.5473 27.1232 42.3313 27.0331C42.1467 26.9561 41.9644 26.8724 41.7798 26.7955C41.5641 26.7054 41.3461 26.621 41.1304 26.5305C40.9462 26.4532 40.7663 26.3658 40.581 26.2916C40.3758 26.2096 40.1631 26.1451 39.9593 26.0594C39.6801 25.9416 39.4088 25.8049 39.1293 25.6881C38.9079 25.5956 38.6862 25.3168 38.6858 25.0809C38.6831 23.956 38.6791 22.8307 38.6912 21.7058C38.6926 21.5795 38.7807 21.4459 38.8526 21.3308C39.0125 21.0753 39.3129 21.0105 39.5438 20.8498C39.859 20.6304 40.1952 20.4337 40.4804 20.1799C40.8014 19.8943 41.0889 19.5673 41.3657 19.2368C41.5621 19.0023 41.7322 18.7417 41.8838 18.4754C42.0188 18.2388 42.118 17.9813 42.2223 17.7282C42.3212 17.4885 42.4248 17.2479 42.491 16.9981C42.5558 16.7534 42.572 16.4962 42.6175 16.2458C42.6462 16.0878 42.658 15.9147 42.7336 15.7797C42.8872 15.5046 43.1143 15.3062 43.4583 15.3048C43.734 15.3038 44.0111 15.2842 44.2848 15.3078C44.8131 15.3531 45.3433 14.699 45.0459 14.1701C44.8792 13.8734 44.6743 13.708 44.3429 13.6972C44.1461 13.6908 43.949 13.7009 43.7523 13.6938C43.5555 13.6868 43.3628 13.7134 43.1677 13.6071C42.8889 13.4552 42.7313 13.2402 42.713 12.9358C42.6945 12.6276 42.7036 12.3171 42.711 12.008C42.713 11.9303 42.7502 11.8517 42.7789 11.7764C42.8541 11.58 42.9314 11.3842 43.0117 11.1895C43.089 11.0025 43.1687 10.8169 43.251 10.6323C43.3337 10.448 43.4279 10.2684 43.5052 10.0818C43.5875 9.88263 43.6571 9.67844 43.7303 9.47559C43.8248 9.21402 43.9321 8.95582 44.0057 8.68851C44.0624 8.48262 44.0776 8.26493 44.1073 8.05195C44.1738 7.57471 44.029 7.11198 44.0067 6.64081C44.0061 6.63001 44.0013 6.61887 43.9976 6.60841C43.9402 6.44707 43.8815 6.28574 43.8248 6.12407C43.7489 5.90637 43.6986 5.67552 43.5933 5.47368C43.4465 5.19253 43.2818 4.91408 43.0819 4.66938C42.8615 4.39904 42.6088 4.1486 42.3401 3.92584C42.0721 3.70375 41.7741 3.51475 41.4754 3.33418C41.2675 3.20862 41.0366 3.11985 40.8145 3.0186C40.6154 2.92781 40.4129 2.84377 40.2131 2.75433C39.9599 2.64092 39.7085 2.5238 39.4554 2.4104C39.2697 2.32737 39.0841 2.244 38.8958 2.16739C38.6791 2.0793 38.4624 1.98817 38.2396 1.9183C38.0499 1.8589 37.8525 1.8211 37.6561 1.78566C37.3229 1.72558 36.9891 1.64154 36.6533 1.62939C36.2699 1.61522 35.8838 1.67192 35.4987 1.69183C35.0346 1.71579 34.5901 1.82785 34.1598 1.99357C33.8027 2.13094 33.4304 2.2494 33.1047 2.44314C32.6312 2.7253 32.1904 3.06383 31.7415 3.38649C31.5126 3.55086 31.3017 3.73953 31.0735 3.90458C30.7627 4.1297 30.3674 4.15062 30.0316 4.31837C29.871 4.3987 29.684 4.44392 29.5483 4.55395C29.231 4.81114 28.9033 5.05145 28.6633 5.40483C28.4392 5.73492 28.2627 6.08053 28.1253 6.44707C27.9839 6.82441 27.9734 7.22707 28.0038 7.62466C28.0244 7.89602 28.0484 8.1765 28.1358 8.43065C28.2651 8.8063 28.4507 9.16238 28.6154 9.52554C28.6508 9.60385 28.6819 9.70274 28.746 9.74594C28.876 9.83369 29.0251 9.89478 29.1699 9.95857C29.4325 10.0737 29.7015 10.1742 29.9607 10.2961C30.2723 10.4422 30.577 10.6026 30.8838 10.7592C31.0941 10.8665 31.3172 10.9566 31.5086 11.0913C31.8154 11.3069 32.1198 11.5331 32.3895 11.792C32.6632 12.0549 32.9072 12.3526 33.1391 12.6543C33.3075 12.8737 33.4452 13.1191 33.5772 13.3638C33.7426 13.6699 33.9117 13.9777 34.0349 14.3017C34.1439 14.5886 34.207 14.8961 34.2624 15.1995C34.3359 15.6038 34.4058 16.0116 34.4338 16.421C34.4736 17.0049 34.3461 17.5773 34.2313 18.1463C34.1857 18.3718 34.1166 18.5952 34.0322 18.8092C33.9215 19.0904 33.7827 19.3604 33.6599 19.6368C33.5252 19.9402 33.3929 20.2447 33.2643 20.5505C33.2154 20.6689 33.1783 20.7914 33.1276 20.9339ZM17.0822 25.7829C16.9759 25.7829 16.8588 25.784 16.7416 25.7826C16.2232 25.7769 15.6964 25.8413 15.209 25.5872C15.0514 25.5052 14.8661 25.4603 14.7338 25.3499C14.4705 25.1305 14.2221 24.8939 14.0398 24.5908C13.8758 24.3185 13.7702 24.0225 13.727 23.7231C13.6824 23.4163 13.6838 23.1 13.782 22.7794C13.8815 22.4551 14.002 22.1526 14.2093 21.8914C14.6706 21.3095 15.2738 20.9845 16.0221 20.9511C16.2242 20.942 16.4271 20.9514 16.6296 20.9474C16.6907 20.946 16.7518 20.9285 16.823 20.9167C16.7801 20.8535 16.7491 20.8161 16.7275 20.7742C16.6326 20.5903 16.5385 20.4063 16.4483 20.22C16.3332 19.9824 16.2229 19.7428 16.1091 19.5045C16.0352 19.3499 15.9596 19.196 15.8833 19.0424C15.7601 18.7944 15.6248 18.5517 15.5158 18.2979C15.4253 18.0879 15.3551 17.8679 15.2944 17.6472C15.2242 17.3917 15.1364 17.1324 15.1236 16.8715C15.0979 16.3477 15.0409 15.8175 15.2009 15.3004C15.3133 14.9379 15.3899 14.5606 15.5401 14.2146C15.7088 13.8251 15.9195 13.4468 16.2171 13.1339C16.4909 12.846 16.7565 12.5433 17.0673 12.3002C17.3735 12.061 17.7225 11.8709 18.0704 11.6937C18.281 11.5864 18.5254 11.5446 18.7546 11.474C18.7806 11.4659 18.813 11.4686 18.8332 11.4538C18.9581 11.3626 19.0793 11.2658 19.2038 11.1746C19.4067 11.0261 19.6095 10.8769 19.8161 10.7335C20.1482 10.503 20.486 10.2802 20.8158 10.0467C20.9062 9.98254 21.0055 9.90423 21.051 9.80872C21.1449 9.61228 21.1962 9.39594 21.2809 9.19444C21.4452 8.80394 21.4871 8.38643 21.5289 7.97534C21.559 7.68035 21.4942 7.37625 21.4783 7.07586C21.456 6.65127 21.32 6.25773 21.1803 5.86047C21.0213 5.40854 20.7668 5.01534 20.484 4.64137C20.111 4.14826 19.6375 3.75337 19.1083 3.43881C18.7745 3.24035 18.4113 3.09015 18.0566 2.92882C17.655 2.74623 17.2388 2.59367 16.8456 2.39521C16.3758 2.15895 15.8901 1.96724 15.3872 1.83325C14.996 1.72896 14.5886 1.67867 14.1853 1.62804C13.623 1.55784 13.0671 1.67361 12.5099 1.72761C12.3512 1.74313 12.1933 1.78634 12.0411 1.83494C11.7873 1.91594 11.5345 2.00302 11.2877 2.10326C11.0248 2.21025 10.7548 2.31117 10.5145 2.45866C10.1372 2.6902 9.77905 2.95414 9.41926 3.21335C9.15634 3.40269 8.91029 3.61566 8.645 3.8013C8.43811 3.94643 8.2383 4.11012 7.96457 4.13375C7.84205 4.14455 7.71853 4.19484 7.60478 4.24749C7.43299 4.32714 7.26457 4.41692 7.10391 4.51716C6.9176 4.63361 6.72724 4.75005 6.56456 4.89552C6.3823 5.05888 6.22199 5.2489 6.06572 5.43824C5.97897 5.54355 5.90945 5.66674 5.85106 5.79061C5.76803 5.96679 5.69344 6.14837 5.63235 6.33299C5.56012 6.55103 5.48958 6.77244 5.44908 6.9979C5.41971 7.16159 5.42646 7.33575 5.44098 7.50282C5.46764 7.80456 5.51253 8.10461 5.55033 8.40533C5.55236 8.42153 5.55978 8.4374 5.56653 8.45225C5.62391 8.57612 5.68331 8.69897 5.739 8.82351C5.81866 9.00172 5.89088 9.18364 5.97459 9.35982C6.06133 9.54242 6.15921 9.71995 6.25067 9.90018C6.32999 10.0568 6.40492 10.2151 6.48525 10.371C6.57266 10.5408 6.66582 10.7079 6.7529 10.878C6.84065 11.0491 6.93144 11.2192 7.00738 11.3954C7.11674 11.6488 7.27874 11.8838 7.25984 12.1825C7.24634 12.3954 7.24229 12.6111 7.26119 12.8234C7.30372 13.2952 6.84909 13.7354 6.39277 13.6999C6.13558 13.68 5.87435 13.6827 5.61716 13.7026C5.46933 13.7141 5.30293 13.7475 5.18514 13.8292C4.92188 14.0118 4.72005 14.4431 4.91648 14.8211C5.08827 15.1519 5.3269 15.2994 5.6796 15.3045C5.87637 15.3072 6.07348 15.3041 6.27025 15.3055C6.47478 15.3068 6.68033 15.2862 6.86934 15.404C7.03911 15.5097 7.19403 15.6383 7.24735 15.8266C7.31216 16.0548 7.32802 16.2971 7.36515 16.533C7.37291 16.5826 7.37696 16.6336 7.3908 16.6815C7.44581 16.8702 7.5015 17.0589 7.56192 17.2458C7.63381 17.4686 7.6949 17.6971 7.79075 17.9097C7.89504 18.1409 8.02431 18.3623 8.15999 18.577C8.34191 18.8652 8.51877 19.1609 8.73647 19.4208C9.03382 19.7759 9.35851 20.1053 9.73855 20.3834C10.0838 20.6365 10.4406 20.862 10.8149 21.0679C11.0613 21.2035 11.2702 21.4199 11.2742 21.7149C11.2894 22.8395 11.2854 23.9648 11.2729 25.0897C11.2715 25.2159 11.1892 25.3523 11.1153 25.4647C10.9982 25.6425 10.8149 25.735 10.6093 25.79C10.5003 25.8194 10.396 25.8687 10.2924 25.9156C10.178 25.9676 10.0686 26.031 9.95422 26.0827C9.81685 26.1441 9.67645 26.1984 9.53739 26.2558C9.35142 26.3324 9.16646 26.4114 8.97948 26.485C8.78237 26.5626 8.58189 26.6311 8.38579 26.7108C8.16506 26.8005 7.94803 26.8994 7.72865 26.9926C7.53829 27.0733 7.34625 27.1506 7.15555 27.2305C6.86394 27.3527 6.57334 27.4769 6.28173 27.5984C6.07584 27.6842 5.86827 27.7658 5.66272 27.8526C5.47844 27.9305 5.29821 28.017 5.11291 28.0926C4.82974 28.208 4.54218 28.3123 4.26035 28.4301C3.98966 28.5431 3.7237 28.667 3.45605 28.7875C3.22756 28.8904 2.99163 28.9812 2.77326 29.1027C2.25855 29.3889 1.92846 29.8429 1.74148 30.386C1.65103 30.6482 1.62335 30.9432 1.62267 31.2233C1.61491 34.4463 1.61761 37.6695 1.61761 40.8928C1.61761 40.9529 1.61761 41.0129 1.61761 41.0798C3.23802 41.0798 4.83716 41.0798 6.45183 41.0798C6.45183 40.8776 6.46027 40.6869 6.45015 40.4972C6.42854 40.1044 6.48491 39.7203 6.5595 39.3372C6.56254 39.3207 6.56287 39.3031 6.56929 39.2879C6.69383 38.9983 6.79947 38.6979 6.95 38.4225C7.10965 38.1306 7.27706 37.8278 7.50589 37.5926C7.7786 37.3124 8.11308 37.0893 8.43473 36.8612C8.58087 36.7576 8.75739 36.6934 8.92581 36.6249C9.15769 36.5304 9.39158 36.4386 9.63021 36.364C9.80808 36.3083 9.99573 36.2844 10.1777 36.2408C10.3103 36.2091 10.4416 36.17 10.5725 36.1311C10.7764 36.0711 10.9789 36.0052 11.1834 35.9482C11.3424 35.904 11.5061 35.8763 11.6641 35.8294C11.9523 35.7433 12.2355 35.6404 12.5251 35.5594C12.8275 35.475 13.1353 35.4109 13.4394 35.3333C13.5832 35.2965 13.7239 35.2492 13.866 35.207C14.0503 35.1523 14.2339 35.095 14.4195 35.044C14.5799 34.9998 14.7436 34.9684 14.9032 34.9222C15.1995 34.8364 15.4928 34.7386 15.7902 34.6562C16.0885 34.5735 16.3906 34.504 16.6907 34.4274C16.825 34.3929 16.9593 34.3585 17.0916 34.3183C17.3752 34.2323 17.6553 34.1354 17.9405 34.0568C18.248 33.9717 18.5619 33.9093 18.8693 33.8236C19.1593 33.7425 19.4421 33.6356 19.732 33.5546C20.134 33.4425 20.54 33.3439 20.9447 33.2397C20.9501 33.1877 20.9562 33.1549 20.9562 33.1222C20.9569 32.4978 20.9542 31.8734 20.9585 31.249C20.9596 31.113 20.8559 31.0796 20.7736 31.0215C20.7395 30.9972 20.6993 30.9813 20.6646 30.9577C20.4999 30.8453 20.3267 30.7427 20.1738 30.6165C19.8589 30.3566 19.5386 30.0998 19.2507 29.8115C18.9665 29.5267 18.7154 29.208 18.4579 28.8972C18.3418 28.7568 18.2321 28.6073 18.1437 28.4483C17.9911 28.1736 17.8521 27.8907 17.7174 27.6065C17.5821 27.3213 17.4393 27.0375 17.3357 26.7405C17.2314 26.4404 17.171 26.1259 17.0822 25.7829ZM41.9027 48.3313C41.9027 48.2499 41.9027 48.1784 41.9027 48.1068C41.9027 45.992 41.903 43.8771 41.9027 41.7619C41.9027 41.2219 41.9256 40.6805 41.8905 40.1425C41.8716 39.8519 41.7879 39.5522 41.6691 39.2852C41.4926 38.8873 41.2125 38.5545 40.8358 38.3192C40.6667 38.2136 40.5064 38.0921 40.2975 38.0607C40.1712 38.0418 40.0487 37.9959 39.9265 37.9551C39.7557 37.8977 39.59 37.8241 39.4169 37.7758C39.2333 37.7245 39.0439 37.6952 38.8573 37.656C38.8411 37.6527 38.8249 37.6476 38.8094 37.6415C38.6548 37.5841 38.5036 37.5149 38.3449 37.4717C38.1566 37.4204 37.9619 37.3918 37.7701 37.3526C37.7485 37.3482 37.7283 37.3374 37.707 37.3303C37.5383 37.275 37.3715 37.2132 37.2004 37.167C37.0226 37.1187 36.84 37.0883 36.6607 37.0448C36.5389 37.0151 36.4177 36.9803 36.2982 36.9415C36.1251 36.8848 35.956 36.8139 35.7808 36.7647C35.6016 36.7147 35.4163 36.6874 35.2354 36.6435C35.092 36.6087 34.9505 36.5662 34.8095 36.523C34.6373 36.4703 34.4679 36.4076 34.2944 36.3593C34.125 36.312 33.9515 36.2796 33.7807 36.2371C33.6477 36.204 33.5148 36.1693 33.3838 36.1281C33.2123 36.0741 33.0453 36.0049 32.8725 35.9573C32.6872 35.906 32.4948 35.8807 32.3102 35.8281C32.0209 35.746 31.7374 35.6434 31.4478 35.5631C31.14 35.4777 30.8278 35.4092 30.518 35.3306C30.3951 35.2995 30.2736 35.2624 30.1521 35.2259C29.8578 35.1372 29.5642 35.0454 29.2692 34.9586C29.0471 34.8935 28.8236 34.8334 28.6002 34.7723C28.5189 34.75 28.452 34.7359 28.3798 34.8236C28.2678 34.9596 28.1253 35.0707 27.9991 35.1959C27.5435 35.6482 27.0881 36.1011 26.6352 36.5557C26.3163 36.8757 26.0081 37.2065 25.6811 37.5173C25.541 37.6503 25.379 37.79 25.2014 37.8457C24.9591 37.922 24.6985 37.8825 24.4954 37.6942C24.308 37.5207 24.1278 37.3394 23.9466 37.1595C23.5544 36.7701 23.1649 36.3782 22.7723 35.9897C22.3788 35.6002 21.9782 35.2171 21.5914 34.8212C21.5127 34.7409 21.4513 34.7527 21.3703 34.778C21.1918 34.8334 21.0146 34.8941 20.8343 34.9438C20.6686 34.9893 20.4989 35.0204 20.3321 35.0632C20.1826 35.1017 20.0348 35.1456 19.8869 35.1898C19.7192 35.2398 19.5531 35.2958 19.3844 35.342C19.2143 35.3886 19.0401 35.42 18.8707 35.4689C18.5706 35.556 18.2736 35.6549 17.9739 35.7433C17.633 35.8436 17.2914 35.9415 16.9482 36.0326C16.6454 36.1133 16.3397 36.1821 16.0359 36.2584C15.8813 36.2972 15.7267 36.3363 15.5742 36.3822C15.4017 36.4346 15.234 36.5027 15.0601 36.5493C14.8796 36.5976 14.6909 36.6165 14.5124 36.6695C14.2272 36.7539 13.9487 36.8605 13.6645 36.9486C13.4266 37.0225 13.1846 37.0843 12.9443 37.1508C12.6996 37.2186 12.4545 37.2861 12.2098 37.354C11.9719 37.4201 11.7343 37.4876 11.4963 37.5531C11.2425 37.623 10.9894 37.6955 10.7339 37.7586C10.5499 37.8042 10.3626 37.8363 10.177 37.8744C10.155 37.8788 10.1311 37.8781 10.1108 37.8862C9.96367 37.9446 9.82158 38.0229 9.66936 38.06C9.39192 38.1275 9.17119 38.2821 8.95552 38.4573C8.33314 38.9632 8.06245 39.6227 8.06346 40.4142C8.06684 42.9847 8.06481 45.5552 8.06481 48.1257C8.06481 48.1915 8.06481 48.257 8.06481 48.3299C9.68455 48.3299 11.2837 48.3299 12.8994 48.3299C12.8994 46.184 12.8994 44.0492 12.8994 41.903C12.9703 41.8999 13.0249 41.8952 13.0796 41.8952C13.4904 41.8945 13.9011 41.903 14.3112 41.8908C14.4766 41.8861 14.5151 41.9381 14.5147 42.0981C14.5093 44.1063 14.511 46.1141 14.511 48.1224C14.511 48.1922 14.511 48.2624 14.511 48.3296C21.5077 48.3296 28.4743 48.3296 35.4572 48.3296C35.4572 48.2466 35.4572 48.1747 35.4572 48.1028C35.4572 46.1229 35.4572 44.1431 35.4572 42.1629C35.4572 42.118 35.4612 42.0724 35.4565 42.0279C35.4453 41.9242 35.4896 41.8901 35.5918 41.8925C35.8281 41.8982 36.0643 41.8942 36.3006 41.8942C36.5521 41.8942 36.8035 41.8942 37.0708 41.8942C37.0708 44.0506 37.0708 46.1854 37.0708 48.3303C38.6814 48.3313 40.2769 48.3313 41.9027 48.3313ZM19.5967 19.0323C19.5018 19.2092 19.4212 19.3492 19.3506 19.4944C19.2679 19.6648 19.1977 19.8417 19.1161 20.0128C19.0256 20.2018 18.9284 20.3874 18.8336 20.5741C18.789 20.6618 18.7411 20.7482 18.6975 20.8367C18.631 20.9713 18.5332 21.0874 18.5342 21.2555C18.5399 22.3126 18.5288 23.3701 18.543 24.4268C18.5477 24.7788 18.6111 25.1299 18.6483 25.4812C18.6499 25.4977 18.6543 25.5146 18.6594 25.5305C18.7178 25.707 18.7799 25.8825 18.8346 26.0604C18.8788 26.2048 18.898 26.3587 18.9574 26.4961C19.0816 26.783 19.2058 27.0729 19.3651 27.3402C19.5531 27.6558 19.7617 27.9626 19.9916 28.2488C20.4155 28.777 20.9258 29.2215 21.4925 29.5874C21.8611 29.8254 22.2722 29.9985 22.6674 30.1946C22.768 30.2445 22.8787 30.2776 22.9884 30.305C23.1686 30.3502 23.3522 30.3826 23.5338 30.4234C23.7893 30.4811 24.0414 30.5763 24.2993 30.5949C24.9632 30.6432 25.6277 30.6256 26.2849 30.5004C26.4351 30.4717 26.5856 30.4373 26.7297 30.3873C26.9697 30.3039 27.2073 30.2121 27.4415 30.1129C27.6879 30.0086 27.941 29.9114 28.1695 29.7747C28.4504 29.6066 28.7227 29.418 28.9732 29.2074C29.2958 28.936 29.6256 28.6613 29.8929 28.3389C30.225 27.9383 30.5389 27.5154 30.7407 27.0236C30.8531 26.7499 31.0043 26.4921 31.1096 26.216C31.1997 25.9797 31.2639 25.731 31.3135 25.4826C31.3661 25.219 31.4164 24.9493 31.4195 24.6816C31.4326 23.5233 31.4316 22.3649 31.4239 21.2066C31.4232 21.0881 31.3466 20.9693 31.3007 20.8522C31.2743 20.7847 31.2426 20.7189 31.2079 20.6551C31.1171 20.4873 31.0172 20.3243 30.9321 20.1539C30.8497 19.9892 30.7873 19.8143 30.7039 19.65C30.601 19.4468 30.4852 19.25 30.3519 19.0087C30.2918 19.0343 30.1997 19.057 30.1268 19.1076C29.9341 19.2416 29.7555 19.3958 29.5604 19.5261C29.3559 19.6628 29.1416 19.7856 28.9266 19.9055C28.7676 19.9942 28.6022 20.0719 28.4369 20.1481C28.264 20.2281 28.0899 20.3068 27.912 20.3746C27.6619 20.4698 27.4108 20.564 27.1546 20.6396C26.9589 20.6973 26.7557 20.7314 26.5539 20.7661C26.1931 20.8282 25.8329 20.9099 25.4694 20.9339C24.922 20.9703 24.3722 20.9602 23.8288 20.8519C23.5783 20.8019 23.3245 20.7692 23.0724 20.728C23.0562 20.7253 23.041 20.7158 23.0251 20.7104C22.7707 20.6244 22.5152 20.5413 22.262 20.4522C22.0464 20.3766 21.8246 20.3115 21.6211 20.2106C21.3416 20.0725 21.0706 19.9142 20.8067 19.7478C20.5103 19.5609 20.2288 19.3513 19.9352 19.1599C19.8279 19.0914 19.7324 18.956 19.5967 19.0323ZM17.8028 19.0374C17.8288 18.9598 17.8413 18.8993 17.8683 18.8467C17.952 18.683 18.0468 18.5247 18.1275 18.3596C18.2092 18.1926 18.2719 18.0164 18.3556 17.851C18.4403 17.6836 18.5538 17.5297 18.6317 17.3596C18.7556 17.0892 18.9794 16.965 19.25 16.9208C19.5309 16.8753 19.7492 17.0106 19.9598 17.1898C20.1883 17.3846 20.4455 17.5456 20.6885 17.7238C20.8654 17.8537 21.0362 17.9924 21.2157 18.1187C21.401 18.2489 21.5904 18.3745 21.7844 18.4909C21.9313 18.579 22.0865 18.6529 22.2414 18.7269C22.3795 18.7927 22.5206 18.8524 22.6627 18.9088C22.7781 18.9544 22.8949 18.9989 23.0147 19.03C23.1953 19.0765 23.3785 19.1147 23.5621 19.1491C23.9023 19.2132 24.2415 19.3027 24.5851 19.326C25.0681 19.3587 25.5548 19.354 26.0334 19.2406C26.2477 19.1896 26.4688 19.167 26.6848 19.1214C26.8073 19.0954 26.9278 19.0549 27.0453 19.0104C27.181 18.9587 27.3109 18.8933 27.4449 18.8369C27.6241 18.7613 27.8125 18.7039 27.9822 18.6114C28.1918 18.4974 28.3899 18.3603 28.587 18.2243C28.8918 18.014 29.1919 17.7963 29.494 17.5817C29.7687 17.3866 30.0458 17.1945 30.3175 16.9951C30.5838 16.7997 31.0742 16.964 31.2227 17.1952C31.3398 17.3775 31.434 17.5746 31.5356 17.7666C31.5791 17.849 31.6129 17.9364 31.6557 18.0188C31.7475 18.196 31.842 18.3721 31.9365 18.548C32.0105 18.6854 32.0864 18.8217 32.1762 18.9857C32.2761 18.7896 32.3716 18.6415 32.43 18.4801C32.541 18.1744 32.6521 17.8659 32.723 17.5493C32.7874 17.2617 32.8289 16.9623 32.8266 16.6684C32.8232 16.2957 32.7712 15.9228 32.728 15.5512C32.7115 15.4101 32.673 15.268 32.6231 15.1347C32.5397 14.9129 32.4445 14.6949 32.3439 14.4799C32.2396 14.2575 32.1445 14.0263 32.0061 13.8258C31.835 13.5771 31.6405 13.3388 31.4252 13.1275C31.1876 12.8946 30.9196 12.6914 30.656 12.4869C30.5146 12.3772 30.36 12.2803 30.201 12.198C30.033 12.1109 29.8521 12.0485 29.6772 11.9739C29.5908 11.9371 29.5044 11.8996 29.4197 11.8588C29.2304 11.767 29.0437 11.6691 28.8523 11.581C28.6785 11.501 28.4976 11.4359 28.3241 11.3552C28.1351 11.2675 27.9556 11.1584 27.7639 11.0784C27.5559 10.992 27.3403 10.9245 27.1249 10.857C26.8168 10.7605 26.51 10.6542 26.1954 10.5843C25.9298 10.5253 25.653 10.48 25.3823 10.4854C24.869 10.4956 24.356 10.5458 23.8433 10.5803C23.8267 10.5813 23.8102 10.5867 23.794 10.5911C23.5939 10.6488 23.3937 10.7058 23.1942 10.7656C22.9563 10.8368 22.7109 10.8905 22.4841 10.9877C22.1992 11.1098 21.9299 11.2681 21.5975 11.4403C21.6984 11.499 21.7618 11.5429 21.8314 11.5739C21.8705 11.5915 21.9252 11.5756 21.963 11.5945C22.2853 11.7542 22.6103 11.9101 22.9246 12.0846C23.1119 12.1889 23.2938 12.3104 23.4572 12.4491C23.819 12.7562 24.1656 13.0806 24.4397 13.4738C24.546 13.6263 24.6682 13.7681 24.7654 13.9261C24.7897 13.9655 24.7654 14.0712 24.7269 14.1053C24.6287 14.1927 24.5078 14.2545 24.3992 14.3307C24.142 14.5113 23.8888 14.6973 23.6293 14.8735C23.5733 14.9116 23.5014 14.9406 23.447 14.8404C23.3863 14.7283 23.3141 14.6183 23.2283 14.5248C22.9833 14.2582 22.7464 13.9797 22.4726 13.7451C22.2566 13.5599 21.9974 13.4205 21.7446 13.2844C21.5755 13.1937 21.3875 13.1322 21.2016 13.0806C20.9407 13.0077 20.676 12.9196 20.4091 12.9041C20.0928 12.8855 19.7766 12.8798 19.4515 12.9655C19.1819 13.0367 18.9031 13.1002 18.6597 13.2186C18.3462 13.3715 18.06 13.5906 17.7849 13.81C17.5459 14.0003 17.3603 14.2497 17.2199 14.5238C17.1045 14.7489 16.9968 14.9791 16.9053 15.2147C16.8307 15.4074 16.7528 15.6086 16.7342 15.8114C16.7055 16.1236 16.7119 16.4412 16.7318 16.7548C16.7437 16.9404 16.7936 17.1277 16.855 17.3046C16.9283 17.5159 17.0312 17.7167 17.122 17.9219C17.1949 18.0863 17.2621 18.2533 17.3438 18.4133C17.447 18.6162 17.5621 18.8129 17.6836 19.0327C17.7012 19.0327 17.7505 19.035 17.8028 19.0374ZM22.6006 31.8599C22.5877 31.9105 22.5655 31.9574 22.5651 32.0047C22.5628 32.4769 22.5628 32.9494 22.5658 33.4216C22.5661 33.4614 22.5823 33.5107 22.609 33.5387C22.8031 33.7429 23.0002 33.944 23.199 34.1435C23.7279 34.6751 24.2591 35.204 24.7873 35.7366C24.9419 35.8925 25.033 35.8959 25.1825 35.7322C25.2598 35.6475 25.328 35.5533 25.4094 35.473C26.0317 34.8584 26.6575 34.2468 27.2795 33.6322C27.3609 33.5519 27.4115 33.4611 27.4078 33.3294C27.396 32.9079 27.4047 32.486 27.402 32.0644C27.4017 31.9966 27.3831 31.9287 27.3713 31.8481C27.32 31.8805 27.295 31.9061 27.2653 31.9136C26.9849 31.9834 26.7061 32.0654 26.4216 32.1137C26.1046 32.1674 25.7833 32.2096 25.4627 32.2207C24.8997 32.2403 24.3354 32.2487 23.7778 32.1319C23.5459 32.0833 23.3083 32.0634 23.0768 32.0131C22.9185 31.9787 22.7673 31.9146 22.6006 31.8599ZM16.9124 22.5556C16.6684 22.5556 16.4342 22.5573 16.1996 22.5553C15.8233 22.5519 15.5512 22.6957 15.3858 23.0548C15.153 23.5601 15.5111 24.0768 15.9532 24.1524C16.2624 24.2054 16.5881 24.1625 16.9124 24.1625C16.9124 23.6239 16.9124 23.0994 16.9124 22.5556ZM33.053 24.1676C33.3123 24.1676 33.563 24.1679 33.8141 24.1676C34.1675 24.1669 34.4105 24.0154 34.5722 23.6883C34.8132 23.201 34.4834 22.6636 34.0139 22.5752C33.7068 22.5172 33.3798 22.5644 33.053 22.5644C33.053 23.1004 33.053 23.6252 33.053 24.1676Z" fill="#115C07"/>
</svg>
