<svg width="15" height="20" viewBox="0 0 15 20" fill="none" xmlns="http://www.w3.org/2000/svg">
<path d="M7.31181 0C3.28005 0 0 3.33899 0 7.44318C0 9.73889 1.1611 12.5253 3.45114 15.7251C5.127 18.0668 6.77841 19.7369 6.84791 19.8069C6.97564 19.9355 7.14369 20 7.31193 20C7.47529 20 7.63877 19.9391 7.76549 19.8171C7.83513 19.75 9.49072 18.1475 11.1698 15.8382C13.4616 12.6858 14.6237 9.86131 14.6237 7.44314C14.6236 3.33899 11.3435 0 7.31181 0ZM7.31181 10.6565C5.34071 10.6565 3.73716 9.05291 3.73716 7.08185C3.73716 5.11079 5.34075 3.50719 7.31181 3.50719C9.28287 3.50719 10.8865 5.11079 10.8865 7.08185C10.8865 9.05291 9.28283 10.6565 7.31181 10.6565Z" fill="#222222"/>
</svg>
