<svg width="70" height="62" viewBox="0 0 70 62" fill="none" xmlns="http://www.w3.org/2000/svg">
<g clip-path="url(#clip0_1477_14619)">
<path d="M67.9 46.9432C69.27 43.8136 69.96 40.4841 69.96 37.0246C69.96 23.7165 59.44 12.8181 46.23 12.2082C41.77 4.64932 33.69 0 24.86 0C11.15 0 0 11.1484 0 24.8564C0 28.3559 0.71 31.7254 2.12 34.8849L0.03 47.3731C-0.08 48.013 0.13 48.6529 0.58 49.1129C0.96 49.4928 1.47 49.7028 2 49.7028C2.11 49.7028 2.21 49.6928 2.32 49.6728L14.94 47.6431C17.71 48.8529 20.66 49.5328 23.74 49.6728C28.21 57.2217 36.28 61.871 45.11 61.871C48.61 61.871 51.98 61.1611 55.14 59.7513L67.63 61.841C67.74 61.861 67.85 61.871 67.96 61.871C68.48 61.871 68.99 61.661 69.37 61.2911C69.83 60.8411 70.04 60.1912 69.93 59.5513L67.9 46.9432ZM15.21 43.5737C15.1 43.5737 15 43.5837 14.89 43.6037L4.43 45.2834L6.16 34.9349C6.23 34.535 6.17 34.115 5.99 33.7451C4.67 30.9655 3.99 27.9759 3.99 24.8564C4 13.3581 13.36 3.99942 24.86 3.99942C32.61 3.99942 39.67 8.2588 43.29 15.1078C44.89 18.1374 45.71 21.4169 45.71 24.8564C45.71 25.4963 45.67 26.1362 45.61 26.7661C45.59 26.9961 45.56 27.216 45.53 27.446C45.48 27.826 45.43 28.1959 45.36 28.5658C45.29 28.9358 45.21 29.2957 45.13 29.6557C45.04 30.0256 44.96 30.3856 44.85 30.7455C44.77 31.0155 44.68 31.2854 44.59 31.5554C44.45 31.9653 44.31 32.3753 44.14 32.7752C44.05 32.9952 43.94 33.2152 43.84 33.4351C43.65 33.8451 43.47 34.255 43.25 34.655C43.12 34.8849 42.98 35.1149 42.85 35.3449C40.61 39.1643 37.21 42.2239 33.11 43.9936C33.03 44.0236 32.96 44.0636 32.88 44.0936C32.36 44.3135 31.83 44.5035 31.29 44.6835C31.05 44.7135 30.82 44.7735 30.61 44.8835C30.21 44.9935 29.81 45.1034 29.4 45.1934C29.24 45.2334 29.08 45.2634 28.92 45.3034C28.37 45.4134 27.81 45.5034 27.24 45.5634C27.07 45.5834 26.9 45.5934 26.73 45.6134C26.15 45.6634 25.57 45.7034 24.98 45.7034C24.94 45.7034 24.9 45.7034 24.86 45.7034C21.77 45.7034 18.81 45.0534 16.06 43.7636C15.79 43.6337 15.5 43.5737 15.21 43.5737ZM63.86 46.9832L65.55 57.4416L55.2 55.7119C54.8 55.6419 54.38 55.7019 54.01 55.8819C51.23 57.2017 48.24 57.8816 45.12 57.8816C38.45 57.8816 32.28 54.722 28.38 49.4628C28.47 49.4528 28.56 49.4228 28.64 49.4128C29.22 49.3228 29.8 49.2128 30.37 49.0829C30.49 49.0529 30.61 49.0329 30.73 49.0029C31.15 48.9029 31.57 48.7829 31.99 48.6629H56.44C57.54 48.6629 58.44 47.763 58.44 46.6632C58.44 45.5634 57.54 44.6635 56.44 44.6635H39.86C41.81 43.1837 43.54 41.414 45.01 39.3843H56.43C57.53 39.3843 58.43 38.4844 58.43 37.3846C58.43 36.2847 57.53 35.3848 56.43 35.3848H47.37C48.11 33.8151 48.68 32.1753 49.06 30.4756H56.42C57.52 30.4756 58.42 29.5757 58.42 28.4759C58.42 27.376 57.52 26.4761 56.42 26.4761H49.64C49.68 25.9362 49.7 25.3963 49.7 24.8564C49.7 24.2065 49.67 23.5566 49.62 22.9167C49.61 22.7367 49.59 22.5667 49.57 22.3867C49.52 21.8568 49.45 21.3269 49.36 20.797C49.34 20.677 49.33 20.567 49.31 20.447C49.2 19.8271 49.06 19.2172 48.9 18.6073C48.86 18.4473 48.81 18.2973 48.77 18.1474C48.63 17.6674 48.48 17.1775 48.32 16.7076C48.29 16.6076 48.26 16.5076 48.22 16.4076C58.24 17.9174 65.94 26.5861 65.94 37.0246C65.94 40.1142 65.29 43.0737 64 45.8233C63.85 46.1833 63.79 46.5832 63.86 46.9832Z" fill="white"/>
<path d="M24.91 15.5977C26.62 15.5977 28.01 16.9875 28.01 18.6973C28.01 20.407 26.62 21.7968 24.91 21.7968C23.81 21.7968 22.91 22.6967 22.91 23.7965V31.6154C22.91 32.7152 23.81 33.6151 24.91 33.6151C26.01 33.6151 26.91 32.7152 26.91 31.6154V25.4963C29.86 24.6264 32.01 21.9068 32.01 18.6873C32.01 14.7679 28.82 11.5883 24.91 11.5883C21 11.5883 17.81 14.7779 17.81 18.6873C17.81 19.7871 18.71 20.687 19.81 20.687C20.91 20.687 21.81 19.7871 21.81 18.6873C21.81 16.9875 23.2 15.5977 24.91 15.5977Z" fill="white"/>
<path d="M24.91 38.905C26.1637 38.905 27.18 37.8887 27.18 36.635C27.18 35.3813 26.1637 34.365 24.91 34.365C23.6563 34.365 22.64 35.3813 22.64 36.635C22.64 37.8887 23.6563 38.905 24.91 38.905Z" fill="white"/>
</g>
<defs>
<clipPath id="clip0_1477_14619">
<rect width="69.96" height="61.871" fill="white"/>
</clipPath>
</defs>
</svg>
