<svg width="35" height="35" viewBox="0 0 35 35" fill="none" xmlns="http://www.w3.org/2000/svg">
<path d="M13.9468 0C14.035 0.303936 14.2297 0.622345 14.1929 0.911808C13.9495 2.83937 14.4389 4.54457 15.6573 6.04056C17.2809 8.03522 17.823 10.3101 17.523 12.835C17.4533 13.4192 17.5099 14.0179 17.5125 14.61C17.5138 14.9784 17.4178 15.2823 16.9809 15.2836C16.5507 15.285 16.4336 14.9863 16.4323 14.6192C16.4296 13.1061 16.452 11.593 16.4152 10.0812C16.406 9.68779 16.2875 9.25755 16.0928 8.91677C15.3363 7.59314 14.5284 6.29845 13.6771 4.89061C12.8903 6.19977 12.1864 7.42867 11.4219 8.61678C11.0483 9.19702 10.9167 9.7799 10.918 10.4641C10.9364 17.9835 10.9299 25.5017 10.9299 33.0211C10.9299 33.283 10.9299 33.5435 10.9299 33.9079C11.4193 33.9079 11.8772 33.8645 12.3206 33.9237C12.5877 33.9592 12.9193 34.1014 13.0535 34.3053C13.1298 34.4211 12.8706 34.7605 12.7627 34.9987C8.51547 34.9987 4.26826 34.9987 0 34.9987C0 26.3582 0 17.7191 0 9.07861C0.189467 8.78651 0.347355 8.46416 0.580241 8.21153C0.721026 8.05891 0.986805 7.92733 1.18022 7.94707C1.33021 7.96286 1.46705 8.21943 1.5802 8.38916C1.64336 8.48258 1.64599 8.61678 1.67888 8.74967C3.0341 8.74967 4.34852 8.74967 5.66295 8.74967C6.06819 8.74967 6.5366 8.73783 6.54318 9.28518C6.54975 9.82463 6.09714 9.847 5.68268 9.84568C4.58667 9.84437 3.49066 9.84568 2.39465 9.84568C1.96835 9.84568 1.54073 9.84568 1.11048 9.84568C1.11048 11.3535 1.11048 12.7469 1.11048 14.1705C4.02485 14.1705 6.90369 14.1705 9.80095 14.1705C9.80095 12.7193 9.80095 11.3088 9.80095 9.84042C9.25492 9.84042 8.74572 9.89173 8.25627 9.81674C8.03654 9.78384 7.85497 9.49964 7.65761 9.32991C7.85497 9.13782 8.0247 8.83783 8.25495 8.77862C8.62599 8.68388 9.04045 8.71809 9.43122 8.75493C9.90752 8.79835 10.1891 8.62599 10.4246 8.20364C11.0022 7.1721 11.6338 6.17082 12.2377 5.15375C12.3759 4.92087 12.4969 4.67877 12.6679 4.36299C9.94963 4.36299 7.34578 4.37089 4.74061 4.35378C4.32484 4.35115 4.03669 4.4301 3.84854 4.83666C3.69855 5.16165 3.42356 5.37611 3.0512 5.14849C2.66306 4.91034 2.76832 4.60377 2.92752 4.23931C3.10515 3.83538 3.22883 3.3854 3.26435 2.94726C3.31961 2.27228 3.25119 1.5881 3.29067 0.910492C3.3104 0.603925 3.46171 0.303936 3.5525 0C7.01684 0 10.4825 0 13.9468 0ZM9.79305 28.395C9.79305 24.0149 9.79305 19.6887 9.79305 15.3639C6.8629 15.3639 3.98538 15.3639 1.1118 15.3639C1.1118 19.7374 1.1118 24.0491 1.1118 28.395C4.01564 28.395 6.88132 28.395 9.79305 28.395ZM1.11312 33.8619C4.02222 33.8619 6.89579 33.8619 9.80884 33.8619C9.80884 32.4172 9.80884 31.0094 9.80884 29.5568C6.89974 29.5568 4.02616 29.5568 1.11312 29.5568C1.11312 31.0015 1.11312 32.4093 1.11312 33.8619ZM13.0956 3.2433C13.0956 2.52096 13.0956 1.83414 13.0956 1.11443C10.1838 1.11443 7.31157 1.11443 4.4051 1.11443C4.4051 1.8394 4.4051 2.52491 4.4051 3.2433C7.31815 3.2433 10.1917 3.2433 13.0956 3.2433Z" fill="black"/>
<path d="M18.0257 34.9987C16.7876 34.5869 15.5166 34.2487 14.3219 33.7343C13.6167 33.4303 13.0272 32.8514 12.3944 32.3856C12.0549 32.1356 11.951 31.8146 12.1404 31.4067C12.2878 31.0896 12.4128 30.7607 12.5181 30.4278C12.6786 29.9239 12.9009 29.5634 13.5009 29.4278C14.1377 29.2844 14.4061 28.4542 14.0233 27.8634C13.7549 27.449 13.793 27.1056 13.9535 26.6977C14.4575 25.4135 14.9509 24.1267 15.4351 22.836C15.6377 22.2965 15.91 22.0492 16.5258 22.3242C17.1442 22.5992 17.6258 22.3268 17.8626 21.6729C18.0942 21.0347 17.8981 20.4874 17.2758 20.2913C16.6653 20.0979 16.614 19.7637 16.8205 19.2414C17.3995 17.7757 17.9731 16.3086 18.5191 14.831C18.6823 14.3889 18.9481 14.206 19.3981 14.2087C20.5151 14.2153 21.6348 14.1771 22.7492 14.2363C23.0229 14.2508 23.3966 14.5087 23.5242 14.7573C23.8518 15.3968 24.0637 16.0941 24.3281 16.7665C24.4768 17.1441 24.411 17.4217 24.0492 17.6625C23.5479 17.9967 23.419 18.5046 23.6282 19.0519C23.8387 19.6032 24.2755 19.7361 24.8544 19.6795C25.0755 19.6585 25.4531 19.8703 25.5347 20.069C25.6926 20.4532 25.3794 20.6453 25.0202 20.7347C24.2176 20.9361 23.3479 20.6216 22.869 19.9493C22.3203 19.1782 22.3006 18.1375 22.8098 17.3507C22.9348 17.1586 23.1558 16.9178 23.1163 16.752C23.0071 16.2889 22.7953 15.8481 22.5914 15.4126C22.5572 15.3376 22.3637 15.31 22.2427 15.3086C21.5217 15.2994 20.7993 15.3034 19.9533 15.3034C20.2336 16.056 20.4835 16.7415 20.7441 17.423C21.0559 18.2401 21.373 19.0559 21.6953 19.8703C21.8388 20.2321 21.8927 20.5769 21.4546 20.7492C21.023 20.919 20.8085 20.6479 20.6677 20.2808C20.1757 18.9953 19.6809 17.7112 19.1415 16.3033C18.7481 17.3086 18.3876 18.1927 18.0678 19.0927C18.0257 19.2098 18.1586 19.4453 18.2771 19.5532C19.0533 20.2663 19.2441 21.0795 18.8468 22.1123C18.4784 23.0702 17.7876 23.5175 16.7232 23.5531C16.5482 23.5583 16.289 23.732 16.2232 23.8912C15.8179 24.8596 15.4443 25.8425 15.093 26.8319C15.0219 27.0306 15.0377 27.3016 15.1101 27.5042C15.5469 28.7252 15.1324 29.8357 13.9812 30.4489C13.1891 30.8699 13.1141 31.6291 13.8298 32.1475C16.139 33.8172 18.6902 34.2461 21.444 33.6014C21.5927 33.5672 21.7414 33.5264 21.8861 33.4751C22.248 33.3501 22.619 33.4014 22.6703 33.7895C22.6993 34.0066 22.4374 34.404 22.219 34.4856C21.5901 34.7211 20.9164 34.8369 20.2612 35C19.5165 34.9987 18.7718 34.9987 18.0257 34.9987Z" fill="black"/>
<path d="M28.157 0C28.2478 0.280253 28.4083 0.559189 28.4162 0.842074C28.4478 1.87098 28.4149 2.90121 28.4399 3.93143C28.4452 4.13011 28.5452 4.43404 28.6912 4.50641C29.603 4.95508 29.6912 6.28924 28.9636 7.06026C28.7991 7.23525 28.6123 7.39183 28.4557 7.5734C27.9176 8.19838 27.9373 8.59047 28.5505 9.1365C29.7701 10.222 30.4399 11.5811 30.6043 13.1969C30.6201 13.3495 30.6793 13.5429 30.6109 13.6469C30.4714 13.8587 30.2806 14.1245 30.0701 14.1679C29.9267 14.1968 29.6373 13.9166 29.5517 13.7166C29.4452 13.4679 29.5004 13.1548 29.4544 12.8745C29.2609 11.7061 28.7031 10.7391 27.8215 9.95226C26.7545 8.99966 26.7018 7.86286 27.6742 6.80369C27.7781 6.69054 27.9321 6.61028 27.9978 6.48133C28.1294 6.22608 28.2163 5.94846 28.3215 5.68005C28.086 5.60505 27.8518 5.46558 27.6163 5.46427C25.5782 5.45243 23.5414 5.45769 21.5033 5.48137C21.2981 5.484 20.9297 5.61821 20.9205 5.71557C20.9007 5.94583 21.0099 6.21819 21.1441 6.42213C21.431 6.85501 21.8362 7.22078 22.0665 7.67734C22.4375 8.41284 22.2428 9.22202 21.6073 9.75753C20.7047 10.5167 20.0863 11.439 19.8008 12.5851C19.7113 12.9429 19.4903 13.2574 19.1205 13.0692C18.9205 12.9666 18.7337 12.539 18.7798 12.3022C19.0219 11.0351 19.6942 9.99831 20.6507 9.14045C21.2705 8.5852 21.281 8.1589 20.7139 7.52735C20.4521 7.23657 20.1521 6.96158 19.9639 6.62607C19.5179 5.83136 19.735 5.09586 20.4508 4.55509C20.6179 4.42878 20.7534 4.14984 20.76 3.93801C20.7915 2.93147 20.7534 1.9223 20.7863 0.914439C20.8021 0.603925 20.9613 0.303936 21.052 0C23.4204 0 25.7887 0 28.157 0ZM21.8994 4.30115C23.7309 4.30115 25.5256 4.30115 27.3071 4.30115C27.3071 3.94064 27.3071 3.64197 27.3071 3.27882C27.0347 3.27882 26.7992 3.27882 26.5637 3.27882C25.6019 3.27882 24.6361 3.31303 23.6783 3.25382C23.4375 3.23935 23.0664 2.95384 23.0191 2.73542C22.9309 2.33807 23.2809 2.19465 23.6559 2.19729C24.1151 2.1986 24.5743 2.19597 25.0335 2.19597C25.7913 2.19597 26.5492 2.19597 27.3031 2.19597C27.3031 1.77625 27.3031 1.45784 27.3031 1.12101C25.4808 1.12101 23.7019 1.12101 21.8994 1.12101C21.8994 2.20781 21.8994 3.24725 21.8994 4.30115Z" fill="black"/>
<path d="M34.9985 22.6307C34.6551 22.7834 34.3104 22.936 33.8499 23.1399C33.8025 23.6294 33.7433 24.253 33.6828 24.8754C33.6552 25.1583 33.692 25.4714 33.5815 25.7162C33.4854 25.9306 33.2223 26.0714 33.0328 26.2438C32.8591 26.0306 32.542 25.8201 32.5381 25.6043C32.5289 24.9517 32.642 24.2978 32.7039 23.6439C32.7223 23.4518 32.7262 23.2583 32.7407 23.0123C29.8711 23.0123 27.037 23.0123 24.1174 23.0123C24.4476 26.6437 24.7752 30.2489 25.1068 33.904C27.2554 33.904 29.3343 33.9145 31.4131 33.8816C31.5526 33.879 31.7829 33.5619 31.8065 33.3711C31.9302 32.3501 32.0105 31.3225 32.0868 30.2962C32.1171 29.8831 32.2236 29.5042 32.6999 29.5371C33.1946 29.5713 33.2131 29.9805 33.1762 30.3831C33.0604 31.6488 32.9683 32.9159 32.8289 34.179C32.7973 34.4619 32.6118 34.7263 32.4973 35C29.7777 35 27.0594 35 24.3397 35C24.2424 34.7421 24.0845 34.4908 24.0582 34.2264C23.7095 30.6081 23.3792 26.9885 23.0437 23.3702C23.0332 23.2636 23.0161 23.157 22.9963 23.0149C22.7714 22.9886 22.5345 23.0149 22.3556 22.9255C22.1674 22.8294 21.8977 22.611 21.9109 22.4689C21.9293 22.2663 22.1477 22.0531 22.3306 21.9045C22.4266 21.8268 22.6253 21.8676 22.7779 21.8676C26.5449 21.8663 30.3132 21.8584 34.0801 21.8821C34.3854 21.8847 34.6906 22.115 34.9959 22.2387C34.9985 22.3676 34.9985 22.4992 34.9985 22.6307Z" fill="black"/>
<path d="M19.7022 24.0728C20.6008 24.0794 21.3192 24.8004 21.3219 25.7004C21.3245 26.5898 20.5956 27.3293 19.7048 27.3385C18.7956 27.3477 18.0207 26.5701 18.0404 25.6688C18.0601 24.782 18.8049 24.0662 19.7022 24.0728ZM20.4614 25.6688C20.0772 25.4267 19.8364 25.1583 19.6522 25.1912C19.4627 25.2254 19.2351 25.5451 19.2048 25.7635C19.1864 25.8912 19.5285 26.1977 19.6982 26.1911C19.9061 26.1819 20.1035 25.9293 20.4614 25.6688Z" fill="black"/>
<path d="M18.5703 31.1396C18.5821 32.0672 17.9098 32.7738 16.9967 32.7935C16.0651 32.8132 15.3086 32.0817 15.3125 31.1646C15.3165 30.2857 16.0612 29.5357 16.9388 29.5239C17.8243 29.512 18.5584 30.2383 18.5703 31.1396ZM16.9282 30.3831C16.6848 30.7765 16.4441 30.9962 16.4559 31.2015C16.4664 31.3764 16.798 31.6909 16.9322 31.6646C17.1427 31.6238 17.4295 31.362 17.4545 31.1646C17.4795 30.9844 17.2006 30.7633 16.9282 30.3831Z" fill="black"/>
<path d="M19.7017 29.5436C19.6951 28.691 20.3767 27.9016 21.1714 27.92C21.3977 27.9253 21.6187 28.1647 21.8411 28.2963C21.6885 28.5187 21.5516 28.7542 21.378 28.9594C21.199 29.1713 20.9859 29.3528 20.7872 29.5489C20.9767 29.7305 21.178 29.9015 21.3516 30.0962C21.5306 30.2975 21.6819 30.5225 21.845 30.737C21.5858 30.8751 21.3201 31.1436 21.0701 31.1291C20.3069 31.0857 19.707 30.3357 19.7017 29.5436Z" fill="black"/>
<path d="M30.6307 19.1717C30.6307 19.5006 30.7018 19.8506 30.6084 20.1493C30.5334 20.3887 30.2597 20.565 30.0742 20.769C29.89 20.5848 29.5637 20.4137 29.5466 20.2137C29.4834 19.498 29.4847 18.769 29.5492 18.052C29.5676 17.8546 29.8939 17.5454 30.0794 17.5454C30.261 17.5454 30.5491 17.8454 30.6031 18.0612C30.6912 18.4112 30.6268 18.7993 30.6268 19.1717C30.6294 19.1717 30.6307 19.1717 30.6307 19.1717Z" fill="black"/>
<path d="M30.846 15.9007C30.4737 16.127 30.2408 16.3836 30.0526 16.352C29.8579 16.3205 29.7066 16.0126 29.5369 15.8257C29.7276 15.6586 29.9118 15.3692 30.1092 15.36C30.2987 15.3494 30.5026 15.6323 30.846 15.9007Z" fill="black"/>
<path d="M32.809 28.6844C32.5485 28.291 32.2775 28.0594 32.3077 27.8779C32.3406 27.6792 32.6327 27.4371 32.8498 27.3924C32.9709 27.3674 33.2906 27.6989 33.2972 27.8779C33.3051 28.0805 33.0617 28.2923 32.809 28.6844Z" fill="black"/>
<path d="M2.21674 7.34971C1.95359 6.97604 1.70491 6.77473 1.70097 6.57079C1.69702 6.39712 2.00227 6.05897 2.12727 6.07871C2.34436 6.1116 2.65225 6.34054 2.68909 6.53264C2.7233 6.71421 2.46146 6.95368 2.21674 7.34971Z" fill="black"/>
<path d="M5.42191 18.8427C4.74825 19.9914 4.06538 20.99 3.55356 22.0703C2.85753 23.5386 3.68382 24.9136 5.30218 25.1293C5.69427 25.182 6.03373 25.3083 5.9982 25.7412C5.95873 26.2267 5.53506 26.274 5.14955 26.2569C3.23252 26.1675 1.72731 24.0004 2.34045 22.1742C2.90095 20.5071 3.95091 19.1204 5.01535 17.7533C5.30876 17.3757 5.69953 17.4007 5.9482 17.7888C6.82975 19.169 7.69025 20.5637 8.52574 21.9716C8.6731 22.2202 8.74284 22.5702 8.70863 22.8571C8.681 23.086 8.44022 23.2886 8.29417 23.5031C8.07839 23.3307 7.71524 23.1899 7.67182 22.9821C7.34947 21.4176 6.34293 20.2532 5.42191 18.8427Z" fill="black"/>
<path d="M7.62442 25.924C7.38233 25.5477 7.11787 25.3161 7.14813 25.1346C7.18102 24.9372 7.48627 24.7833 7.67311 24.6109C7.84284 24.7977 8.12967 24.9754 8.14677 25.1754C8.16388 25.3596 7.88889 25.5688 7.62442 25.924Z" fill="black"/>
</svg>
