<svg width="49" height="44" viewBox="0 0 49 44" fill="none" xmlns="http://www.w3.org/2000/svg">
<path d="M0.00319953 42.7533C0.259162 42.3489 0.522163 41.948 0.769806 41.5396C2.12513 39.3047 3.48045 37.0693 4.82937 34.8309C6.17829 32.592 7.51633 30.3479 8.86525 28.109C9.79247 26.5701 10.7351 25.0382 11.6636 23.4999C12.8819 21.482 14.0914 19.4606 15.3078 17.4415C16.2555 15.8691 17.2096 14.2995 18.1522 12.7242C18.2181 12.6137 18.2367 12.4685 18.2367 12.3395C18.2411 8.67678 18.2507 5.01411 18.229 1.35144C18.2258 0.765973 18.3365 0.291579 18.9444 0C23.2106 0 27.4763 0 31.7425 0C31.7873 0.0364473 31.8276 0.0792585 31.8782 0.107606C32.5027 0.458774 32.6038 1.13912 32.09 1.60542C31.052 2.549 30.0084 3.48738 28.9672 4.42864C28.9167 4.47435 28.8713 4.5241 28.7753 4.61956C29.3365 5.10957 29.8887 5.58628 30.4333 6.06993C30.9503 6.52813 31.4494 7.00252 31.9754 7.45262C32.3549 7.77717 32.5245 8.14801 32.3312 8.59348C32.1335 9.04993 31.699 9.17895 31.1922 9.17895C27.6836 9.17721 24.175 9.17779 20.6664 9.17837C20.2472 9.17837 20.2466 9.17895 20.2466 9.55499C20.2466 10.4228 20.2338 11.2906 20.2549 12.1584C20.2607 12.3985 20.3164 12.6617 20.4392 12.8705C21.2871 14.3082 22.1586 15.7348 23.0232 17.165C24.1065 18.9573 25.1918 20.749 26.2739 22.5418C27.2229 24.1137 28.1686 25.6873 29.1163 27.2603C29.9284 28.6071 30.7404 29.9534 31.5531 31.2996C31.5877 31.3563 31.6292 31.4095 31.7092 31.5246C31.9422 31.0977 32.152 30.7182 32.3568 30.3363C33.3154 28.5533 34.2727 26.7703 35.2294 24.9867C35.3266 24.8056 35.4252 24.6251 35.5103 24.44C35.6818 24.0686 35.9934 23.8319 36.4241 23.8152C36.8528 23.799 37.2015 24.0061 37.4121 24.3526C38.3431 25.8811 39.2646 27.4142 40.1937 28.9438C41.0768 30.3977 41.9644 31.8492 42.8487 33.3025C43.7996 34.8651 44.7473 36.4294 45.6976 37.992C46.5096 39.3273 47.3229 40.6619 48.1388 41.9954C48.2962 42.2523 48.4677 42.5017 48.6328 42.7545C48.6328 42.9471 48.6328 43.1404 48.6328 43.333C48.398 43.5453 48.1638 43.7571 47.9289 43.9694C32.1872 43.9694 16.4456 43.9694 0.703896 43.9694C0.469051 43.7571 0.234845 43.5453 0 43.333C0.00319953 43.1392 0.00319953 42.946 0.00319953 42.7533ZM2.72408 42.1326C13.7624 42.1326 24.7266 42.1326 35.7797 42.1326C32.3242 36.4045 28.8994 30.7274 25.4753 25.0497C25.4305 25.0289 25.3857 25.0087 25.3409 24.9878C25.2743 25.0873 25.2263 25.2042 25.1387 25.284C24.4348 25.9256 23.7328 26.569 23.0116 27.1944C22.5272 27.6144 21.9616 27.6011 21.5399 27.1394C20.9947 26.5412 20.4936 25.9106 19.9734 25.2939C19.7379 25.015 19.503 24.7356 19.2528 24.4388C19.0269 24.7055 18.8273 24.9392 18.6296 25.1753C18.0805 25.8325 17.5526 26.5059 16.9767 27.1434C16.5659 27.5976 15.9471 27.5982 15.4959 27.1996C15.1638 26.9062 14.8336 26.6106 14.5092 26.3109C14.0434 25.8811 13.5833 25.4466 13.0771 24.9728C9.60818 30.7228 6.18021 36.4045 2.72408 42.1326ZM36.5386 26.7327C36.3038 27.1677 36.1035 27.5363 35.9057 27.9054C34.9574 29.678 34.0129 31.4523 33.0569 33.222C32.9423 33.4344 32.934 33.6062 33.0626 33.8156C33.8139 35.0375 34.5542 36.2645 35.2965 37.4916C36.1911 38.9709 37.0857 40.4496 37.972 41.933C38.0731 42.1019 38.1928 42.158 38.3994 42.158C40.7978 42.1522 43.1962 42.1545 45.5945 42.1534C45.6835 42.1534 45.7724 42.1389 45.9036 42.1274C42.7764 36.9865 39.6741 31.8874 36.5386 26.7327ZM22.4248 25.1938C23.0788 24.5875 23.6976 24.02 24.303 23.4403C24.358 23.3876 24.3625 23.2442 24.3247 23.1695C24.1891 22.8993 24.0297 22.6396 23.8723 22.3787C22.5016 20.1062 21.131 17.8349 19.7577 15.5636C19.5997 15.3015 19.4294 15.0452 19.2439 14.7525C18.4568 16.0571 17.7017 17.3113 16.9434 18.5639C16.0226 20.086 15.0966 21.6052 14.1848 23.1319C14.1368 23.2123 14.1541 23.3876 14.22 23.4513C14.8234 24.0304 15.4448 24.5939 16.0571 25.1591C16.1435 25.0885 16.2075 25.0509 16.2504 24.9994C16.9229 24.1854 17.6057 23.3778 18.2584 22.5511C18.899 21.7394 19.7584 21.9199 20.2408 22.5493C20.9166 23.4287 21.6563 24.2687 22.4248 25.1938ZM28.9084 1.94154C28.8866 1.90625 28.8642 1.87039 28.8425 1.8351C28.7509 1.82815 28.6601 1.81543 28.5686 1.81543C25.9149 1.81427 23.2618 1.81774 20.6082 1.81022C20.3279 1.80964 20.2402 1.89179 20.2415 2.14345C20.2511 3.75234 20.2549 5.36123 20.2389 6.97012C20.2357 7.26286 20.3477 7.31666 20.6421 7.31608C23.2638 7.30683 25.8848 7.31088 28.5065 7.3103C28.6172 7.3103 28.7286 7.30046 28.886 7.29352C28.8277 7.22005 28.8034 7.17897 28.7682 7.14715C28.095 6.53738 27.4212 5.92877 26.7461 5.32131C26.2156 4.84403 26.2041 4.3436 26.7231 3.86284C27.0347 3.57415 27.3502 3.28836 27.6708 3.00777C28.0797 2.64909 28.4956 2.29676 28.9084 1.94154Z" fill="white"/>
</svg>
